<?xml version="1.0" encoding="UTF-8" standalone="no"?>
<svg
   xmlns:dc="http://purl.org/dc/elements/1.1/"
   xmlns:cc="http://creativecommons.org/ns#"
   xmlns:rdf="http://www.w3.org/1999/02/22-rdf-syntax-ns#"
   xmlns:svg="http://www.w3.org/2000/svg"
   xmlns="http://www.w3.org/2000/svg"
   xmlns:sodipodi="http://sodipodi.sourceforge.net/DTD/sodipodi-0.dtd"
   xmlns:inkscape="http://www.inkscape.org/namespaces/inkscape"
   width="30.48mm"
   height="128.5mm"
   viewBox="0 0 30.480002 128.50002"
   version="1.1"
   id="svg8"
   inkscape:version="1.0.2 (e86c8708, 2021-01-15)"
   sodipodi:docname="clock.svg">
  <defs
     id="defs2" />
  <sodipodi:namedview
     id="base"
     pagecolor="#ffffff"
     bordercolor="#666666"
     borderopacity="1.0"
     inkscape:pageopacity="0.0"
     inkscape:pageshadow="2"
     inkscape:zoom="1.3321822"
     inkscape:cx="124.03235"
     inkscape:cy="225.93973"
     inkscape:document-units="mm"
     inkscape:current-layer="layer1"
     showgrid="false"
     units="mm"
     inkscape:snap-bbox="true"
     inkscape:snap-page="true"
     inkscape:bbox-nodes="false"
     inkscape:snap-bbox-edge-midpoints="false"
     inkscape:window-width="1440"
     inkscape:window-height="855"
     inkscape:window-x="0"
     inkscape:window-y="23"
     inkscape:window-maximized="0"
     inkscape:snap-bbox-midpoints="true"
     inkscape:snap-nodes="false"
     inkscape:document-rotation="0" />
  <metadata
     id="metadata5">
    <rdf:RDF>
      <cc:Work
         rdf:about="">
        <dc:format>image/svg+xml</dc:format>
        <dc:type
           rdf:resource="http://purl.org/dc/dcmitype/StillImage" />
        <dc:title></dc:title>
      </cc:Work>
    </rdf:RDF>
  </metadata>
  <g
     inkscape:label="Layer 1"
     inkscape:groupmode="layer"
     id="layer1"
     transform="translate(0,-168.49998)">
    <rect
       style="display:inline;opacity:1;vector-effect:none;fill:#e6e6e6;fill-opacity:1;fill-rule:evenodd;stroke:none;stroke-width:0.64935839;stroke-linecap:butt;stroke-linejoin:miter;stroke-miterlimit:4;stroke-dasharray:none;stroke-dashoffset:0;stroke-opacity:1;paint-order:normal"
       id="rect420"
       width="30.48"
       height="128.5"
       x="5.9211732e-17"
       y="168.49997" />
    <g
       aria-label="Clock"
       id="text69"
       style="font-size:5.29167px;line-height:1.25;font-family:sans-serif;-inkscape-font-specification:'sans-serif, Normal';stroke-width:0.264583"
       transform="translate(0,4.7625002)">
      <path
         d="m 11.563096,175.17224 q -0.14211,0.062 -0.258382,0.11627 -0.113688,0.0543 -0.299724,0.11369 -0.157613,0.0491 -0.343648,0.0827 -0.183451,0.0362 -0.40566,0.0362 -0.4185796,0 -0.7622281,-0.11627 -0.3410647,-0.11886 -0.5942794,-0.36949 -0.248047,-0.24546 -0.3875734,-0.6227 -0.1395265,-0.37982 -0.1395265,-0.88109 0,-0.47542 0.1343588,-0.85007 0.1343588,-0.37466 0.3875735,-0.63304 0.2454632,-0.25063 0.5916955,-0.38241 0.3488161,-0.13177 0.7725636,-0.13177 0.310058,0 0.617533,0.0749 0.310059,0.0749 0.687297,0.26355 v 0.6072 h -0.03876 q -0.31781,-0.26614 -0.630453,-0.38758 -0.312643,-0.12144 -0.66921,-0.12144 -0.2919722,0 -0.5271001,0.0956 -0.2325441,0.093 -0.4159955,0.29197 -0.1782838,0.19378 -0.2790529,0.49092 -0.098185,0.29456 -0.098185,0.68213 0,0.40566 0.1085206,0.69764 0.1111044,0.29197 0.2842205,0.47542 0.1808676,0.1912 0.4211632,0.28422 0.2428794,0.0904 0.5115962,0.0904 0.369487,0 0.692465,-0.1266 0.322978,-0.12661 0.604615,-0.37983 h 0.03617 z"
         style="stroke-width:0.264583"
         id="path84" />
      <path
         d="m 12.743904,175.45129 h -0.485759 v -4.02042 h 0.485759 z"
         style="stroke-width:0.264583"
         id="path86" />
      <path
         d="m 16.170053,174.00952 q 0,0.70538 -0.361735,1.11363 -0.361736,0.40824 -0.968934,0.40824 -0.612366,0 -0.974101,-0.40824 -0.359152,-0.40825 -0.359152,-1.11363 0,-0.70538 0.359152,-1.11363 0.361735,-0.41083 0.974101,-0.41083 0.607198,0 0.968934,0.41083 0.361735,0.40825 0.361735,1.11363 z m -0.501262,0 q 0,-0.56069 -0.219625,-0.83199 -0.219625,-0.27389 -0.609782,-0.27389 -0.395325,0 -0.61495,0.27389 -0.217041,0.2713 -0.217041,0.83199 0,0.5426 0.219625,0.82424 0.219625,0.27905 0.612366,0.27905 0.387573,0 0.607198,-0.27647 0.222209,-0.27905 0.222209,-0.82682 z"
         style="stroke-width:0.264583"
         id="path88" />
      <path
         d="m 19.058767,175.27043 q -0.242879,0.11627 -0.462504,0.18086 -0.217042,0.0646 -0.462505,0.0646 -0.312642,0 -0.573608,-0.0904 -0.260967,-0.093 -0.447002,-0.27906 -0.188619,-0.18603 -0.291972,-0.47025 -0.103353,-0.28422 -0.103353,-0.66405 0,-0.70796 0.387574,-1.11104 0.390157,-0.40308 1.028361,-0.40308 0.248047,0 0.485759,0.0698 0.240296,0.0698 0.43925,0.17053 v 0.54002 h -0.02584 q -0.222209,-0.17312 -0.459921,-0.26614 -0.235128,-0.093 -0.45992,-0.093 -0.413412,0 -0.653708,0.27905 -0.237711,0.27647 -0.237711,0.8139 0,0.52194 0.232544,0.80357 0.235128,0.27906 0.658875,0.27906 0.147278,0 0.299723,-0.0388 0.152446,-0.0388 0.273885,-0.10077 0.105937,-0.0543 0.198955,-0.11369 0.09302,-0.062 0.147278,-0.10594 h 0.02584 z"
         style="stroke-width:0.264583"
         id="path90" />
      <path
         d="m 22.304049,175.45129 h -0.640788 l -1.157553,-1.26349 -0.315226,0.29973 v 0.96376 h -0.485759 v -4.02042 h 0.485759 v 2.57865 l 1.403016,-1.44436 h 0.612366 l -1.341004,1.33326 z"
         style="stroke-width:0.264583"
         id="path92" />
    </g>
    <g
       aria-label="Rate"
       id="text97"
       style="font-size:5.29167px;line-height:1.25;font-family:sans-serif;-inkscape-font-specification:'sans-serif, Normal';stroke-width:0.264583"
       transform="translate(1.5875,2.1166667)">
      <path
         d="M 11.445784,224.50771 H 10.781742 L 9.4949978,222.97808 H 8.7741111 v 1.52963 h -0.511597 v -3.84732 h 1.0774543 q 0.3488161,0 0.5813602,0.0465 0.2325444,0.0439 0.4185794,0.1602 0.20929,0.13177 0.325562,0.33331 0.118856,0.19896 0.118856,0.50643 0,0.416 -0.20929,0.69763 -0.20929,0.27906 -0.5761927,0.42117 z m -1.19631,-2.7647 q 0,-0.16536 -0.05943,-0.29197 -0.05684,-0.12919 -0.1912027,-0.21704 -0.1111044,-0.0749 -0.26355,-0.10335 -0.1524456,-0.031 -0.3591514,-0.031 H 8.7741111 v 1.45211 h 0.5167646 q 0.2428794,0 0.423747,-0.0413 0.1808676,-0.0439 0.3074753,-0.1602 0.116272,-0.10852 0.170532,-0.24804 0.05684,-0.14211 0.05684,-0.35916 z"
         style="stroke-width:0.264583"
         id="path99" />
      <path
         d="m 14.145879,224.50771 h -0.483174 v -0.30748 q -0.0646,0.0439 -0.1757,0.12402 -0.108521,0.0775 -0.211874,0.12403 -0.12144,0.0594 -0.279053,0.0982 -0.157613,0.0413 -0.369487,0.0413 -0.390157,0 -0.661458,-0.25838 -0.271302,-0.25838 -0.271302,-0.65887 0,-0.32815 0.139527,-0.52969 0.14211,-0.20412 0.403076,-0.32039 0.26355,-0.11627 0.633037,-0.15761 0.369487,-0.0413 0.793234,-0.062 v -0.0749 q 0,-0.16536 -0.05943,-0.27388 -0.05685,-0.10852 -0.165365,-0.17053 -0.103353,-0.0594 -0.248047,-0.0801 -0.144694,-0.0207 -0.302307,-0.0207 -0.191203,0 -0.426331,0.0517 -0.235128,0.0491 -0.485759,0.1447 h -0.02584 v -0.49351 q 0.14211,-0.0388 0.410828,-0.0853 0.268717,-0.0465 0.529683,-0.0465 0.304892,0 0.529684,0.0517 0.227377,0.0491 0.392741,0.17053 0.162781,0.11886 0.248047,0.30748 0.08527,0.18861 0.08527,0.46767 z m -0.483174,-0.71056 v -0.80356 q -0.222209,0.0129 -0.524517,0.0387 -0.299723,0.0258 -0.475423,0.0749 -0.20929,0.0594 -0.338481,0.18604 -0.129191,0.12402 -0.129191,0.34365 0,0.24804 0.149862,0.37465 0.149861,0.12403 0.457336,0.12403 0.255799,0 0.467672,-0.0982 0.211874,-0.10077 0.392742,-0.2403 z"
         style="stroke-width:0.264583"
         id="path101" />
      <path
         d="m 16.585009,224.48187 q -0.136943,0.0362 -0.299724,0.0594 -0.160197,0.0232 -0.286804,0.0232 -0.441834,0 -0.671794,-0.23771 -0.22996,-0.23771 -0.22996,-0.76223 v -1.53479 h -0.328146 v -0.40824 h 0.328146 v -0.82941 h 0.485758 v 0.82941 h 1.002524 v 0.40824 h -1.002524 v 1.31517 q 0,0.22737 0.01034,0.35656 0.01033,0.12661 0.07235,0.23771 0.05684,0.10336 0.155029,0.15245 0.100769,0.0465 0.304891,0.0465 0.118856,0 0.248047,-0.0336 0.129192,-0.0362 0.186036,-0.0594 h 0.02584 z"
         style="stroke-width:0.264583"
         id="path103" />
      <path
         d="m 19.589995,223.11503 h -2.126487 q 0,0.26613 0.0801,0.46508 0.0801,0.19637 0.219625,0.32298 0.134358,0.12402 0.31781,0.18604 0.186035,0.062 0.408244,0.062 0.294556,0 0.591695,-0.11627 0.299724,-0.11886 0.426331,-0.23255 h 0.02584 v 0.52969 q -0.245463,0.10335 -0.501261,0.17311 -0.255799,0.0698 -0.537435,0.0698 -0.718303,0 -1.12138,-0.38758 -0.403076,-0.39016 -0.403076,-1.10587 0,-0.70797 0.38499,-1.12397 0.387573,-0.41599 1.018026,-0.41599 0.583944,0 0.89917,0.34106 0.317811,0.34107 0.317811,0.96894 z m -0.47284,-0.37208 q -0.0026,-0.3824 -0.193787,-0.59169 -0.188619,-0.20929 -0.576192,-0.20929 -0.390158,0 -0.622702,0.22996 -0.22996,0.22996 -0.260966,0.57102 z"
         style="stroke-width:0.264583"
         id="path105" />
    </g>
    <g
       aria-label="Clock"
       id="text110"
       style="font-size:5.29167px;line-height:1.25;font-family:sans-serif;-inkscape-font-specification:'sans-serif, Normal';stroke-width:0.264583"
       transform="translate(-0.52916663,5.2916669)">
      <path
         d="m 12.028346,284.00995 q -0.14211,0.062 -0.258382,0.11627 -0.113688,0.0543 -0.299724,0.11369 -0.157613,0.0491 -0.343648,0.0827 -0.183451,0.0362 -0.40566,0.0362 -0.41858,0 -0.7622281,-0.11627 -0.3410647,-0.11885 -0.5942793,-0.36948 -0.2480471,-0.24547 -0.3875735,-0.62271 -0.1395265,-0.37982 -0.1395265,-0.88108 0,-0.47542 0.1343588,-0.85008 0.1343588,-0.37465 0.3875735,-0.63303 0.2454632,-0.25063 0.5916955,-0.38241 0.3488166,-0.13177 0.7725636,-0.13177 0.310058,0 0.617533,0.0749 0.310059,0.0749 0.687297,0.26355 v 0.60719 h -0.03876 q -0.31781,-0.26613 -0.630453,-0.38757 -0.312643,-0.12144 -0.66921,-0.12144 -0.291972,0 -0.5271,0.0956 -0.2325442,0.093 -0.4159956,0.29198 -0.1782838,0.19378 -0.2790529,0.49092 -0.098185,0.29456 -0.098185,0.68213 0,0.40566 0.1085206,0.69763 0.1111044,0.29198 0.2842205,0.47543 0.1808677,0.1912 0.4211634,0.28422 0.242879,0.0904 0.511596,0.0904 0.369487,0 0.692465,-0.12661 0.322978,-0.1266 0.604615,-0.37982 h 0.03617 z"
         style="stroke-width:0.264583"
         id="path112" />
      <path
         d="m 13.209154,284.289 h -0.485759 v -4.02043 h 0.485759 z"
         style="stroke-width:0.264583"
         id="path114" />
      <path
         d="m 16.635303,282.84723 q 0,0.70538 -0.361735,1.11363 -0.361736,0.40824 -0.968934,0.40824 -0.612366,0 -0.974101,-0.40824 -0.359152,-0.40825 -0.359152,-1.11363 0,-0.70539 0.359152,-1.11363 0.361735,-0.41083 0.974101,-0.41083 0.607198,0 0.968934,0.41083 0.361735,0.40824 0.361735,1.11363 z m -0.501262,0 q 0,-0.56069 -0.219625,-0.83199 -0.219625,-0.27389 -0.609782,-0.27389 -0.395325,0 -0.61495,0.27389 -0.217041,0.2713 -0.217041,0.83199 0,0.5426 0.219625,0.82424 0.219625,0.27905 0.612366,0.27905 0.387573,0 0.607198,-0.27647 0.222209,-0.27905 0.222209,-0.82682 z"
         style="stroke-width:0.264583"
         id="path116" />
      <path
         d="m 19.524017,284.10813 q -0.242879,0.11628 -0.462504,0.18087 -0.217041,0.0646 -0.462505,0.0646 -0.312642,0 -0.573608,-0.0904 -0.260967,-0.093 -0.447002,-0.27905 -0.188619,-0.18603 -0.291972,-0.47026 -0.103353,-0.28422 -0.103353,-0.66404 0,-0.70797 0.387574,-1.11104 0.390157,-0.40308 1.028361,-0.40308 0.248047,0 0.485759,0.0698 0.240296,0.0698 0.43925,0.17054 v 0.54002 h -0.02584 q -0.222209,-0.17312 -0.459921,-0.26614 -0.235128,-0.093 -0.45992,-0.093 -0.413412,0 -0.653708,0.27906 -0.237711,0.27647 -0.237711,0.8139 0,0.52193 0.232544,0.80357 0.235128,0.27905 0.658875,0.27905 0.147278,0 0.299723,-0.0387 0.152446,-0.0388 0.273885,-0.10077 0.105937,-0.0543 0.198955,-0.11369 0.09302,-0.062 0.147278,-0.10594 h 0.02584 z"
         style="stroke-width:0.264583"
         id="path118" />
      <path
         d="m 22.769299,284.289 h -0.640788 l -1.157553,-1.26349 -0.315226,0.29973 v 0.96376 h -0.485759 v -4.02043 h 0.485759 v 2.57866 l 1.403016,-1.44436 h 0.612366 l -1.341004,1.33325 z"
         style="stroke-width:0.264583"
         id="path120" />
    </g>
    <path
       inkscape:connector-curvature="0"
       id="path36593"
       d="m 19.74,272.45062 c 0,-0.43021 -0.417593,-0.78279 -0.928695,-0.78279 h -7.141332 c -0.511103,0 -0.929973,0.35258 -0.929973,0.78279 v 9.5239 c 0,0.43021 0.41887,0.78279 0.929973,0.78279 h 7.141332 c 0.511102,0 0.928695,-0.35258 0.928695,-0.78279 z m 0,0"
       style="display:inline;fill:#000000;fill-opacity:1;fill-rule:nonzero;stroke:none;stroke-width:0.300857" />
  </g>
  <g
     inkscape:groupmode="layer"
     id="layer2"
     inkscape:label="components"
     style="display:none">
    <circle
       style="display:inline;opacity:1;vector-effect:none;fill:#ff0000;fill-opacity:1;fill-rule:evenodd;stroke:none;stroke-width:1;stroke-linecap:butt;stroke-linejoin:miter;stroke-miterlimit:4;stroke-dasharray:none;stroke-dashoffset:0;stroke-opacity:1;paint-order:normal"
       id="path4954"
       cx="15.24"
       cy="46.063263"
       r="4"
       inkscape:label="rate" />
    <circle
       style="display:inline;opacity:1;vector-effect:none;fill:#0000ff;fill-opacity:1;fill-rule:evenodd;stroke:none;stroke-width:1;stroke-linecap:butt;stroke-linejoin:miter;stroke-miterlimit:4;stroke-dasharray:none;stroke-dashoffset:0;stroke-opacity:1;paint-order:normal"
       id="circle4958"
       cx="15.24"
       cy="108.71259"
       r="4"
       inkscape:label="clock" />
  </g>
</svg>
