<?xml version="1.0" encoding="UTF-8" standalone="no"?>
<svg
   xmlns:dc="http://purl.org/dc/elements/1.1/"
   xmlns:cc="http://creativecommons.org/ns#"
   xmlns:rdf="http://www.w3.org/1999/02/22-rdf-syntax-ns#"
   xmlns:svg="http://www.w3.org/2000/svg"
   xmlns="http://www.w3.org/2000/svg"
   xmlns:sodipodi="http://sodipodi.sourceforge.net/DTD/sodipodi-0.dtd"
   xmlns:inkscape="http://www.inkscape.org/namespaces/inkscape"
   width="30.48mm"
   height="128.5mm"
   viewBox="0 0 30.480002 128.50002"
   version="1.1"
   id="svg8"
   inkscape:version="1.0.2 (e86c8708, 2021-01-15)"
   sodipodi:docname="cvGenerator.svg">
  <defs
     id="defs2" />
  <sodipodi:namedview
     id="base"
     pagecolor="#ffffff"
     bordercolor="#666666"
     borderopacity="1.0"
     inkscape:pageopacity="0.0"
     inkscape:pageshadow="2"
     inkscape:zoom="1.4"
     inkscape:cx="109.4588"
     inkscape:cy="249.43123"
     inkscape:document-units="mm"
     inkscape:current-layer="layer2"
     showgrid="false"
     units="mm"
     inkscape:snap-bbox="true"
     inkscape:snap-page="true"
     inkscape:bbox-nodes="false"
     inkscape:snap-bbox-edge-midpoints="false"
     inkscape:window-width="1440"
     inkscape:window-height="855"
     inkscape:window-x="0"
     inkscape:window-y="23"
     inkscape:window-maximized="0"
     inkscape:snap-bbox-midpoints="true"
     inkscape:snap-nodes="false"
     inkscape:document-rotation="0" />
  <metadata
     id="metadata5">
    <rdf:RDF>
      <cc:Work
         rdf:about="">
        <dc:format>image/svg+xml</dc:format>
        <dc:type
           rdf:resource="http://purl.org/dc/dcmitype/StillImage" />
        <dc:title />
      </cc:Work>
    </rdf:RDF>
  </metadata>
  <g
     inkscape:label="Layer 1"
     inkscape:groupmode="layer"
     id="layer1"
     transform="translate(0,-168.49998)"
     style="display:inline">
    <rect
       style="display:inline;opacity:1;vector-effect:none;fill:#e6e6e6;fill-opacity:1;fill-rule:evenodd;stroke:none;stroke-width:0.649358;stroke-linecap:butt;stroke-linejoin:miter;stroke-miterlimit:4;stroke-dasharray:none;stroke-dashoffset:0;stroke-opacity:1;paint-order:normal"
       id="rect420"
       width="30.48"
       height="128.5"
       x="5.9211732e-17"
       y="168.49997" />
    <text
       xml:space="preserve"
       style="font-style:normal;font-weight:normal;font-size:10.5833px;line-height:1.25;font-family:sans-serif;fill:#000000;fill-opacity:1;stroke:none;stroke-width:0.264583"
       x="2.0788689"
       y="179.65028"
       id="text90"><tspan
         sodipodi:role="line"
         id="tspan88"
         x="2.0788689"
         y="179.65028"
         style="stroke-width:0.264583">LFSR</tspan></text>
    <g
       aria-label="Clock"
       id="text82"
       style="font-style:normal;font-weight:normal;font-size:10.5833px;line-height:1.25;font-family:sans-serif;display:inline;fill:#000000;fill-opacity:1;stroke:none;stroke-width:0.264583"
       transform="translate(-0.75367026,14.342532)">
      <path
         d="m 13.041738,201.81242 q -0.113688,0.0496 -0.206705,0.093 -0.09095,0.0434 -0.239779,0.0909 -0.12609,0.0393 -0.274918,0.0661 -0.146761,0.0289 -0.324528,0.0289 -0.334863,0 -0.609781,-0.093 -0.272852,-0.0951 -0.475423,-0.29559 -0.198438,-0.19637 -0.310059,-0.49816 -0.111621,-0.30385 -0.111621,-0.70486 0,-0.38034 0.107487,-0.68006 0.107487,-0.29973 0.310059,-0.50643 0.19637,-0.20051 0.473355,-0.30593 0.279053,-0.10542 0.61805,-0.10542 0.248047,0 0.494026,0.06 0.248047,0.0599 0.549837,0.21084 v 0.48576 h -0.03101 q -0.254248,-0.21291 -0.504361,-0.31006 -0.250114,-0.0971 -0.535368,-0.0971 -0.233577,0 -0.421679,0.0765 -0.186035,0.0744 -0.332796,0.23357 -0.142627,0.15503 -0.223242,0.39274 -0.07855,0.23565 -0.07855,0.54571 0,0.32453 0.08682,0.5581 0.08888,0.23358 0.227376,0.38034 0.144694,0.15296 0.33693,0.22738 0.194304,0.0723 0.409277,0.0723 0.295589,0 0.553971,-0.10128 0.258382,-0.10129 0.483691,-0.30386 h 0.02894 z"
         style="font-style:normal;font-variant:normal;font-weight:normal;font-stretch:normal;font-size:4.23333px;font-family:sans-serif;-inkscape-font-specification:'sans-serif, Normal';font-variant-ligatures:normal;font-variant-caps:normal;font-variant-numeric:normal;font-variant-east-asian:normal;stroke-width:0.264583"
         id="path122" />
      <path
         d="m 13.986383,202.03566 h -0.388607 v -3.21634 h 0.388607 z"
         style="font-style:normal;font-variant:normal;font-weight:normal;font-stretch:normal;font-size:4.23333px;font-family:sans-serif;-inkscape-font-specification:'sans-serif, Normal';font-variant-ligatures:normal;font-variant-caps:normal;font-variant-numeric:normal;font-variant-east-asian:normal;stroke-width:0.264583"
         id="path124" />
      <path
         d="m 16.727298,200.88224 q 0,0.56431 -0.289387,0.8909 -0.289388,0.3266 -0.775146,0.3266 -0.489892,0 -0.77928,-0.3266 -0.287321,-0.32659 -0.287321,-0.8909 0,-0.5643 0.287321,-0.8909 0.289388,-0.32866 0.77928,-0.32866 0.485758,0 0.775146,0.32866 0.289387,0.3266 0.289387,0.8909 z m -0.401008,0 q 0,-0.44855 -0.1757,-0.66559 -0.1757,-0.21911 -0.487825,-0.21911 -0.31626,0 -0.49196,0.21911 -0.173632,0.21704 -0.173632,0.66559 0,0.43408 0.1757,0.65939 0.175699,0.22325 0.489892,0.22325 0.310058,0 0.485758,-0.22118 0.177767,-0.22324 0.177767,-0.66146 z"
         style="font-style:normal;font-variant:normal;font-weight:normal;font-stretch:normal;font-size:4.23333px;font-family:sans-serif;-inkscape-font-specification:'sans-serif, Normal';font-variant-ligatures:normal;font-variant-caps:normal;font-variant-numeric:normal;font-variant-east-asian:normal;stroke-width:0.264583"
         id="path126" />
      <path
         d="m 19.038266,201.89097 q -0.194303,0.093 -0.370003,0.14469 -0.173632,0.0517 -0.370003,0.0517 -0.250113,0 -0.458886,-0.0724 -0.208773,-0.0744 -0.357601,-0.22324 -0.150895,-0.14883 -0.233577,-0.37621 -0.08268,-0.22737 -0.08268,-0.53123 0,-0.56637 0.310058,-0.88883 0.312126,-0.32246 0.822688,-0.32246 0.198438,0 0.388607,0.0558 0.192236,0.0558 0.351399,0.13642 v 0.43202 h -0.02067 q -0.177767,-0.1385 -0.367936,-0.21291 -0.188102,-0.0744 -0.367936,-0.0744 -0.330729,0 -0.522965,0.22324 -0.190169,0.22117 -0.190169,0.65112 0,0.41755 0.186035,0.64285 0.188102,0.22325 0.527099,0.22325 0.117822,0 0.239778,-0.031 0.121957,-0.031 0.219108,-0.0806 0.08475,-0.0434 0.159163,-0.091 0.07441,-0.0496 0.117823,-0.0847 h 0.02067 z"
         style="font-style:normal;font-variant:normal;font-weight:normal;font-stretch:normal;font-size:4.23333px;font-family:sans-serif;-inkscape-font-specification:'sans-serif, Normal';font-variant-ligatures:normal;font-variant-caps:normal;font-variant-numeric:normal;font-variant-east-asian:normal;stroke-width:0.264583"
         id="path128" />
      <path
         d="m 21.634488,202.03566 h -0.512629 l -0.926041,-1.01079 -0.252181,0.23978 v 0.77101 h -0.388606 v -3.21634 h 0.388606 v 2.06292 l 1.122411,-1.15548 h 0.489892 l -1.072802,1.0666 z"
         style="font-style:normal;font-variant:normal;font-weight:normal;font-stretch:normal;font-size:4.23333px;font-family:sans-serif;-inkscape-font-specification:'sans-serif, Normal';font-variant-ligatures:normal;font-variant-caps:normal;font-variant-numeric:normal;font-variant-east-asian:normal;stroke-width:0.264583"
         id="path130" />
    </g>
    <g
       aria-label="Ext Clock"
       id="text86"
       style="font-style:normal;font-weight:normal;font-size:10.5833px;line-height:1.25;font-family:sans-serif;display:inline;fill:#000000;fill-opacity:1;stroke:none;stroke-width:0.264583"
       transform="translate(-0.52288689,10.841111)">
      <path
         d="M 8.5346684,228.4155 H 6.5068869 v -3.07785 h 2.0277815 v 0.3638 H 6.9161639 v 0.84336 h 1.6185045 v 0.3638 H 6.9161639 v 1.14309 h 1.6185045 z"
         style="font-style:normal;font-variant:normal;font-weight:normal;font-stretch:normal;font-size:4.23333px;font-family:sans-serif;-inkscape-font-specification:'sans-serif, Normal';font-variant-ligatures:normal;font-variant-caps:normal;font-variant-numeric:normal;font-variant-east-asian:normal;stroke-width:0.264583"
         id="path133" />
      <path
         d="m 11.153628,228.4155 h -0.489892 l -0.655257,-0.88677 -0.6593906,0.88677 H 8.8964032 l 0.9012362,-1.15135 -0.892968,-1.15755 h 0.4898922 l 0.6511224,0.87229 0.65319,-0.87229 h 0.454752 l -0.907438,1.13688 z"
         style="font-style:normal;font-variant:normal;font-weight:normal;font-stretch:normal;font-size:4.23333px;font-family:sans-serif;-inkscape-font-specification:'sans-serif, Normal';font-variant-ligatures:normal;font-variant-caps:normal;font-variant-numeric:normal;font-variant-east-asian:normal;stroke-width:0.264583"
         id="path135" />
      <path
         d="m 12.858949,228.39483 q -0.109554,0.0289 -0.239779,0.0475 -0.128157,0.0186 -0.229443,0.0186 -0.353466,0 -0.537434,-0.19017 -0.183968,-0.19017 -0.183968,-0.60978 v -1.22783 h -0.262516 v -0.32659 h 0.262516 v -0.66353 h 0.388606 v 0.66353 h 0.802018 v 0.32659 h -0.802018 v 1.05213 q 0,0.1819 0.0083,0.28526 0.0083,0.10128 0.05788,0.19016 0.04547,0.0827 0.124023,0.12196 0.08062,0.0372 0.243913,0.0372 0.09508,0 0.198437,-0.0269 0.103353,-0.0289 0.148828,-0.0476 h 0.02067 z"
         style="font-style:normal;font-variant:normal;font-weight:normal;font-stretch:normal;font-size:4.23333px;font-family:sans-serif;-inkscape-font-specification:'sans-serif, Normal';font-variant-ligatures:normal;font-variant-caps:normal;font-variant-numeric:normal;font-variant-east-asian:normal;stroke-width:0.264583"
         id="path137" />
      <path
         d="m 17.226637,228.19225 q -0.113688,0.0496 -0.206706,0.093 -0.09095,0.0434 -0.239778,0.0909 -0.12609,0.0393 -0.274918,0.0662 -0.146761,0.0289 -0.324528,0.0289 -0.334863,0 -0.609782,-0.093 -0.272851,-0.0951 -0.475422,-0.29559 -0.198438,-0.19637 -0.310059,-0.49816 -0.111621,-0.30386 -0.111621,-0.70487 0,-0.38033 0.107487,-0.68006 0.107487,-0.29972 0.310059,-0.50643 0.19637,-0.2005 0.473355,-0.30592 0.279053,-0.10542 0.61805,-0.10542 0.248047,0 0.494026,0.06 0.248047,0.0599 0.549837,0.21083 v 0.48576 h -0.03101 q -0.254248,-0.2129 -0.504361,-0.31006 -0.250114,-0.0971 -0.535368,-0.0971 -0.233577,0 -0.421679,0.0765 -0.186035,0.0744 -0.332796,0.23358 -0.142627,0.15503 -0.223242,0.39274 -0.07855,0.23565 -0.07855,0.5457 0,0.32453 0.08682,0.55811 0.08888,0.23358 0.227376,0.38034 0.144694,0.15296 0.33693,0.22737 0.194303,0.0724 0.409277,0.0724 0.295589,0 0.553971,-0.10128 0.258382,-0.10129 0.483691,-0.30386 h 0.02894 z"
         style="font-style:normal;font-variant:normal;font-weight:normal;font-stretch:normal;font-size:4.23333px;font-family:sans-serif;-inkscape-font-specification:'sans-serif, Normal';font-variant-ligatures:normal;font-variant-caps:normal;font-variant-numeric:normal;font-variant-east-asian:normal;stroke-width:0.264583"
         id="path139" />
      <path
         d="m 18.171282,228.4155 h -0.388607 v -3.21634 h 0.388607 z"
         style="font-style:normal;font-variant:normal;font-weight:normal;font-stretch:normal;font-size:4.23333px;font-family:sans-serif;-inkscape-font-specification:'sans-serif, Normal';font-variant-ligatures:normal;font-variant-caps:normal;font-variant-numeric:normal;font-variant-east-asian:normal;stroke-width:0.264583"
         id="path141" />
      <path
         d="m 20.912197,227.26208 q 0,0.56431 -0.289388,0.8909 -0.289387,0.3266 -0.775145,0.3266 -0.489893,0 -0.77928,-0.3266 -0.287321,-0.32659 -0.287321,-0.8909 0,-0.56431 0.287321,-0.8909 0.289387,-0.32866 0.77928,-0.32866 0.485758,0 0.775145,0.32866 0.289388,0.32659 0.289388,0.8909 z m -0.401009,0 q 0,-0.44855 -0.175699,-0.66559 -0.1757,-0.21911 -0.487825,-0.21911 -0.31626,0 -0.49196,0.21911 -0.173632,0.21704 -0.173632,0.66559 0,0.43408 0.175699,0.65939 0.1757,0.22324 0.489893,0.22324 0.310058,0 0.485758,-0.22117 0.177766,-0.22324 0.177766,-0.66146 z"
         style="font-style:normal;font-variant:normal;font-weight:normal;font-stretch:normal;font-size:4.23333px;font-family:sans-serif;-inkscape-font-specification:'sans-serif, Normal';font-variant-ligatures:normal;font-variant-caps:normal;font-variant-numeric:normal;font-variant-east-asian:normal;stroke-width:0.264583"
         id="path143" />
      <path
         d="m 23.223165,228.2708 q -0.194303,0.093 -0.370003,0.1447 -0.173633,0.0517 -0.370003,0.0517 -0.250114,0 -0.458886,-0.0723 -0.208773,-0.0744 -0.357601,-0.22325 -0.150895,-0.14882 -0.233577,-0.3762 -0.08268,-0.22738 -0.08268,-0.53123 0,-0.56638 0.310058,-0.88884 0.312125,-0.32246 0.822688,-0.32246 0.198437,0 0.388607,0.0558 0.192236,0.0558 0.351399,0.13643 v 0.43201 h -0.02067 q -0.177766,-0.13849 -0.367935,-0.2129 -0.188103,-0.0744 -0.367936,-0.0744 -0.330729,0 -0.522965,0.22324 -0.19017,0.22118 -0.19017,0.65113 0,0.41754 0.186035,0.64285 0.188103,0.22324 0.5271,0.22324 0.117822,0 0.239778,-0.031 0.121956,-0.031 0.219108,-0.0806 0.08475,-0.0434 0.159163,-0.0909 0.07441,-0.0496 0.117822,-0.0848 h 0.02067 z"
         style="font-style:normal;font-variant:normal;font-weight:normal;font-stretch:normal;font-size:4.23333px;font-family:sans-serif;-inkscape-font-specification:'sans-serif, Normal';font-variant-ligatures:normal;font-variant-caps:normal;font-variant-numeric:normal;font-variant-east-asian:normal;stroke-width:0.264583"
         id="path145" />
      <path
         d="m 25.819388,228.4155 h -0.51263 l -0.92604,-1.01079 -0.252181,0.23978 v 0.77101 H 23.73993 v -3.21634 h 0.388607 v 2.06292 l 1.122411,-1.15548 h 0.489892 l -1.072802,1.0666 z"
         style="font-style:normal;font-variant:normal;font-weight:normal;font-stretch:normal;font-size:4.23333px;font-family:sans-serif;-inkscape-font-specification:'sans-serif, Normal';font-variant-ligatures:normal;font-variant-caps:normal;font-variant-numeric:normal;font-variant-east-asian:normal;stroke-width:0.264583"
         id="path147" />
    </g>
    <g
       aria-label="Gate"
       id="text58"
       style="font-style:normal;font-weight:normal;font-size:10.5833px;line-height:1.25;font-family:sans-serif;display:inline;fill:#000000;fill-opacity:1;stroke:none;stroke-width:0.264583"
       transform="translate(-0.12569245,6.6145802)">
      <path
         d="m 13.720591,254.90815 q -0.252181,0.11576 -0.551904,0.20257 -0.297656,0.0848 -0.576708,0.0848 -0.359668,0 -0.659391,-0.0992 -0.299723,-0.0992 -0.510563,-0.29765 -0.212907,-0.20051 -0.328662,-0.50023 -0.115755,-0.30179 -0.115755,-0.70486 0,-0.73794 0.429948,-1.16376 0.432014,-0.42788 1.184423,-0.42788 0.262516,0 0.535367,0.0641 0.274918,0.062 0.591178,0.21291 v 0.48576 h -0.03721 q -0.06408,-0.0496 -0.186035,-0.13023 -0.121956,-0.0806 -0.239779,-0.13436 -0.142626,-0.0641 -0.324527,-0.10542 -0.179834,-0.0434 -0.409277,-0.0434 -0.516764,0 -0.818554,0.3328 -0.299723,0.33073 -0.299723,0.8971 0,0.59738 0.314192,0.93018 0.314192,0.33073 0.855761,0.33073 0.198437,0 0.394808,-0.0393 0.198437,-0.0393 0.347265,-0.10128 v -0.75448 H 12.49069 v -0.35967 h 1.229898 z"
         style="font-style:normal;font-variant:normal;font-weight:normal;font-stretch:normal;font-size:4.23333px;font-family:sans-serif;-inkscape-font-specification:'sans-serif, Normal';font-variant-ligatures:normal;font-variant-caps:normal;font-variant-numeric:normal;font-variant-east-asian:normal;stroke-width:0.264583"
         id="path150" />
      <path
         d="m 16.198991,255.13553 h -0.38654 v -0.24598 q -0.05168,0.0351 -0.14056,0.0992 -0.08682,0.062 -0.169498,0.0992 -0.09715,0.0475 -0.223242,0.0785 -0.126091,0.0331 -0.295589,0.0331 -0.312125,0 -0.529166,-0.20671 -0.217041,-0.2067 -0.217041,-0.5271 0,-0.26251 0.111621,-0.42374 0.113688,-0.1633 0.322461,-0.25632 0.210839,-0.093 0.506428,-0.12609 0.295589,-0.0331 0.634586,-0.0496 v -0.0599 q 0,-0.13229 -0.04754,-0.21911 -0.04547,-0.0868 -0.132292,-0.13643 -0.08268,-0.0475 -0.198437,-0.0641 -0.115755,-0.0165 -0.241845,-0.0165 -0.152963,0 -0.341065,0.0413 -0.188102,0.0393 -0.388606,0.11575 h -0.02067 v -0.3948 q 0.113688,-0.031 0.328662,-0.0682 0.214974,-0.0372 0.423747,-0.0372 0.243912,0 0.423746,0.0413 0.181901,0.0393 0.314192,0.13642 0.130225,0.0951 0.198438,0.24598 0.06821,0.1509 0.06821,0.37414 z m -0.38654,-0.56844 v -0.64286 q -0.177767,0.0103 -0.419612,0.031 -0.239779,0.0207 -0.380338,0.0599 -0.167432,0.0476 -0.270785,0.14883 -0.103352,0.0992 -0.103352,0.27492 0,0.19844 0.119889,0.29972 0.119889,0.0992 0.365869,0.0992 0.204638,0 0.374137,-0.0786 0.169498,-0.0806 0.314192,-0.19223 z"
         style="font-style:normal;font-variant:normal;font-weight:normal;font-stretch:normal;font-size:4.23333px;font-family:sans-serif;-inkscape-font-specification:'sans-serif, Normal';font-variant-ligatures:normal;font-variant-caps:normal;font-variant-numeric:normal;font-variant-east-asian:normal;stroke-width:0.264583"
         id="path152" />
      <path
         d="m 18.150291,255.11486 q -0.109554,0.0289 -0.239778,0.0475 -0.128158,0.0186 -0.229444,0.0186 -0.353466,0 -0.537434,-0.19017 -0.183968,-0.19016 -0.183968,-0.60978 v -1.22783 h -0.262516 v -0.32659 h 0.262516 v -0.66353 h 0.388607 v 0.66353 h 0.802017 v 0.32659 h -0.802017 v 1.05213 q 0,0.1819 0.0083,0.28526 0.0083,0.10128 0.05788,0.19017 0.04548,0.0827 0.124024,0.12195 0.08061,0.0372 0.243912,0.0372 0.09509,0 0.198438,-0.0269 0.103352,-0.0289 0.148828,-0.0475 h 0.02067 z"
         style="font-style:normal;font-variant:normal;font-weight:normal;font-stretch:normal;font-size:4.23333px;font-family:sans-serif;-inkscape-font-specification:'sans-serif, Normal';font-variant-ligatures:normal;font-variant-caps:normal;font-variant-numeric:normal;font-variant-east-asian:normal;stroke-width:0.264583"
         id="path154" />
      <path
         d="M 20.554277,254.02139 H 18.85309 q 0,0.2129 0.06408,0.37207 0.06408,0.15709 0.175699,0.25838 0.107487,0.0992 0.254248,0.14883 0.148828,0.0496 0.326595,0.0496 0.235644,0 0.473356,-0.093 0.239778,-0.0951 0.341064,-0.18604 h 0.02067 v 0.42375 q -0.19637,0.0827 -0.401008,0.13849 -0.204639,0.0558 -0.429948,0.0558 -0.574641,0 -0.897102,-0.31006 -0.322461,-0.31212 -0.322461,-0.8847 0,-0.56637 0.307992,-0.89917 0.310058,-0.33279 0.814419,-0.33279 0.467155,0 0.719336,0.27285 0.254248,0.27285 0.254248,0.77515 z m -0.378272,-0.29766 q -0.0021,-0.30592 -0.155029,-0.47336 -0.150895,-0.16743 -0.460953,-0.16743 -0.312126,0 -0.498161,0.18397 -0.183967,0.18397 -0.208772,0.45682 z"
         style="font-style:normal;font-variant:normal;font-weight:normal;font-stretch:normal;font-size:4.23333px;font-family:sans-serif;-inkscape-font-specification:'sans-serif, Normal';font-variant-ligatures:normal;font-variant-caps:normal;font-variant-numeric:normal;font-variant-east-asian:normal;stroke-width:0.264583"
         id="path156" />
    </g>
    <g
       aria-label="1V/oct"
       style="font-style:normal;font-variant:normal;font-weight:300;font-stretch:normal;font-size:4.93889px;line-height:6.61458px;font-family:'Gotham Rounded';-inkscape-font-specification:'Gotham Rounded Light';font-variant-ligatures:normal;font-variant-caps:normal;font-variant-numeric:normal;font-feature-settings:normal;text-align:center;letter-spacing:0px;word-spacing:0px;writing-mode:lr-tb;text-anchor:middle;display:inline;fill:#000000;fill-opacity:1;stroke:none;stroke-width:0.264583px;stroke-linecap:butt;stroke-linejoin:miter;stroke-opacity:1"
       id="text4948"
       transform="translate(0.4002504,34.05565)">
      <path
         d="m 9.6908279,252.06539 c 0,0.0593 0.0508,0.11007 0.1100667,0.11007 0.059267,0 0.1058333,-0.0508 0.1058333,-0.11007 v -2.794 c 0,-0.055 -0.0381,-0.10583 -0.1058333,-0.10583 h -0.00847 c -0.046567,0 -0.0889,0.0127 -0.1354666,0.0296 l -0.5164667,0.1905 c -0.046567,0.0169 -0.080433,0.0423 -0.080433,0.0931 0,0.0508 0.042333,0.0931 0.093133,0.0931 0.016933,0 0.033867,-0.004 0.055033,-0.0127 l 0.4826,-0.1651 z"
         style="font-style:normal;font-variant:normal;font-weight:300;font-stretch:normal;font-size:4.23333px;font-family:'Gotham Rounded';-inkscape-font-specification:'Gotham Rounded Light';text-align:center;text-anchor:middle;stroke-width:0.264583px"
         id="path5057"
         inkscape:connector-curvature="0" />
      <path
         d="m 11.938463,252.18816 h 0.0085 c 0.06773,0 0.105833,-0.0381 0.131233,-0.0974 l 1.210733,-2.7686 c 0.0085,-0.0169 0.0085,-0.0254 0.0085,-0.0423 0,-0.0508 -0.04657,-0.1016 -0.105833,-0.1016 -0.0508,0 -0.0889,0.0381 -0.110067,0.0847 l -1.134533,2.65854 -1.1303,-2.6543 c -0.02117,-0.0508 -0.05927,-0.0889 -0.1143,-0.0889 -0.0635,0 -0.110067,0.055 -0.110067,0.10583 0,0.0212 0,0.0296 0.0085,0.0466 l 1.2065,2.76013 c 0.0254,0.0593 0.0635,0.0974 0.131233,0.0974 z"
         style="font-style:normal;font-variant:normal;font-weight:300;font-stretch:normal;font-size:4.23333px;font-family:'Gotham Rounded';-inkscape-font-specification:'Gotham Rounded Light';text-align:center;text-anchor:middle;stroke-width:0.264583px"
         id="path5059"
         inkscape:connector-curvature="0" />
      <path
         d="m 13.000435,252.62842 c 0,0.0508 0.0381,0.0889 0.0889,0.0889 0.04233,0 0.07197,-0.0254 0.0889,-0.0593 l 1.913466,-3.75074 c 0.0085,-0.0169 0.0127,-0.0381 0.0127,-0.055 0,-0.0508 -0.0381,-0.0889 -0.0889,-0.0889 -0.04233,0 -0.07197,0.0254 -0.0889,0.0593 l -1.913466,3.75073 c -0.0085,0.0169 -0.0127,0.0381 -0.0127,0.055 z"
         style="font-style:normal;font-variant:normal;font-weight:300;font-stretch:normal;font-size:4.23333px;font-family:'Gotham Rounded';-inkscape-font-specification:'Gotham Rounded Light';text-align:center;text-anchor:middle;stroke-width:0.264583px"
         id="path5061"
         inkscape:connector-curvature="0" />
      <path
         d="m 16.153937,252.20932 c 0.643467,0 1.113367,-0.52493 1.113367,-1.1303 v -0.008 c 0,-0.60537 -0.465667,-1.12184 -1.1049,-1.12184 -0.643467,0 -1.113367,0.52494 -1.113367,1.1303 v 0.008 c 0,0.60537 0.465667,1.12183 1.1049,1.12183 z m 0.0085,-0.19473 c -0.499534,0 -0.889,-0.41487 -0.889,-0.93557 v -0.008 c 0,-0.508 0.3683,-0.9271 0.880533,-0.9271 0.499533,0 0.889,0.41486 0.889,0.93556 v 0.008 c 0,0.508 -0.3683,0.9271 -0.880533,0.9271 z"
         style="font-style:normal;font-variant:normal;font-weight:300;font-stretch:normal;font-size:4.23333px;font-family:'Gotham Rounded';-inkscape-font-specification:'Gotham Rounded Light';text-align:center;text-anchor:middle;stroke-width:0.264583px"
         id="path5063"
         inkscape:connector-curvature="0" />
      <path
         d="m 18.861683,252.20932 c 0.3683,0 0.618066,-0.1524 0.833966,-0.37253 0.01693,-0.0169 0.0254,-0.0423 0.0254,-0.0635 0,-0.0508 -0.0508,-0.1016 -0.1016,-0.1016 -0.02963,0 -0.0508,0.0169 -0.06773,0.0339 -0.173567,0.17356 -0.397933,0.30903 -0.677333,0.30903 -0.4953,0 -0.889,-0.41487 -0.889,-0.93557 v -0.008 c 0,-0.51647 0.381,-0.9271 0.872066,-0.9271 0.2921,0 0.4953,0.1397 0.668867,0.3048 0.01693,0.0169 0.04657,0.0254 0.07197,0.0254 0.05927,0 0.105834,-0.0466 0.105834,-0.10584 0,-0.0296 -0.0127,-0.0593 -0.02963,-0.0762 -0.194733,-0.18203 -0.440266,-0.3429 -0.812799,-0.3429 -0.618067,0 -1.100667,0.52494 -1.100667,1.1303 v 0.008 c 0,0.60537 0.478367,1.12183 1.100667,1.12183 z"
         style="font-style:normal;font-variant:normal;font-weight:300;font-stretch:normal;font-size:4.23333px;font-family:'Gotham Rounded';-inkscape-font-specification:'Gotham Rounded Light';text-align:center;text-anchor:middle;stroke-width:0.264583px"
         id="path5065"
         inkscape:connector-curvature="0" />
      <path
         d="m 21.043172,252.19662 c 0.122767,0 0.220133,-0.0254 0.3048,-0.055 0.04233,-0.0169 0.06773,-0.0466 0.06773,-0.0889 0,-0.0508 -0.04657,-0.0931 -0.09313,-0.0931 -0.02963,0 -0.09737,0.0423 -0.245533,0.0423 -0.249767,0 -0.4318,-0.11007 -0.4318,-0.4191 v -1.39277 h 0.677333 c 0.0508,0 0.09737,-0.0423 0.09737,-0.0931 0,-0.0508 -0.04657,-0.0974 -0.09737,-0.0974 h -0.677333 v -0.60113 c 0,-0.0593 -0.04657,-0.10583 -0.105834,-0.10583 -0.05927,0 -0.1016,0.0466 -0.1016,0.10583 v 0.60113 h -0.232833 c -0.0508,0 -0.09737,0.0423 -0.09737,0.0931 0,0.0508 0.04657,0.0974 0.09737,0.0974 h 0.232833 v 1.41394 c 0,0.41063 0.270934,0.59266 0.605367,0.59266 z"
         style="font-style:normal;font-variant:normal;font-weight:300;font-stretch:normal;font-size:4.23333px;font-family:'Gotham Rounded';-inkscape-font-specification:'Gotham Rounded Light';text-align:center;text-anchor:middle;stroke-width:0.264583px"
         id="path5067"
         inkscape:connector-curvature="0" />
    </g>
    <path
       inkscape:connector-curvature="0"
       id="path36593"
       d="m 20.074308,78.47185 c 0,-0.43021 -0.417593,-0.78279 -0.928695,-0.78279 h -7.141332 c -0.511103,0 -0.929973,0.35258 -0.929973,0.78279 v 9.5239 c 0,0.43021 0.41887,0.78279 0.929973,0.78279 h 7.141332 c 0.511102,0 0.928695,-0.35258 0.928695,-0.78279 z m 0,0"
       style="display:inline;fill:#000000;fill-opacity:1;fill-rule:nonzero;stroke:none;stroke-width:0.300857"
       transform="translate(0,168.49998)" />
    <path
       inkscape:connector-curvature="0"
       id="path36593-0"
       d="m 20.178048,102.81671 c 0,-0.43021 -0.417594,-0.78279 -0.928698,-0.78279 h -7.14133 c -0.511104,0 -0.929972,0.35258 -0.929972,0.78279 v 9.5239 c 0,0.43021 0.418868,0.78279 0.929972,0.78279 h 7.14133 c 0.511104,0 0.928698,-0.35258 0.928698,-0.78279 z m 0,0"
       style="display:inline;fill:#000000;fill-opacity:1;fill-rule:nonzero;stroke:none;stroke-width:0.300855"
       transform="translate(0,168.49998)" />
  </g>
  <g
     inkscape:groupmode="layer"
     id="layer2"
     inkscape:label="components"
     style="display:none">
    <circle
       style="display:inline;vector-effect:none;fill:#ff0000;fill-opacity:1;fill-rule:evenodd;stroke:none;stroke-width:1;stroke-linecap:butt;stroke-linejoin:miter;stroke-miterlimit:4;stroke-dasharray:none;stroke-dashoffset:0;stroke-opacity:1;paint-order:normal"
       id="path4954"
       cx="15.620354"
       cy="38.399551"
       r="4"
       inkscape:label="clock" />
    <circle
       r="4"
       cy="61.679272"
       cx="15.518922"
       id="circle4956"
       style="display:inline;vector-effect:none;fill:#00ff00;fill-opacity:1;fill-rule:evenodd;stroke:none;stroke-width:1;stroke-linecap:butt;stroke-linejoin:miter;stroke-miterlimit:4;stroke-dasharray:none;stroke-dashoffset:0;stroke-opacity:1;paint-order:normal"
       inkscape:label="exCloc" />
    <circle
       inkscape:label="blink"
       r="4"
       cy="21.355656"
       cx="15.64025"
       id="circle66"
       style="display:inline;vector-effect:none;fill:#ff00ff;fill-opacity:1;fill-rule:evenodd;stroke:none;stroke-width:1;stroke-linecap:butt;stroke-linejoin:miter;stroke-miterlimit:4;stroke-dasharray:none;stroke-dashoffset:0;stroke-opacity:1;paint-order:normal" />
    <circle
       style="display:inline;vector-effect:none;fill:#0000ff;fill-opacity:1;fill-rule:evenodd;stroke:none;stroke-width:1;stroke-linecap:butt;stroke-linejoin:miter;stroke-miterlimit:4;stroke-dasharray:none;stroke-dashoffset:0;stroke-opacity:1;paint-order:normal"
       id="circle4958-8"
       cx="15.574308"
       cy="83.233803"
       inkscape:label="gate"
       r="4" />
    <circle
       style="display:inline;vector-effect:none;fill:#0000ff;fill-opacity:1;fill-rule:evenodd;stroke:none;stroke-width:1;stroke-linecap:butt;stroke-linejoin:miter;stroke-miterlimit:4;stroke-dasharray:none;stroke-dashoffset:0;stroke-opacity:1;paint-order:normal"
       id="circle4958-8-2"
       cx="15.678048"
       cy="107.57866"
       inkscape:label="cv"
       r="4" />
  </g>
</svg>
