<?xml version="1.0" encoding="UTF-8" standalone="no"?>
<svg
   xmlns:dc="http://purl.org/dc/elements/1.1/"
   xmlns:cc="http://creativecommons.org/ns#"
   xmlns:rdf="http://www.w3.org/1999/02/22-rdf-syntax-ns#"
   xmlns:svg="http://www.w3.org/2000/svg"
   xmlns="http://www.w3.org/2000/svg"
   xmlns:sodipodi="http://sodipodi.sourceforge.net/DTD/sodipodi-0.dtd"
   xmlns:inkscape="http://www.inkscape.org/namespaces/inkscape"
   width="50.799999mm"
   height="128.5mm"
   viewBox="0 0 50.800003 128.50002"
   version="1.1"
   id="svg8"
   inkscape:version="1.0.2 (e86c8708, 2021-01-15)"
   sodipodi:docname="cvGenerator.svg">
  <defs
     id="defs2" />
  <sodipodi:namedview
     id="base"
     pagecolor="#ffffff"
     bordercolor="#666666"
     borderopacity="1.0"
     inkscape:pageopacity="0.0"
     inkscape:pageshadow="2"
     inkscape:zoom="1.3321822"
     inkscape:cx="102.49295"
     inkscape:cy="251.0578"
     inkscape:document-units="mm"
     inkscape:current-layer="layer2"
     showgrid="false"
     units="mm"
     inkscape:snap-bbox="true"
     inkscape:snap-page="true"
     inkscape:bbox-nodes="false"
     inkscape:snap-bbox-edge-midpoints="false"
     inkscape:window-width="1023"
     inkscape:window-height="855"
     inkscape:window-x="0"
     inkscape:window-y="23"
     inkscape:window-maximized="0"
     inkscape:snap-bbox-midpoints="true"
     inkscape:snap-nodes="false"
     inkscape:document-rotation="0" />
  <metadata
     id="metadata5">
    <rdf:RDF>
      <cc:Work
         rdf:about="">
        <dc:format>image/svg+xml</dc:format>
        <dc:type
           rdf:resource="http://purl.org/dc/dcmitype/StillImage" />
        <dc:title></dc:title>
      </cc:Work>
    </rdf:RDF>
  </metadata>
  <g
     inkscape:label="Layer 1"
     inkscape:groupmode="layer"
     id="layer1"
     transform="translate(0,-168.49998)"
     style="display:inline">
    <rect
       style="display:inline;opacity:1;vector-effect:none;fill:#e6e6e6;fill-opacity:1;fill-rule:evenodd;stroke:none;stroke-width:0.838324;stroke-linecap:butt;stroke-linejoin:miter;stroke-miterlimit:4;stroke-dasharray:none;stroke-dashoffset:0;stroke-opacity:1;paint-order:normal"
       id="rect420"
       width="50.799999"
       height="128.5"
       x="5.9211732e-17"
       y="168.49997" />
    <text
       xml:space="preserve"
       style="font-style:normal;font-weight:normal;font-size:10.5833px;line-height:1.25;font-family:sans-serif;display:inline;fill:#000000;fill-opacity:1;stroke:none;stroke-width:0.264583"
       x="8.0180855"
       y="192.0197"
       id="text119"><tspan
         sodipodi:role="line"
         id="tspan117"
         x="8.0180855"
         y="192.0197"
         style="stroke-width:0.264583" /></text>
    <text
       xml:space="preserve"
       style="font-size:3.52777px;line-height:1.25;font-family:sans-serif;-inkscape-font-specification:'sans-serif, Normal';display:inline;stroke-width:0.264583"
       x="12.828938"
       y="199.77051"
       id="text123"><tspan
         sodipodi:role="line"
         id="tspan121"
         x="12.828938"
         y="199.77051"
         style="stroke-width:0.264583" /></text>
    <text
       xml:space="preserve"
       style="font-size:1.76389px;line-height:1.25;font-family:sans-serif;-inkscape-font-specification:'sans-serif, Normal';display:inline;stroke-width:0.264583"
       x="5.6175098"
       y="215.26575"
       id="text976"><tspan
         sodipodi:role="line"
         id="tspan974"
         x="5.6175098"
         y="215.26575"
         style="stroke-width:0.264583" /></text>
    <text
       xml:space="preserve"
       style="font-style:normal;font-variant:normal;font-weight:bold;font-stretch:normal;font-size:2.46944px;line-height:1.25;font-family:sans-serif;-inkscape-font-specification:'sans-serif, Bold';font-variant-ligatures:normal;font-variant-caps:normal;font-variant-numeric:normal;font-variant-east-asian:normal;display:inline;stroke-width:0.264583"
       x="32.96909"
       y="239.20477"
       id="text1945"><tspan
         sodipodi:role="line"
         id="tspan1947"
         x="32.96909"
         y="239.20477" /></text>
    <g
       aria-label="CLOCK"
       id="text1994"
       style="font-weight:bold;font-size:2.11667px;line-height:1.25;font-family:sans-serif;-inkscape-font-specification:'sans-serif, Bold';display:inline;stroke-width:0.264583"
       transform="translate(1.2620855,13.901996)">
      <path
         d="m 9.8293403,243.60415 q -0.1715661,0 -0.3172938,-0.0506 -0.1446942,-0.0506 -0.2490808,-0.15089 -0.1043866,-0.10026 -0.1622642,-0.25012 -0.056844,-0.14986 -0.056844,-0.34623 0,-0.18293 0.054777,-0.33176 0.054777,-0.14883 0.1591636,-0.25529 0.1002525,-0.10231 0.2480473,-0.15813 0.1488284,-0.0558 0.3245285,-0.0558 0.097152,0 0.1746661,0.0114 0.07855,0.0103 0.144695,0.0279 0.06925,0.0196 0.125057,0.0444 0.05684,0.0238 0.09922,0.0444 v 0.37311 h -0.04548 q -0.02894,-0.0248 -0.07338,-0.0589 -0.04341,-0.0341 -0.09922,-0.0672 -0.05684,-0.0331 -0.12299,-0.0558 -0.066146,-0.0227 -0.1415938,-0.0227 -0.083716,0 -0.1591637,0.0269 -0.075448,0.0258 -0.1395266,0.0868 -0.060978,0.0589 -0.099219,0.15606 -0.037207,0.0971 -0.037207,0.23564 0,0.1447 0.040308,0.24185 0.041341,0.0971 0.1033531,0.15296 0.063045,0.0568 0.1405601,0.0816 0.077515,0.0238 0.1529624,0.0238 0.072347,0 0.1426265,-0.0217 0.07131,-0.0217 0.131259,-0.0589 0.05064,-0.03 0.09405,-0.0641 0.04341,-0.0341 0.07131,-0.0589 h 0.04134 v 0.36793 q -0.05788,0.0258 -0.110588,0.0486 -0.05271,0.0227 -0.110588,0.0393 -0.07545,0.0217 -0.141593,0.0331 -0.066146,0.0114 -0.1819013,0.0114 z"
         style="stroke-width:0.264583"
         id="path1996" />
      <path
         d="m 11.777545,243.57417 h -1.110012 v -1.53892 h 0.396876 v 1.24127 h 0.713136 z"
         style="stroke-width:0.264583"
         id="path1998" />
      <path
         d="m 13.511808,242.80523 q 0,0.36793 -0.21084,0.58497 -0.21084,0.21601 -0.582911,0.21601 -0.371037,0 -0.581877,-0.21601 -0.210841,-0.21704 -0.210841,-0.58497 0,-0.37104 0.210841,-0.58602 0.21084,-0.216 0.581877,-0.216 0.370004,0 0.581878,0.216 0.211873,0.21498 0.211873,0.58602 z m -0.526067,0.38964 q 0.05788,-0.0703 0.08578,-0.16537 0.02791,-0.0961 0.02791,-0.22531 0,-0.13849 -0.03204,-0.23564 -0.03204,-0.0971 -0.08372,-0.1571 -0.05271,-0.062 -0.121956,-0.0899 -0.06821,-0.0279 -0.142627,-0.0279 -0.07545,0 -0.142628,0.0269 -0.06615,0.0269 -0.121956,0.0889 -0.05168,0.0579 -0.08475,0.1602 -0.03204,0.10129 -0.03204,0.23565 0,0.13746 0.03101,0.23461 0.03204,0.0961 0.08372,0.15709 0.05168,0.061 0.120923,0.0899 0.06925,0.0289 0.145728,0.0289 0.07648,0 0.145727,-0.0289 0.06925,-0.03 0.120923,-0.092 z"
         style="stroke-width:0.264583"
         id="path2000" />
      <path
         d="m 14.509165,243.60415 q -0.171566,0 -0.317294,-0.0506 -0.144694,-0.0506 -0.24908,-0.15089 -0.104387,-0.10026 -0.162265,-0.25012 -0.05684,-0.14986 -0.05684,-0.34623 0,-0.18293 0.05478,-0.33176 0.05478,-0.14883 0.159164,-0.25529 0.100252,-0.10231 0.248047,-0.15813 0.148828,-0.0558 0.324529,-0.0558 0.09715,0 0.174666,0.0114 0.07855,0.0103 0.144694,0.0279 0.06925,0.0196 0.125058,0.0444 0.05684,0.0238 0.09922,0.0444 v 0.37311 h -0.04548 q -0.02894,-0.0248 -0.07338,-0.0589 -0.04341,-0.0341 -0.09922,-0.0672 -0.05684,-0.0331 -0.12299,-0.0558 -0.06615,-0.0227 -0.141594,-0.0227 -0.08372,0 -0.159164,0.0269 -0.07545,0.0258 -0.139526,0.0868 -0.06098,0.0589 -0.09922,0.15606 -0.03721,0.0971 -0.03721,0.23564 0,0.1447 0.04031,0.24185 0.04134,0.0971 0.103353,0.15296 0.06305,0.0568 0.14056,0.0816 0.07752,0.0238 0.152963,0.0238 0.07235,0 0.142627,-0.0217 0.07131,-0.0217 0.131258,-0.0589 0.05064,-0.03 0.09405,-0.0641 0.04341,-0.0341 0.07131,-0.0589 h 0.04134 v 0.36793 q -0.05788,0.0258 -0.110588,0.0486 -0.05271,0.0227 -0.110588,0.0393 -0.07545,0.0217 -0.141594,0.0331 -0.06615,0.0114 -0.181901,0.0114 z"
         style="stroke-width:0.264583"
         id="path2002" />
      <path
         d="m 16.783965,243.57417 h -0.486792 l -0.459921,-0.61598 -0.09302,0.11265 v 0.50333 h -0.396876 v -1.53892 h 0.396876 v 0.6966 l 0.549838,-0.6966 h 0.459921 l -0.601515,0.7121 z"
         style="stroke-width:0.264583"
         id="path2004" />
    </g>
    <g
       aria-label="EXT CLOCK"
       id="text2009"
       style="font-weight:bold;font-size:2.11667px;line-height:1.25;font-family:sans-serif;-inkscape-font-specification:'sans-serif, Bold';display:inline;stroke-width:0.264583"
       transform="translate(0.19116753,7.2215466)">
      <path
         d="m 8.6580145,268.00308 h -1.113112 v -1.53892 h 1.113112 v 0.29765 H 7.939711 v 0.26562 h 0.666627 v 0.29766 H 7.939711 v 0.38034 h 0.7183035 z"
         style="stroke-width:0.264583"
         id="path2011" />
      <path
         d="M 10.387111,268.00308 H 9.9282232 L 9.59646,267.49665 9.2584956,268.00308 H 8.8202788 l 0.5457039,-0.77515 -0.5343351,-0.76377 h 0.4578539 l 0.3203944,0.47955 0.3296961,-0.47955 h 0.43925 l -0.5374354,0.74827 z"
         style="stroke-width:0.264583"
         id="path2013" />
      <path
         d="m 11.812349,266.76181 h -0.480592 v 1.24127 h -0.396875 v -1.24127 H 10.45429 v -0.29765 h 1.358059 z"
         style="stroke-width:0.264583"
         id="path2015" />
      <path
         d="m 13.470131,268.03305 q -0.171566,0 -0.317294,-0.0506 -0.144694,-0.0506 -0.24908,-0.15089 -0.104387,-0.10026 -0.162265,-0.25012 -0.05684,-0.14986 -0.05684,-0.34623 0,-0.18294 0.05478,-0.33176 0.05478,-0.14883 0.159164,-0.25529 0.100252,-0.10232 0.248047,-0.15813 0.148829,-0.0558 0.324529,-0.0558 0.09715,0 0.174666,0.0114 0.07855,0.0103 0.144695,0.0279 0.06925,0.0196 0.125057,0.0444 0.05684,0.0238 0.09922,0.0444 v 0.37311 h -0.04548 q -0.02894,-0.0248 -0.07338,-0.0589 -0.04341,-0.0341 -0.09922,-0.0672 -0.05684,-0.0331 -0.12299,-0.0558 -0.06615,-0.0227 -0.141594,-0.0227 -0.08372,0 -0.159164,0.0269 -0.07545,0.0258 -0.139526,0.0868 -0.06098,0.0589 -0.09922,0.15607 -0.03721,0.0971 -0.03721,0.23564 0,0.1447 0.04031,0.24185 0.04134,0.0971 0.103353,0.15296 0.06305,0.0568 0.140561,0.0817 0.07751,0.0238 0.152962,0.0238 0.07235,0 0.142627,-0.0217 0.07131,-0.0217 0.131259,-0.0589 0.05064,-0.03 0.09405,-0.0641 0.04341,-0.0341 0.07131,-0.0589 h 0.04134 v 0.36793 q -0.05788,0.0258 -0.110588,0.0486 -0.05271,0.0227 -0.110588,0.0393 -0.07545,0.0217 -0.141593,0.0331 -0.06615,0.0114 -0.181902,0.0114 z"
         style="stroke-width:0.264583"
         id="path2017" />
      <path
         d="m 15.418336,268.00308 h -1.110012 v -1.53892 H 14.7052 v 1.24127 h 0.713136 z"
         style="stroke-width:0.264583"
         id="path2019" />
      <path
         d="m 17.152599,267.23414 q 0,0.36793 -0.21084,0.58497 -0.21084,0.21601 -0.582911,0.21601 -0.371037,0 -0.581877,-0.21601 -0.210841,-0.21704 -0.210841,-0.58497 0,-0.37104 0.210841,-0.58602 0.21084,-0.216 0.581877,-0.216 0.370004,0 0.581878,0.216 0.211873,0.21498 0.211873,0.58602 z m -0.526067,0.38964 q 0.05788,-0.0703 0.08578,-0.16537 0.02791,-0.0961 0.02791,-0.22531 0,-0.13849 -0.03204,-0.23564 -0.03204,-0.0971 -0.08372,-0.1571 -0.05271,-0.062 -0.121956,-0.0899 -0.06821,-0.0279 -0.142627,-0.0279 -0.07545,0 -0.142628,0.0269 -0.06615,0.0269 -0.121956,0.0889 -0.05168,0.0579 -0.08475,0.1602 -0.03204,0.10129 -0.03204,0.23565 0,0.13746 0.03101,0.23461 0.03204,0.0961 0.08372,0.15709 0.05168,0.061 0.120923,0.0899 0.06925,0.0289 0.145728,0.0289 0.07648,0 0.145727,-0.0289 0.06925,-0.03 0.120923,-0.092 z"
         style="stroke-width:0.264583"
         id="path2021" />
      <path
         d="m 18.149956,268.03305 q -0.171566,0 -0.317294,-0.0506 -0.144694,-0.0506 -0.249081,-0.15089 -0.104386,-0.10026 -0.162264,-0.25012 -0.05684,-0.14986 -0.05684,-0.34623 0,-0.18294 0.05478,-0.33176 0.05478,-0.14883 0.159164,-0.25529 0.100252,-0.10232 0.248047,-0.15813 0.148828,-0.0558 0.324529,-0.0558 0.09715,0 0.174666,0.0114 0.07855,0.0103 0.144694,0.0279 0.06925,0.0196 0.125058,0.0444 0.05684,0.0238 0.09922,0.0444 v 0.37311 h -0.04547 q -0.02894,-0.0248 -0.07338,-0.0589 -0.04341,-0.0341 -0.09922,-0.0672 -0.05685,-0.0331 -0.122991,-0.0558 -0.06614,-0.0227 -0.141593,-0.0227 -0.08372,0 -0.159164,0.0269 -0.07545,0.0258 -0.139526,0.0868 -0.06098,0.0589 -0.09922,0.15607 -0.03721,0.0971 -0.03721,0.23564 0,0.1447 0.04031,0.24185 0.04134,0.0971 0.103353,0.15296 0.06305,0.0568 0.14056,0.0817 0.07752,0.0238 0.152963,0.0238 0.07235,0 0.142627,-0.0217 0.07131,-0.0217 0.131258,-0.0589 0.05064,-0.03 0.09405,-0.0641 0.04341,-0.0341 0.07131,-0.0589 h 0.04134 v 0.36793 q -0.05788,0.0258 -0.110587,0.0486 -0.05271,0.0227 -0.110588,0.0393 -0.07545,0.0217 -0.141594,0.0331 -0.06615,0.0114 -0.181901,0.0114 z"
         style="stroke-width:0.264583"
         id="path2023" />
      <path
         d="m 20.424756,268.00308 h -0.486792 l -0.459921,-0.61598 -0.09302,0.11265 v 0.50333 h -0.396876 v -1.53892 h 0.396876 v 0.6966 l 0.549838,-0.6966 h 0.459921 l -0.601515,0.7121 z"
         style="stroke-width:0.264583"
         id="path2025" />
    </g>
    <path
       inkscape:connector-curvature="0"
       id="path36593-0-4-0"
       d="m 40.895147,274.88073 c 0,-0.48493 -0.417594,-0.88235 -0.928698,-0.88235 h -7.14133 c -0.511104,0 -0.929972,0.39742 -0.929972,0.88235 v 10.73529 c 0,0.48493 0.418868,0.88236 0.929972,0.88236 h 7.14133 c 0.511104,0 0.928698,-0.39743 0.928698,-0.88236 z m 0,0"
       style="display:inline;fill:#000000;fill-opacity:1;fill-rule:nonzero;stroke:none;stroke-width:0.319416" />
    <g
       aria-label="GATE"
       id="text1977"
       style="font-weight:bold;font-size:2.11667px;line-height:1.25;font-family:sans-serif;-inkscape-font-specification:'sans-serif, Bold';display:inline;stroke-width:0.264583"
       transform="translate(-20.4429,42.24098)">
      <path
         d="m 55.18195,233.95309 q -0.103353,0.0403 -0.273885,0.0806 -0.170533,0.0393 -0.340032,0.0393 -0.392741,0 -0.61495,-0.21291 -0.222209,-0.21394 -0.222209,-0.59014 0,-0.35864 0.224276,-0.57775 0.224276,-0.22014 0.625286,-0.22014 0.151929,0 0.289388,0.0279 0.13746,0.0269 0.305925,0.10852 v 0.3607 h -0.04444 q -0.02894,-0.0217 -0.08475,-0.061 -0.05581,-0.0403 -0.107487,-0.0682 -0.05994,-0.0331 -0.140561,-0.0568 -0.07958,-0.0238 -0.169498,-0.0238 -0.105421,0 -0.191204,0.031 -0.08578,0.031 -0.153996,0.0951 -0.06511,0.062 -0.103353,0.15813 -0.03721,0.0951 -0.03721,0.22014 0,0.25529 0.135393,0.39068 0.135392,0.13539 0.399976,0.13539 0.02274,0 0.04961,-10e-4 0.02791,-0.001 0.05064,-0.003 v -0.30179 h -0.306958 v -0.29043 h 0.710035 z"
         style="fill:#ffffff;stroke-width:0.264583"
         id="path1979" />
      <path
         d="m 56.958589,234.04094 h -0.410312 l -0.106453,-0.31109 h -0.570509 l -0.106454,0.31109 h -0.399976 l 0.568442,-1.53893 h 0.45682 z m -0.612884,-0.59325 -0.189136,-0.5519 -0.189136,0.5519 z"
         style="fill:#ffffff;stroke-width:0.264583"
         id="path1981" />
      <path
         d="m 58.385894,232.79967 h -0.480592 v 1.24127 h -0.396875 v -1.24127 h -0.480592 v -0.29766 h 1.358059 z"
         style="fill:#ffffff;stroke-width:0.264583"
         id="path1983" />
      <path
         d="m 59.737751,234.04094 h -1.113112 v -1.53893 h 1.113112 v 0.29766 h -0.718303 v 0.26562 h 0.666627 v 0.29765 h -0.666627 v 0.38034 h 0.718303 z"
         style="fill:#ffffff;stroke-width:0.264583"
         id="path1985" />
    </g>
    <path
       inkscape:connector-curvature="0"
       id="path36593-0-4-0-0"
       d="m 40.895147,239.38382 c 0,-0.48493 -0.417594,-0.88235 -0.928698,-0.88235 h -7.14133 c -0.511104,0 -0.929972,0.39742 -0.929972,0.88235 v 10.73529 c 0,0.48493 0.418868,0.88236 0.929972,0.88236 h 7.14133 c 0.511104,0 0.928698,-0.39743 0.928698,-0.88236 z m 0,0"
       style="display:inline;fill:#000000;fill-opacity:1;fill-rule:nonzero;stroke:none;stroke-width:0.319416" />
    <g
       aria-label="V/OCT"
       id="text1917"
       style="font-size:5.29167px;line-height:1.25;font-family:sans-serif;-inkscape-font-specification:'sans-serif, Normal';display:inline;stroke-width:0.264583"
       transform="translate(-17.372269,2.92066)">
      <path
         d="m 51.44249,236.4742 -0.561207,1.53892 h -0.444418 l -0.561207,-1.53892 h 0.416512 l 0.372071,1.08107 0.372071,-1.08107 z"
         style="font-style:normal;font-variant:normal;font-weight:bold;font-stretch:normal;font-size:2.11667px;font-family:sans-serif;-inkscape-font-specification:'sans-serif, Bold';font-variant-ligatures:normal;font-variant-caps:normal;font-variant-numeric:normal;font-variant-east-asian:normal;fill:#ffffff;stroke-width:0.264583"
         id="path1919" />
      <path
         d="m 52.731302,236.40495 -0.81959,1.94304 h -0.317294 l 0.816489,-1.94304 z"
         style="font-style:normal;font-variant:normal;font-weight:bold;font-stretch:normal;font-size:2.11667px;font-family:sans-serif;-inkscape-font-specification:'sans-serif, Bold';font-variant-ligatures:normal;font-variant-caps:normal;font-variant-numeric:normal;font-variant-east-asian:normal;fill:#ffffff;stroke-width:0.264583"
         id="path1921" />
      <path
         d="m 54.619561,237.24418 q 0,0.36793 -0.21084,0.58497 -0.21084,0.21601 -0.582911,0.21601 -0.371037,0 -0.581877,-0.21601 -0.210841,-0.21704 -0.210841,-0.58497 0,-0.37104 0.210841,-0.58602 0.21084,-0.216 0.581877,-0.216 0.370004,0 0.581878,0.216 0.211873,0.21498 0.211873,0.58602 z m -0.526067,0.38964 q 0.05788,-0.0703 0.08578,-0.16537 0.02791,-0.0961 0.02791,-0.22531 0,-0.13849 -0.03204,-0.23564 -0.03204,-0.0971 -0.08372,-0.1571 -0.05271,-0.062 -0.121956,-0.0899 -0.06821,-0.0279 -0.142627,-0.0279 -0.07545,0 -0.142628,0.0269 -0.06614,0.0269 -0.121956,0.0889 -0.05168,0.0579 -0.08475,0.1602 -0.03204,0.10129 -0.03204,0.23565 0,0.13746 0.03101,0.23461 0.03204,0.0961 0.08372,0.15709 0.05168,0.061 0.120923,0.0899 0.06925,0.0289 0.145728,0.0289 0.07648,0 0.145727,-0.0289 0.06925,-0.03 0.120923,-0.092 z"
         style="font-style:normal;font-variant:normal;font-weight:bold;font-stretch:normal;font-size:2.11667px;font-family:sans-serif;-inkscape-font-specification:'sans-serif, Bold';font-variant-ligatures:normal;font-variant-caps:normal;font-variant-numeric:normal;font-variant-east-asian:normal;fill:#ffffff;stroke-width:0.264583"
         id="path1923" />
      <path
         d="m 55.616918,238.04309 q -0.171566,0 -0.317294,-0.0506 -0.144694,-0.0506 -0.249081,-0.15089 -0.104386,-0.10026 -0.162264,-0.25012 -0.05684,-0.14986 -0.05684,-0.34623 0,-0.18294 0.05478,-0.33176 0.05478,-0.14883 0.159164,-0.25529 0.100252,-0.10232 0.248047,-0.15813 0.148828,-0.0558 0.324528,-0.0558 0.09715,0 0.174667,0.0114 0.07855,0.0103 0.144694,0.0279 0.06925,0.0196 0.125057,0.0444 0.05685,0.0238 0.09922,0.0444 v 0.37311 h -0.04548 q -0.02894,-0.0248 -0.07338,-0.0589 -0.04341,-0.0341 -0.09922,-0.0672 -0.05684,-0.0331 -0.12299,-0.0558 -0.06615,-0.0227 -0.141593,-0.0227 -0.08372,0 -0.159164,0.0269 -0.07545,0.0258 -0.139527,0.0868 -0.06098,0.0589 -0.09922,0.15606 -0.03721,0.0971 -0.03721,0.23564 0,0.1447 0.04031,0.24185 0.04134,0.0971 0.103353,0.15296 0.06305,0.0568 0.14056,0.0816 0.07752,0.0238 0.152963,0.0238 0.07235,0 0.142627,-0.0217 0.07131,-0.0217 0.131258,-0.0589 0.05064,-0.03 0.09405,-0.0641 0.04341,-0.0341 0.07131,-0.0589 h 0.04134 v 0.36793 q -0.05788,0.0258 -0.110587,0.0486 -0.05271,0.0227 -0.110588,0.0393 -0.07545,0.0217 -0.141594,0.0331 -0.06615,0.0114 -0.181901,0.0114 z"
         style="font-style:normal;font-variant:normal;font-weight:bold;font-stretch:normal;font-size:2.11667px;font-family:sans-serif;-inkscape-font-specification:'sans-serif, Bold';font-variant-ligatures:normal;font-variant-caps:normal;font-variant-numeric:normal;font-variant-east-asian:normal;fill:#ffffff;stroke-width:0.264583"
         id="path1925" />
      <path
         d="m 57.659174,236.77185 h -0.480592 v 1.24127 h -0.396875 v -1.24127 h -0.480592 v -0.29765 h 1.358059 z"
         style="font-style:normal;font-variant:normal;font-weight:bold;font-stretch:normal;font-size:2.11667px;font-family:sans-serif;-inkscape-font-specification:'sans-serif, Bold';font-variant-ligatures:normal;font-variant-caps:normal;font-variant-numeric:normal;font-variant-east-asian:normal;fill:#ffffff;stroke-width:0.264583"
         id="path1927" />
    </g>
    <g
       aria-label="None"
       id="text866"
       style="font-size:5.29167px;line-height:1.25;font-family:sans-serif;-inkscape-font-specification:'sans-serif, Normal';display:inline;opacity:1;stroke-width:0.264583"
       transform="translate(-1.5875,172.25697)">
      <path
         d="m 19.422689,43.892582 h -0.211013 l -0.608059,-1.147218 v 1.147218 h -0.159336 v -1.282438 h 0.264411 l 0.554661,1.04731 v -1.04731 h 0.159336 z"
         style="font-style:normal;font-variant:normal;font-weight:normal;font-stretch:normal;font-size:1.76389px;font-family:sans-serif;-inkscape-font-specification:'sans-serif, Normal';font-variant-ligatures:normal;font-variant-caps:normal;font-variant-numeric:normal;font-variant-east-asian:normal;stroke-width:0.264583"
         id="path896" />
      <path
         d="m 20.570768,43.411991 q 0,0.235128 -0.120579,0.371209 -0.120578,0.136081 -0.322978,0.136081 -0.204122,0 -0.3247,-0.136081 -0.119717,-0.136081 -0.119717,-0.371209 0,-0.235128 0.119717,-0.371209 0.120578,-0.136943 0.3247,-0.136943 0.2024,0 0.322978,0.136943 0.120579,0.136081 0.120579,0.371209 z m -0.167088,0 q 0,-0.186897 -0.07321,-0.277331 -0.07321,-0.09129 -0.203261,-0.09129 -0.131775,0 -0.204983,0.09129 -0.07235,0.09043 -0.07235,0.277331 0,0.180867 0.07321,0.274746 0.07321,0.09302 0.204122,0.09302 0.129191,0 0.2024,-0.09216 0.07407,-0.09302 0.07407,-0.275608 z"
         style="font-style:normal;font-variant:normal;font-weight:normal;font-stretch:normal;font-size:1.76389px;font-family:sans-serif;-inkscape-font-specification:'sans-serif, Normal';font-variant-ligatures:normal;font-variant-caps:normal;font-variant-numeric:normal;font-variant-east-asian:normal;stroke-width:0.264583"
         id="path898" />
      <path
         d="m 21.62669,43.892582 h -0.16192 v -0.547771 q 0,-0.06632 -0.0078,-0.124023 -0.0078,-0.05857 -0.02842,-0.0913 -0.02153,-0.03617 -0.06201,-0.0534 -0.04048,-0.01809 -0.105075,-0.01809 -0.06632,0 -0.138666,0.03273 -0.07235,0.03273 -0.138665,0.08354 v 0.718303 H 20.82226 v -0.962044 h 0.161919 v 0.106798 q 0.07579,-0.06287 0.156752,-0.09819 0.08096,-0.03531 0.166226,-0.03531 0.155891,0 0.237712,0.09388 0.08182,0.09388 0.08182,0.27044 z"
         style="font-style:normal;font-variant:normal;font-weight:normal;font-stretch:normal;font-size:1.76389px;font-family:sans-serif;-inkscape-font-specification:'sans-serif, Normal';font-variant-ligatures:normal;font-variant-caps:normal;font-variant-numeric:normal;font-variant-east-asian:normal;stroke-width:0.264583"
         id="path900" />
      <path
         d="m 22.743763,43.428355 h -0.708829 q 0,0.08871 0.0267,0.155029 0.0267,0.06546 0.07321,0.10766 0.04479,0.04134 0.105937,0.06201 0.06201,0.02067 0.136081,0.02067 0.09819,0 0.197232,-0.03876 0.09991,-0.03962 0.14211,-0.07751 h 0.0086 v 0.176561 q -0.08182,0.03445 -0.167087,0.05771 -0.08527,0.02325 -0.179145,0.02325 -0.239435,0 -0.373793,-0.129191 -0.134359,-0.130053 -0.134359,-0.368626 0,-0.235989 0.12833,-0.374654 0.129191,-0.138665 0.339342,-0.138665 0.194648,0 0.299723,0.113688 0.105937,0.113688 0.105937,0.322978 z M 22.58615,43.304332 q -8.61e-4,-0.127469 -0.0646,-0.197232 -0.06287,-0.06976 -0.192064,-0.06976 -0.130052,0 -0.207567,0.07665 -0.07665,0.07665 -0.08699,0.190342 z"
         style="font-style:normal;font-variant:normal;font-weight:normal;font-stretch:normal;font-size:1.76389px;font-family:sans-serif;-inkscape-font-specification:'sans-serif, Normal';font-variant-ligatures:normal;font-variant-caps:normal;font-variant-numeric:normal;font-variant-east-asian:normal;stroke-width:0.264583"
         id="path902" />
    </g>
    <g
       aria-label="A"
       id="text870"
       style="font-size:1.76389px;line-height:1.25;font-family:sans-serif;-inkscape-font-specification:'sans-serif, Normal';display:inline;opacity:1;stroke-width:0.264583"
       transform="translate(0,171.01114)">
      <path
         d="M 19.654026,40.846786 H 19.472297 L 19.346551,40.489358 H 18.79189 l -0.125746,0.357428 h -0.173116 l 0.46681,-1.282437 h 0.227377 z m -0.360013,-0.503845 -0.224793,-0.629592 -0.225654,0.629592 z"
         style="stroke-width:0.264583"
         id="path905" />
    </g>
    <g
       aria-label="G"
       id="text874"
       style="font-size:1.76389px;line-height:1.25;font-family:sans-serif;-inkscape-font-specification:'sans-serif, Normal';display:inline;opacity:1;stroke-width:0.264583"
       transform="translate(-1.5875,173.26251)">
      <path
         d="m 31.827737,42.804796 q -0.105076,0.04823 -0.22996,0.0844 -0.124024,0.03531 -0.240296,0.03531 -0.149862,0 -0.274746,-0.04134 -0.124885,-0.04134 -0.212735,-0.124024 -0.08871,-0.08354 -0.136943,-0.208428 -0.04823,-0.125746 -0.04823,-0.293695 0,-0.307475 0.179145,-0.484897 0.180006,-0.178284 0.49351,-0.178284 0.109382,0 0.22307,0.0267 0.11455,0.02584 0.246325,0.08871 v 0.202399 h -0.0155 q -0.0267,-0.02067 -0.07751,-0.05426 -0.05082,-0.03359 -0.09991,-0.05598 -0.05943,-0.0267 -0.13522,-0.04393 -0.07493,-0.01809 -0.170532,-0.01809 -0.215319,0 -0.341065,0.138666 -0.124885,0.137804 -0.124885,0.373793 0,0.248908 0.130914,0.387573 0.130914,0.137804 0.356568,0.137804 0.08268,0 0.164503,-0.01636 0.08268,-0.01636 0.144694,-0.0422 v -0.314366 h -0.343648 v -0.149861 h 0.512458 z"
         style="stroke-width:0.264583"
         id="path923" />
    </g>
    <g
       aria-label="B"
       id="text878"
       style="font-size:1.76389px;line-height:1.25;font-family:sans-serif;-inkscape-font-specification:'sans-serif, Normal';display:inline;opacity:1;stroke-width:0.264583"
       transform="translate(0,171.14583)">
      <path
         d="m 21.000361,36.348193 q 0,0.0956 -0.03617,0.16881 -0.03617,0.07321 -0.09732,0.120578 -0.07235,0.05684 -0.159336,0.08096 -0.08613,0.02412 -0.219625,0.02412 h -0.45476 v -1.282438 h 0.379822 q 0.140388,0 0.210151,0.01033 0.06976,0.01034 0.133498,0.04306 0.07062,0.03703 0.102491,0.0956 0.03187,0.0577 0.03187,0.138665 0,0.0913 -0.04651,0.15589 -0.04651,0.06373 -0.124024,0.102492 v 0.0069 q 0.130052,0.0267 0.204983,0.11455 0.07493,0.08699 0.07493,0.220486 z m -0.286804,-0.577915 q 0,-0.04651 -0.0155,-0.07838 -0.0155,-0.03187 -0.04995,-0.05168 -0.04048,-0.02325 -0.09819,-0.02842 -0.05771,-0.006 -0.142972,-0.006 h -0.203261 v 0.370348 h 0.220487 q 0.0801,0 0.127468,-0.0078 0.04737,-0.0086 0.08785,-0.03445 0.04048,-0.02584 0.05684,-0.06632 0.01723,-0.04134 0.01723,-0.09732 z m 0.109382,0.584805 q 0,-0.07751 -0.02326,-0.123162 -0.02325,-0.04565 -0.08441,-0.07751 -0.04134,-0.02153 -0.100769,-0.02756 -0.05857,-0.0069 -0.142971,-0.0069 h -0.267857 v 0.477146 h 0.225654 q 0.111966,0 0.183452,-0.0112 0.07149,-0.01206 0.117133,-0.04306 0.04823,-0.03359 0.07062,-0.07665 0.02239,-0.04306 0.02239,-0.111105 z"
         style="stroke-width:0.264583"
         id="path908" />
    </g>
    <g
       aria-label="C"
       id="text882"
       style="font-size:1.76389px;line-height:1.25;font-family:sans-serif;-inkscape-font-specification:'sans-serif, Normal';display:inline;opacity:1;stroke-width:0.264583"
       transform="translate(0.52916664,170.74861)">
      <path
         d="m 23.605532,34.332992 q -0.04737,0.02067 -0.08613,0.03876 -0.0379,0.01809 -0.09991,0.0379 -0.05254,0.01636 -0.114549,0.02756 -0.06115,0.01206 -0.13522,0.01206 -0.139527,0 -0.254076,-0.03876 -0.113689,-0.03962 -0.198093,-0.123162 -0.08268,-0.08182 -0.129192,-0.207567 -0.04651,-0.126608 -0.04651,-0.293695 0,-0.158474 0.04479,-0.283359 0.04479,-0.124885 0.129191,-0.211012 0.08182,-0.08354 0.197232,-0.127469 0.116272,-0.04393 0.257521,-0.04393 0.103353,0 0.205844,0.02498 0.103353,0.02498 0.229099,0.08785 v 0.2024 h -0.01292 q -0.105936,-0.08871 -0.210151,-0.129192 -0.104214,-0.04048 -0.22307,-0.04048 -0.09732,0 -0.1757,0.03187 -0.07751,0.03101 -0.138665,0.09732 -0.05943,0.06459 -0.09302,0.163642 -0.03273,0.09819 -0.03273,0.227376 0,0.13522 0.03617,0.232544 0.03703,0.09732 0.09474,0.158475 0.06029,0.06373 0.140388,0.09474 0.08096,0.03014 0.170532,0.03014 0.123162,0 0.230821,-0.0422 0.10766,-0.0422 0.201539,-0.126607 h 0.01206 z"
         style="stroke-width:0.264583"
         id="path911" />
    </g>
    <g
       aria-label="D"
       id="text886"
       style="font-size:1.76389px;line-height:1.25;font-family:sans-serif;-inkscape-font-specification:'sans-serif, Normal';display:inline;opacity:1;stroke-width:0.264583"
       transform="translate(0.52916664,170.08749)">
      <path
         d="m 27.60407,34.447201 q 0,0.174838 -0.07665,0.316949 -0.07579,0.14211 -0.202399,0.220486 -0.08785,0.05426 -0.196371,0.07838 -0.107659,0.02412 -0.28422,0.02412 H 26.52059 V 33.80469 h 0.320394 q 0.187758,0 0.298001,0.02756 0.111105,0.0267 0.187758,0.07407 0.130914,0.08182 0.204122,0.217903 0.07321,0.136081 0.07321,0.322978 z m -0.178284,-0.0026 q 0,-0.150723 -0.05254,-0.254076 -0.05254,-0.103353 -0.156752,-0.162781 -0.07579,-0.04306 -0.161058,-0.05943 -0.08527,-0.01722 -0.204122,-0.01722 h -0.160197 v 0.989604 h 0.160197 q 0.123162,0 0.214457,-0.01809 0.09216,-0.01809 0.16881,-0.06718 0.0956,-0.06115 0.142971,-0.161058 0.04823,-0.09991 0.04823,-0.24977 z"
         style="stroke-width:0.264583"
         id="path914" />
    </g>
    <g
       aria-label="E"
       id="text890"
       style="font-size:1.76389px;line-height:1.25;font-family:sans-serif;-inkscape-font-specification:'sans-serif, Normal';display:inline;opacity:1;stroke-width:0.264583"
       transform="translate(1.0583333,171.47776)">
      <path
         d="m 29.815465,36.410728 h -0.84491 v -1.282437 h 0.84491 v 0.151584 h -0.674378 v 0.3514 h 0.674378 v 0.151584 h -0.674378 v 0.476285 h 0.674378 z"
         style="stroke-width:0.264583"
         id="path917" />
    </g>
    <g
       aria-label="F"
       id="text894"
       style="font-size:1.76389px;line-height:1.25;font-family:sans-serif;-inkscape-font-specification:'sans-serif, Normal';display:inline;opacity:1;stroke-width:0.264583"
       transform="translate(-0.52916664,171.675)">
      <path
         d="m 32.304884,39.052077 h -0.64854 v 0.361735 h 0.557244 v 0.151584 h -0.557244 v 0.617534 h -0.170532 v -1.282438 h 0.819072 z"
         style="stroke-width:0.264583"
         id="path920" />
    </g>
    <g
       id="use3043"
       transform="matrix(0.07000434,0,0,0.07000434,4.9976963,213.63385)"
       style="display:inline">
      <title
         id="title3298">Flat</title>
      <path
         sodipodi:nodetypes="ccsscsssccccs"
         inkscape:connector-curvature="0"
         d="M 2.0953,38.71643 V 28.19384 c 0.2105,-1.00754 1.769,-2.84398 2.851,-2.91407 2.4343,-0.15691 3.6493,2.88268 2.5364,5.99006 -0.8693,2.42708 -3.5106,5.58538 -5.3874,7.4466 z m 7.772,-4.84453 c 0.9701,-0.92719 3.0031,-3.44061 2.6375,-6.55128 -0.3761,-3.19969 -3.1534,-4.55195 -4.8871,-4.55195 -1.6603,0 -3.3634,0.79983 -5.5224,2.40315 V 0 L 0,0.23079 v 42.5688 c 4.1779,-3.83027 6.2686,-5.4861 9.8673,-8.92586 z"
         id="path3300" />
    </g>
    <g
       id="use3047"
       transform="matrix(0.06362017,0,0,0.07000434,5.0870371,207.91076)"
       style="display:inline">
      <title
         id="title3333">Natural</title>
      <path
         sodipodi:nodetypes="cccccccccccccc"
         inkscape:connector-curvature="0"
         d="m 2.048,28.05156 6.903,-1.82863 v -10.159 L 2.048,17.89255 Z M 8.951,31.02458 0,33.39588 V 0.22557 L 2.048,0 v 13.08909 l 8.9509,-2.37129 v 32.67748 l -2.0479,0.2254 z"
         id="path3335" />
    </g>
    <g
       id="use3045"
       transform="matrix(0.07000434,0,0,0.07000434,4.9267808,201.66203)"
       style="display:inline">
      <title
         id="title3368">Sharp</title>
      <path
         inkscape:connector-curvature="0"
         d="M 11.5371,0 9.3619,0.2396 V 13.679 L 5.195,14.78403 V 1.90413 L 3.0199,2.14373 V 15.36065 L 0,16.16076 v 5.56007 L 3.0199,20.92072 V 32.79526 L 0,33.59537 v 5.55771 l 3.0199,-0.8002 v 12.4484 l 2.1751,-0.2397 v -12.7878 l 4.1669,-1.1049 v 12.2278 l 2.1752,-0.2397 v -12.5649 l 3.0372,-0.8049 v -5.55766 l -3.0372,0.80493 V 18.65991 l 3.0372,-0.80493 v -5.55766 l -3.0372,0.80493 z M 9.3619,19.23704 V 31.1093 L 5.195,32.2142 V 20.33966 Z"
         sodipodi:nodetypes="cccccccccccccccccccccccccccccccccc"
         id="path3370" />
    </g>
    <path
       inkscape:connector-curvature="0"
       id="path36593-0-4"
       d="m 40.895147,257.13227 c 0,-0.48493 -0.417594,-0.88235 -0.928698,-0.88235 h -7.14133 c -0.511104,0 -0.929972,0.39742 -0.929972,0.88235 v 10.73529 c 0,0.48493 0.418868,0.88236 0.929972,0.88236 h 7.14133 c 0.511104,0 0.928698,-0.39743 0.928698,-0.88236 z m 0,0"
       style="display:inline;fill:#000000;fill-opacity:1;fill-rule:nonzero;stroke:none;stroke-width:0.319416" />
    <g
       aria-label="VEL"
       id="text1990"
       style="font-weight:bold;font-size:2.11667px;line-height:1.25;font-family:sans-serif;-inkscape-font-specification:'sans-serif, Bold';display:inline;fill:#ffffff;stroke-width:0.264583"
       transform="translate(-22.592356,12.31087)">
      <path
         d="m 58.381855,244.68471 -0.561207,1.53892 H 57.37623 l -0.561207,-1.53892 h 0.416513 l 0.372071,1.08107 0.372071,-1.08107 z"
         style="fill:#ffffff;stroke-width:0.264583"
         id="path2222" />
      <path
         d="M 59.716142,246.22363 H 58.60303 v -1.53892 h 1.113112 v 0.29765 h -0.718303 v 0.26562 h 0.666627 v 0.29766 h -0.666627 v 0.38034 h 0.718303 z"
         style="fill:#ffffff;stroke-width:0.264583"
         id="path2224" />
      <path
         d="m 61.159984,246.22363 h -1.110011 v -1.53892 h 0.396875 v 1.24127 h 0.713136 z"
         style="fill:#ffffff;stroke-width:0.264583"
         id="path2226" />
    </g>
    <g
       aria-label="VELOCITY"
       id="text905"
       style="font-weight:bold;font-size:2.11667px;line-height:1.25;font-family:sans-serif;-inkscape-font-specification:'sans-serif, Bold';display:inline;opacity:1;stroke-width:0.264583"
       transform="translate(0.33692643,163.73745)">
      <path
         d="M 9.4713715,72.871405 8.9101646,74.410332 H 8.4657466 L 7.9045397,72.871405 h 0.4165127 l 0.3720709,1.081073 0.3720709,-1.081073 z"
         style="stroke-width:0.264583"
         id="path954" />
      <path
         d="M 10.805659,74.410332 H 9.692547 v -1.538927 h 1.113112 v 0.297657 h -0.718303 v 0.265617 h 0.666627 v 0.297657 h -0.666627 v 0.380339 h 0.718303 z"
         style="stroke-width:0.264583"
         id="path956" />
      <path
         d="m 12.249501,74.410332 h -1.110012 v -1.538927 h 0.396876 v 1.24127 h 0.713136 z"
         style="stroke-width:0.264583"
         id="path958" />
      <path
         d="m 13.983765,73.641385 q 0,0.367937 -0.210841,0.584978 -0.21084,0.216008 -0.582911,0.216008 -0.371037,0 -0.581877,-0.216008 -0.21084,-0.217041 -0.21084,-0.584978 0,-0.371037 0.21084,-0.586011 0.21084,-0.216008 0.581877,-0.216008 0.370004,0 0.581878,0.216008 0.211874,0.214974 0.211874,0.586011 z m -0.526067,0.389641 q 0.05788,-0.07028 0.08578,-0.165365 0.02791,-0.09612 0.02791,-0.225309 0,-0.138493 -0.03204,-0.235645 -0.03204,-0.09715 -0.08372,-0.157097 -0.05271,-0.06201 -0.121957,-0.08992 -0.06821,-0.0279 -0.142627,-0.0279 -0.07545,0 -0.142627,0.02687 -0.06615,0.02687 -0.121957,0.08888 -0.05168,0.05788 -0.08475,0.160197 -0.03204,0.101286 -0.03204,0.235645 0,0.13746 0.03101,0.234612 0.03204,0.09612 0.08372,0.157096 0.05168,0.06098 0.120923,0.08992 0.06925,0.02894 0.145728,0.02894 0.07648,0 0.145728,-0.02894 0.06925,-0.02997 0.120923,-0.09198 z"
         style="stroke-width:0.264583"
         id="path960" />
      <path
         d="m 14.981121,74.440304 q -0.171566,0 -0.317293,-0.05064 -0.144695,-0.05064 -0.249081,-0.150895 -0.104387,-0.100253 -0.162264,-0.250115 -0.05684,-0.149861 -0.05684,-0.346232 0,-0.182935 0.05478,-0.331763 0.05478,-0.148829 0.159164,-0.255282 0.100253,-0.10232 0.248047,-0.158131 0.148829,-0.05581 0.324529,-0.05581 0.09715,0 0.174666,0.01137 0.07855,0.01033 0.144695,0.02791 0.06925,0.01964 0.125057,0.04444 0.05684,0.02377 0.09922,0.04444 V 73.3427 h -0.04548 q -0.02894,-0.02481 -0.07338,-0.05891 -0.04341,-0.03411 -0.09922,-0.06718 -0.05684,-0.03307 -0.12299,-0.05581 -0.06615,-0.02274 -0.141594,-0.02274 -0.08372,0 -0.159163,0.02687 -0.07545,0.02584 -0.139527,0.08682 -0.06098,0.05891 -0.09922,0.156063 -0.03721,0.09715 -0.03721,0.235645 0,0.144695 0.04031,0.241846 0.04134,0.09715 0.103353,0.152963 0.06305,0.05684 0.14056,0.08165 0.07752,0.02377 0.152962,0.02377 0.07235,0 0.142627,-0.0217 0.07131,-0.0217 0.131259,-0.05891 0.05064,-0.02997 0.09405,-0.06408 0.04341,-0.03411 0.07131,-0.05891 h 0.04134 v 0.367937 q -0.05788,0.02584 -0.110588,0.04858 -0.05271,0.02274 -0.110588,0.03927 -0.07545,0.0217 -0.141593,0.03307 -0.06615,0.01137 -0.181902,0.01137 z"
         style="stroke-width:0.264583"
         id="path962" />
      <path
         d="M 16.651306,74.410332 H 15.750068 V 74.13748 h 0.252181 v -0.993223 h -0.252181 v -0.272852 h 0.901238 v 0.272852 h -0.252181 v 0.993223 h 0.252181 z"
         style="stroke-width:0.264583"
         id="path964" />
      <path
         d="m 18.180931,73.169062 h -0.480592 v 1.24127 h -0.396875 v -1.24127 h -0.480592 v -0.297657 h 1.358059 z"
         style="stroke-width:0.264583"
         id="path966" />
      <path
         d="m 19.773601,72.871405 -0.567408,0.943613 v 0.595314 h -0.396876 v -0.57671 l -0.57671,-0.962217 h 0.45062 l 0.332796,0.595314 0.321428,-0.595314 z"
         style="stroke-width:0.264583"
         id="path968" />
    </g>
    <g
       aria-label="QUANTIZER"
       id="text909"
       style="font-weight:bold;font-size:2.11667px;line-height:1.25;font-family:sans-serif;-inkscape-font-specification:'sans-serif, Bold';display:inline;opacity:1;stroke-width:0.264583"
       transform="translate(0,163.73745)">
      <path
         d="m 7.8792184,76.017118 q 0.057878,-0.07028 0.085783,-0.165365 0.027905,-0.09612 0.027905,-0.22531 0,-0.138493 -0.032039,-0.235645 -0.03204,-0.09715 -0.083716,-0.157096 -0.05271,-0.06201 -0.1219565,-0.08992 -0.068213,-0.02791 -0.1426272,-0.02791 -0.075448,0 -0.1426272,0.02687 -0.066146,0.02687 -0.1219565,0.08888 -0.051677,0.05788 -0.08475,0.160197 -0.032039,0.101286 -0.032039,0.235645 0,0.137459 0.031006,0.234611 0.03204,0.09612 0.083716,0.157097 0.051676,0.06098 0.120923,0.08992 0.069247,0.02894 0.1457278,0.02894 0.076481,0 0.1457278,-0.02894 0.069247,-0.02997 0.120923,-0.09198 z m 0.042375,0.360702 q 0.00413,0.102319 0.055811,0.146761 0.051677,0.04444 0.1767336,0.04444 0.042375,0 0.1002525,-0.01447 0.057878,-0.01447 0.080615,-0.02584 h 0.039274 v 0.272852 q -0.057878,0.01344 -0.1260907,0.02377 -0.067179,0.01034 -0.2067061,0.01034 -0.1229901,0 -0.2149743,-0.03101 -0.090951,-0.02997 -0.1519289,-0.08578 -0.059945,-0.05478 -0.089917,-0.129192 -0.029972,-0.07441 -0.03514,-0.165364 -0.345199,-0.01964 -0.5384692,-0.230478 -0.1922366,-0.211873 -0.1922366,-0.566374 0,-0.371037 0.2108401,-0.586012 0.2108402,-0.216008 0.5818776,-0.216008 0.3700038,0 0.5818775,0.216008 0.2118737,0.214975 0.2118737,0.586012 0,0.273885 -0.1240237,0.473357 -0.1240236,0.198437 -0.3596685,0.276986 z"
         style="stroke-width:0.264583"
         id="path935" />
      <path
         d="m 10.0548,75.839351 q 0,0.285254 -0.1736336,0.437183 -0.1736331,0.151929 -0.5115974,0.151929 -0.3379644,0 -0.5115975,-0.151929 Q 8.685372,76.124605 8.685372,75.840384 v -0.982887 h 0.3989426 v 0.960149 q 0,0.160198 0.067179,0.238746 0.067179,0.07855 0.2180749,0.07855 0.1488283,0 0.2170413,-0.07545 0.069247,-0.07545 0.069247,-0.241846 V 74.857497 H 10.0548 Z"
         style="stroke-width:0.264583"
         id="path937" />
      <path
         d="m 11.849008,76.396423 h -0.410311 l -0.106454,-0.311092 h -0.570509 l -0.106453,0.311092 h -0.399977 l 0.568442,-1.538926 h 0.45682 z m -0.612883,-0.593246 -0.189136,-0.551905 -0.189136,0.551905 z"
         style="stroke-width:0.264583"
         id="path939" />
      <path
         d="m 13.47165,76.396423 h -0.382406 l -0.653191,-1.056268 v 1.056268 h -0.363802 v -1.538926 h 0.47439 l 0.561207,0.881601 v -0.881601 h 0.363802 z"
         style="stroke-width:0.264583"
         id="path941" />
      <path
         d="M 15.070522,75.155154 H 14.58993 v 1.241269 h -0.396875 v -1.241269 h -0.480592 v -0.297657 h 1.358059 z"
         style="stroke-width:0.264583"
         id="path943" />
      <path
         d="m 16.141259,76.396423 h -0.901238 v -0.272852 h 0.252181 v -0.993222 h -0.252181 v -0.272852 h 0.901238 v 0.272852 h -0.252181 v 0.993222 h 0.252181 z"
         style="stroke-width:0.264583"
         id="path945" />
      <path
         d="m 17.656414,76.396423 h -1.292946 v -0.288355 l 0.766879,-0.952914 h -0.729672 v -0.297657 h 1.214398 v 0.293522 l -0.765846,0.947748 h 0.807187 z"
         style="stroke-width:0.264583"
         id="path947" />
      <path
         d="M 19.043412,76.396423 H 17.9303 v -1.538926 h 1.113112 v 0.297657 h -0.718304 v 0.265617 h 0.666627 v 0.297657 h -0.666627 v 0.380339 h 0.718304 z"
         style="stroke-width:0.264583"
         id="path949" />
      <path
         d="m 20.24024,75.328787 q 0,-0.05788 -0.02377,-0.09922 -0.02377,-0.04134 -0.08165,-0.06511 -0.04031,-0.01654 -0.09405,-0.01964 -0.05374,-0.0041 -0.125058,-0.0041 h -0.14366 v 0.414446 h 0.121956 q 0.09509,0 0.159164,-0.0093 0.06408,-0.0093 0.107487,-0.04238 0.04134,-0.03204 0.05994,-0.07028 0.01964,-0.03927 0.01964,-0.104386 z m 0.619085,1.067636 h -0.484726 l -0.419613,-0.564307 h -0.182935 v 0.564307 h -0.394809 v -1.538926 h 0.665594 q 0.136426,0 0.234611,0.0155 0.09819,0.0155 0.183968,0.06718 0.08682,0.05168 0.13746,0.134359 0.05168,0.08165 0.05168,0.205673 0,0.170532 -0.07958,0.278019 -0.07855,0.107487 -0.22531,0.178801 z"
         style="stroke-width:0.264583"
         id="path951" />
    </g>
    <g
       aria-label="OFFSET"
       id="text1026"
       style="font-weight:bold;font-size:2.11667px;line-height:1.25;font-family:sans-serif;-inkscape-font-specification:'sans-serif, Bold';stroke-width:0.264583"
       transform="translate(-0.09726337,167.44164)">
      <path
         d="m 11.461024,52.788476 q 0,0.367937 -0.21084,0.584978 -0.21084,0.216008 -0.582911,0.216008 -0.371037,0 -0.581878,-0.216008 -0.2108397,-0.217041 -0.2108397,-0.584978 0,-0.371037 0.2108397,-0.586011 0.210841,-0.216008 0.581878,-0.216008 0.370004,0 0.581877,0.216008 0.211874,0.214974 0.211874,0.586011 z m -0.526067,0.389641 q 0.05788,-0.07028 0.08578,-0.165365 0.02791,-0.09612 0.02791,-0.225309 0,-0.138493 -0.03204,-0.235645 -0.03204,-0.09715 -0.08372,-0.157097 -0.05271,-0.06201 -0.121956,-0.08992 -0.06821,-0.0279 -0.142627,-0.0279 -0.07545,0 -0.142628,0.02687 -0.06615,0.02687 -0.121956,0.08888 -0.05168,0.05788 -0.08475,0.160197 -0.03204,0.101286 -0.03204,0.235645 0,0.13746 0.03101,0.234612 0.03204,0.09612 0.08372,0.157096 0.05168,0.06098 0.120923,0.08992 0.06925,0.02894 0.145728,0.02894 0.07648,0 0.145727,-0.02894 0.06925,-0.02997 0.120923,-0.09198 z"
         style="stroke-width:0.264583"
         id="path1077" />
      <path
         d="m 12.865592,52.316153 h -0.707968 v 0.286288 h 0.656291 v 0.297656 h -0.656291 v 0.657326 h -0.394809 v -1.538927 h 1.102777 z"
         style="stroke-width:0.264583"
         id="path1079" />
      <path
         d="m 14.242254,52.316153 h -0.707968 v 0.286288 h 0.656292 v 0.297656 h -0.656292 v 0.657326 h -0.394809 v -1.538927 h 1.102777 z"
         style="stroke-width:0.264583"
         id="path1081" />
      <path
         d="m 15.748108,53.07373 q 0,0.227377 -0.19327,0.370004 -0.192237,0.141594 -0.522967,0.141594 -0.191203,0 -0.33383,-0.03307 -0.141594,-0.03411 -0.265617,-0.08578 v -0.36897 h 0.04341 q 0.12299,0.09819 0.274919,0.150895 0.152962,0.05271 0.293523,0.05271 0.03617,0 0.09508,-0.0062 0.05891,-0.0062 0.09612,-0.02067 0.04547,-0.0186 0.07441,-0.04651 0.02997,-0.0279 0.02997,-0.08268 0,-0.05064 -0.04341,-0.08682 -0.04237,-0.03721 -0.125057,-0.05685 -0.08682,-0.02067 -0.183969,-0.03824 -0.09612,-0.0186 -0.180867,-0.04651 -0.194304,-0.06305 -0.280087,-0.170533 -0.08475,-0.10852 -0.08475,-0.268717 0,-0.214975 0.192237,-0.350367 0.19327,-0.136426 0.496095,-0.136426 0.151929,0 0.299723,0.02997 0.148829,0.02894 0.257349,0.07338 v 0.354501 h -0.04237 q -0.09302,-0.07441 -0.228411,-0.124024 -0.134358,-0.05064 -0.274919,-0.05064 -0.04961,0 -0.09922,0.0072 -0.04858,0.0062 -0.09405,0.02481 -0.04031,0.0155 -0.06925,0.04754 -0.02894,0.03101 -0.02894,0.07131 0,0.06098 0.04651,0.09405 0.04651,0.03204 0.1757,0.05891 0.08475,0.01757 0.162264,0.03411 0.07855,0.01654 0.168466,0.04548 0.176733,0.05788 0.260449,0.15813 0.08475,0.09922 0.08475,0.258382 z"
         style="stroke-width:0.264583"
         id="path1083" />
      <path
         d="M 17.134072,53.557423 H 16.02096 v -1.538927 h 1.113112 v 0.297657 h -0.718304 v 0.265617 h 0.666627 v 0.297657 h -0.666627 v 0.380339 h 0.718304 z"
         style="stroke-width:0.264583"
         id="path1085" />
      <path
         d="m 18.671965,52.316153 h -0.480592 v 1.24127 h -0.396876 v -1.24127 h -0.480591 v -0.297657 h 1.358059 z"
         style="stroke-width:0.264583"
         id="path1087" />
    </g>
    <g
       aria-label="RANGE"
       id="text1030"
       style="font-weight:bold;font-size:2.11667px;line-height:1.25;font-family:sans-serif;-inkscape-font-specification:'sans-serif, Bold';stroke-width:0.264583"
       transform="translate(0.71248692,167.44164)">
      <path
         d="m 32.582585,52.488752 q 0,-0.05788 -0.02377,-0.09922 -0.02377,-0.04134 -0.08165,-0.06511 -0.04031,-0.01654 -0.09405,-0.01964 -0.05374,-0.0041 -0.125057,-0.0041 h -0.14366 v 0.414445 h 0.121956 q 0.09509,0 0.159164,-0.0093 0.06408,-0.0093 0.107487,-0.04237 0.04134,-0.03204 0.05994,-0.07028 0.01964,-0.03927 0.01964,-0.104387 z m 0.619084,1.067637 H 32.716944 L 32.29733,52.992081 h -0.182934 v 0.564308 h -0.394809 v -1.538927 h 0.665593 q 0.136426,0 0.234612,0.0155 0.09819,0.0155 0.183968,0.06718 0.08682,0.05168 0.13746,0.134359 0.05168,0.08165 0.05168,0.205672 0,0.170533 -0.07958,0.27802 -0.07855,0.107487 -0.225309,0.178801 z"
         style="stroke-width:0.264583"
         id="path1090" />
      <path
         d="m 34.799507,53.556389 h -0.410311 l -0.106454,-0.311093 h -0.570509 l -0.106453,0.311093 h -0.399977 l 0.568442,-1.538927 h 0.45682 z m -0.612883,-0.593246 -0.189136,-0.551906 -0.189136,0.551906 z"
         style="stroke-width:0.264583"
         id="path1092" />
      <path
         d="m 36.422149,53.556389 h -0.382406 l -0.653191,-1.056268 v 1.056268 H 35.02275 v -1.538927 h 0.47439 l 0.561207,0.881602 v -0.881602 h 0.363802 z"
         style="stroke-width:0.264583"
         id="path1094" />
      <path
         d="m 38.178117,53.468539 q -0.103353,0.04031 -0.273885,0.08062 -0.170533,0.03927 -0.340032,0.03927 -0.392741,0 -0.61495,-0.212907 -0.222209,-0.213941 -0.222209,-0.590146 0,-0.358635 0.224276,-0.577743 0.224276,-0.220142 0.625286,-0.220142 0.151929,0 0.289388,0.0279 0.13746,0.02687 0.305925,0.108521 v 0.360702 h -0.04444 q -0.02894,-0.0217 -0.08475,-0.06098 -0.05581,-0.04031 -0.107487,-0.06821 -0.05994,-0.03307 -0.14056,-0.05684 -0.07958,-0.02377 -0.169499,-0.02377 -0.10542,0 -0.191203,0.03101 -0.08578,0.03101 -0.153996,0.09509 -0.06511,0.06201 -0.103353,0.15813 -0.03721,0.09508 -0.03721,0.220142 0,0.255282 0.135392,0.390675 0.135392,0.135392 0.399976,0.135392 0.02274,0 0.04961,-10e-4 0.0279,-0.001 0.05064,-0.0031 V 52.999362 H 37.468077 V 52.70894 h 0.710035 z"
         style="stroke-width:0.264583"
         id="path1096" />
      <path
         d="m 39.64573,53.556389 h -1.113112 v -1.538927 h 1.113112 v 0.297657 h -0.718303 v 0.265617 h 0.666627 v 0.297657 h -0.666627 v 0.380339 h 0.718303 z"
         style="stroke-width:0.264583"
         id="path1098" />
    </g>
    <g
       aria-label="KEY"
       id="text1034"
       style="font-weight:bold;font-size:2.11667px;line-height:1.25;font-family:sans-serif;-inkscape-font-specification:'sans-serif, Bold';display:inline;opacity:1;stroke-width:0.264583"
       transform="translate(0,171.675)">
      <path
         d="m 24.619684,30.78302 h -0.486793 l -0.459921,-0.615984 -0.09302,0.112655 v 0.503329 h -0.396875 v -1.538926 h 0.396875 v 0.696599 l 0.549838,-0.696599 h 0.459921 l -0.601514,0.712102 z"
         style="stroke-width:0.264583"
         id="path1101" />
      <path
         d="m 25.929166,30.78302 h -1.113112 v -1.538926 h 1.113112 v 0.297656 h -0.718303 v 0.265617 h 0.666627 v 0.297657 h -0.666627 v 0.380339 h 0.718303 z"
         style="stroke-width:0.264583"
         id="path1103" />
      <path
         d="m 27.616921,29.244094 -0.567408,0.943613 v 0.595313 h -0.396876 v -0.57671 l -0.576709,-0.962216 h 0.450619 l 0.332797,0.595313 0.321427,-0.595313 z"
         style="stroke-width:0.264583"
         id="path1105" />
    </g>
    <path
       d="m 40.465157,202.85796 h -0.394809 v -1.03043 l -0.285254,0.6687 h -0.273886 l -0.285254,-0.6687 v 1.03043 h -0.374138 v -1.53892 h 0.460954 l 0.346233,0.77204 0.345199,-0.77204 h 0.460955 z"
       style="font-weight:bold;font-size:2.11667px;line-height:1.25;font-family:sans-serif;-inkscape-font-specification:'sans-serif, Bold';stroke-width:0.264583"
       id="path1108" />
    <path
       d="M 42.279002,202.85796 H 41.86869 l -0.106453,-0.31109 h -0.570509 l -0.106453,0.31109 h -0.399977 l 0.568442,-1.53892 h 0.45682 z m -0.612883,-0.59324 -0.189137,-0.55191 -0.189136,0.55191 z"
       style="font-weight:bold;font-size:2.11667px;line-height:1.25;font-family:sans-serif;-inkscape-font-specification:'sans-serif, Bold';stroke-width:0.264583"
       id="path1110" />
    <path
       d="m 43.304264,202.40631 q 0,0.10129 -0.03617,0.19017 -0.03617,0.0878 -0.107488,0.14883 -0.07545,0.0651 -0.181901,0.10128 -0.106454,0.0351 -0.26355,0.0351 -0.106454,0 -0.200505,-0.008 -0.09405,-0.007 -0.165365,-0.0217 v -0.31212 h 0.03721 q 0.04961,0.0186 0.103353,0.0351 0.05374,0.0155 0.13746,0.0155 0.10852,0 0.166398,-0.0289 0.05891,-0.0289 0.08372,-0.0806 0.02377,-0.0506 0.02687,-0.11059 0.0031,-0.061 0.0031,-0.15503 v -0.61288 H 42.554963 V 201.319 h 0.749309 z"
       style="font-weight:bold;font-size:2.11667px;line-height:1.25;font-family:sans-serif;-inkscape-font-specification:'sans-serif, Bold';stroke-width:0.264583"
       id="path1112" />
    <g
       aria-label="MIN"
       id="text1042"
       style="font-weight:bold;font-size:2.11667px;line-height:1.25;font-family:sans-serif;-inkscape-font-specification:'sans-serif, Bold';display:inline;opacity:1;stroke-width:0.264583"
       transform="translate(0,168.49998)">
      <path
         d="m 40.410381,47.598122 h -0.394808 v -1.03043 l -0.285255,0.668694 h -0.273885 l -0.285254,-0.668694 v 1.03043 h -0.374138 v -1.538927 h 0.460954 l 0.346233,0.772047 0.345199,-0.772047 h 0.460954 z"
         style="stroke-width:0.264583"
         id="path1115" />
      <path
         d="M 41.634081,47.598122 H 40.732843 V 47.32527 h 0.252181 v -0.993223 h -0.252181 v -0.272852 h 0.901238 v 0.272852 H 41.3819 v 0.993223 h 0.252181 z"
         style="stroke-width:0.264583"
         id="path1117" />
      <path
         d="m 43.359043,47.598122 h -0.382406 l -0.653191,-1.056268 v 1.056268 h -0.363803 v -1.538927 h 0.47439 l 0.561207,0.881601 v -0.881601 h 0.363803 z"
         style="stroke-width:0.264583"
         id="path1119" />
    </g>
    <g
       aria-label="RUN"
       id="text1311"
       style="font-weight:bold;font-size:2.11667px;line-height:1.25;font-family:sans-serif;-inkscape-font-specification:'sans-serif, Bold';stroke-width:0.264583"
       transform="translate(2.1416128,3.7041668)">
      <path
         d="m 5.4287656,179.94471 q 0,-0.0579 -0.023771,-0.0992 -0.023771,-0.0413 -0.081649,-0.0651 -0.040308,-0.0165 -0.094051,-0.0196 -0.053744,-0.004 -0.1250571,-0.004 H 4.9605764 v 0.41444 H 5.082533 q 0.095085,0 0.1591637,-0.009 0.064079,-0.009 0.1074871,-0.0424 0.041341,-0.032 0.059945,-0.0703 0.019637,-0.0393 0.019637,-0.10438 z m 0.6190846,1.06763 H 5.5631246 l -0.4196133,-0.5643 H 4.9605764 v 0.5643 H 4.5657679 v -1.53892 h 0.6655935 q 0.136426,0 0.2346113,0.0155 0.098185,0.0155 0.1839684,0.0672 0.086816,0.0517 0.1374595,0.13436 0.051677,0.0816 0.051677,0.20567 0,0.17053 -0.079582,0.27802 -0.078548,0.10749 -0.2253096,0.1788 z"
         style="stroke-width:0.264583"
         id="path1313" />
      <path
         d="m 7.5712737,180.45527 q 0,0.28526 -0.173633,0.43718 -0.1736331,0.15193 -0.5115975,0.15193 -0.3379644,0 -0.5115974,-0.15193 -0.1725996,-0.15192 -0.1725996,-0.43614 v -0.98289 h 0.3989427 v 0.96015 q 0,0.16019 0.067179,0.23874 0.067179,0.0785 0.2180749,0.0785 0.1488284,0 0.2170414,-0.0754 0.069247,-0.0754 0.069247,-0.24184 v -0.96015 h 0.3989426 z"
         style="stroke-width:0.264583"
         id="path1315" />
      <path
         d="M 9.3427447,181.01234 H 8.9603385 l -0.6531911,-1.05626 v 1.05626 H 7.9433447 v -1.53892 h 0.4743904 l 0.5612069,0.8816 v -0.8816 h 0.3638027 z"
         style="stroke-width:0.264583"
         id="path1317" />
    </g>
    <g
       aria-label="LFSR NOTE GENERATOR"
       id="text427"
       style="font-weight:bold;font-size:2.11667px;line-height:1.25;font-family:sans-serif;-inkscape-font-specification:'sans-serif, Bold';word-spacing:0px;stroke-width:0.264583">
      <path
         d="M 3.7113858,180.4818 H 1.8613684 v -2.56488 h 0.6614587 v 2.06878 h 1.1885587 z"
         style="font-style:normal;font-variant:normal;font-weight:bold;font-stretch:normal;font-size:3.52778px;font-family:sans-serif;-inkscape-font-specification:'sans-serif, Bold';font-variant-ligatures:normal;font-variant-caps:normal;font-variant-numeric:normal;font-variant-east-asian:normal;stroke-width:0.264583"
         id="path464" />
      <path
         d="m 5.9455317,178.41302 h -1.179946 v 0.47714 h 1.0938185 v 0.4961 H 4.7655857 v 1.09554 H 4.107572 v -2.56488 h 1.8379597 z"
         style="font-style:normal;font-variant:normal;font-weight:bold;font-stretch:normal;font-size:3.52778px;font-family:sans-serif;-inkscape-font-specification:'sans-serif, Bold';font-variant-ligatures:normal;font-variant-caps:normal;font-variant-numeric:normal;font-variant-east-asian:normal;stroke-width:0.264583"
         id="path466" />
      <path
         d="m 8.4552855,179.67564 q 0,0.37896 -0.3221166,0.61668 -0.3203941,0.23599 -0.8716097,0.23599 -0.3186716,0 -0.5563833,-0.0551 -0.2359892,-0.0568 -0.4426951,-0.14297 v -0.61495 h 0.072347 q 0.2049833,0.16364 0.458198,0.25149 0.2549372,0.0879 0.4892039,0.0879 0.060289,0 0.1584744,-0.0103 0.098185,-0.0103 0.1601971,-0.0345 0.075792,-0.031 0.1240235,-0.0775 0.049954,-0.0465 0.049954,-0.1378 0,-0.0844 -0.072347,-0.14469 -0.070625,-0.062 -0.2084284,-0.0948 -0.1446941,-0.0344 -0.3066137,-0.0637 -0.1601971,-0.031 -0.3014461,-0.0775 -0.3238392,-0.10508 -0.4668107,-0.28422 -0.141249,-0.18087 -0.141249,-0.44787 0,-0.35829 0.3203941,-0.58394 0.3221166,-0.22738 0.8268234,-0.22738 0.2532147,0 0.4995392,0.05 0.248047,0.0482 0.4289146,0.1223 v 0.59083 h -0.070624 q -0.1550294,-0.12402 -0.3806833,-0.2067 -0.2239313,-0.0844 -0.458198,-0.0844 -0.082682,0 -0.1653646,0.0121 -0.08096,0.0103 -0.156752,0.0413 -0.067179,0.0258 -0.1154108,0.0792 -0.048231,0.0517 -0.048231,0.11885 0,0.10163 0.077515,0.15675 0.077515,0.0534 0.2928333,0.0982 0.141249,0.0293 0.2704401,0.0568 0.1309138,0.0276 0.2807755,0.0758 0.2945559,0.0965 0.4340823,0.26355 0.141249,0.16536 0.141249,0.43063 z"
         style="font-style:normal;font-variant:normal;font-weight:bold;font-stretch:normal;font-size:3.52778px;font-family:sans-serif;-inkscape-font-specification:'sans-serif, Bold';font-variant-ligatures:normal;font-variant-caps:normal;font-variant-numeric:normal;font-variant-east-asian:normal;stroke-width:0.264583"
         id="path468" />
      <path
         d="m 10.348366,178.7024 q 0,-0.0965 -0.03962,-0.16536 -0.03962,-0.0689 -0.136082,-0.10852 -0.06718,-0.0276 -0.156751,-0.0327 -0.089573,-0.007 -0.2084289,-0.007 H 9.5680518 v 0.69074 h 0.2032608 q 0.1584745,0 0.2652724,-0.0155 0.106798,-0.0155 0.179145,-0.0706 0.0689,-0.0534 0.09991,-0.11713 0.03273,-0.0655 0.03273,-0.17398 z m 1.031807,1.7794 H 10.572298 L 9.872943,179.54128 H 9.5680518 v 0.94052 H 8.9100382 v -2.56488 H 10.01936 q 0.227376,0 0.391018,0.0258 0.163642,0.0258 0.306614,0.11196 0.144694,0.0861 0.229099,0.22394 0.08613,0.13608 0.08613,0.34278 0,0.28422 -0.132636,0.46337 -0.130914,0.17914 -0.375516,0.298 z"
         style="font-style:normal;font-variant:normal;font-weight:bold;font-stretch:normal;font-size:3.52778px;font-family:sans-serif;-inkscape-font-specification:'sans-serif, Bold';font-variant-ligatures:normal;font-variant-caps:normal;font-variant-numeric:normal;font-variant-east-asian:normal;stroke-width:0.264583"
         id="path470" />
      <path
         d="m 15.211122,180.4818 h -0.637343 l -1.088651,-1.76045 v 1.76045 h -0.606337 v -2.56488 h 0.79065 l 0.935344,1.46934 v -1.46934 h 0.606337 z"
         style="font-style:normal;font-variant:normal;font-weight:bold;font-stretch:normal;font-size:3.52778px;font-family:sans-serif;-inkscape-font-specification:'sans-serif, Bold';font-variant-ligatures:normal;font-variant-caps:normal;font-variant-numeric:normal;font-variant-east-asian:normal;stroke-width:0.264583"
         id="path472" />
      <path
         d="m 18.363386,179.20022 q 0,0.61323 -0.3514,0.97496 -0.3514,0.36002 -0.971518,0.36002 -0.618395,0 -0.969795,-0.36002 -0.3514,-0.36173 -0.3514,-0.97496 0,-0.6184 0.3514,-0.97669 0.3514,-0.36001 0.969795,-0.36001 0.616673,0 0.969795,0.36001 0.353123,0.35829 0.353123,0.97669 z m -0.876778,0.6494 q 0.09646,-0.11713 0.142972,-0.27561 0.04651,-0.16019 0.04651,-0.37551 0,-0.23082 -0.0534,-0.39274 -0.0534,-0.16192 -0.139527,-0.26183 -0.08785,-0.10335 -0.20326,-0.14986 -0.113689,-0.0465 -0.237712,-0.0465 -0.125746,0 -0.237712,0.0448 -0.110243,0.0448 -0.203261,0.14814 -0.08613,0.0965 -0.141249,0.267 -0.0534,0.16881 -0.0534,0.39274 0,0.2291 0.05168,0.39102 0.0534,0.1602 0.139526,0.26183 0.08613,0.10163 0.201538,0.14986 0.115411,0.0482 0.24288,0.0482 0.127468,0 0.242879,-0.0482 0.115411,-0.05 0.201538,-0.15331 z"
         style="font-style:normal;font-variant:normal;font-weight:bold;font-stretch:normal;font-size:3.52778px;font-family:sans-serif;-inkscape-font-specification:'sans-serif, Bold';font-variant-ligatures:normal;font-variant-caps:normal;font-variant-numeric:normal;font-variant-east-asian:normal;stroke-width:0.264583"
         id="path474" />
      <path
         d="m 20.873141,178.41302 h -0.800985 v 2.06878 h -0.661459 v -2.06878 h -0.800985 v -0.4961 h 2.263429 z"
         style="font-style:normal;font-variant:normal;font-weight:bold;font-stretch:normal;font-size:3.52778px;font-family:sans-serif;-inkscape-font-specification:'sans-serif, Bold';font-variant-ligatures:normal;font-variant-caps:normal;font-variant-numeric:normal;font-variant-east-asian:normal;stroke-width:0.264583"
         id="path476" />
      <path
         d="m 23.126233,180.4818 h -1.855185 v -2.56488 h 1.855185 v 0.4961 h -1.197172 v 0.44269 h 1.111044 v 0.49609 h -1.111044 v 0.6339 h 1.197172 z"
         style="font-style:normal;font-variant:normal;font-weight:bold;font-stretch:normal;font-size:3.52778px;font-family:sans-serif;-inkscape-font-specification:'sans-serif, Bold';font-variant-ligatures:normal;font-variant-caps:normal;font-variant-numeric:normal;font-variant-east-asian:normal;stroke-width:0.264583"
         id="path478" />
      <path
         d="m 27.156998,180.33538 q -0.172255,0.0672 -0.456475,0.13436 -0.284221,0.0655 -0.566719,0.0655 -0.654569,0 -1.024917,-0.35485 -0.370348,-0.35657 -0.370348,-0.98358 0,-0.59772 0.373794,-0.9629 0.373793,-0.3669 1.042142,-0.3669 0.253214,0 0.482313,0.0465 0.229099,0.0448 0.509875,0.18086 v 0.60117 h -0.07407 q -0.04823,-0.0362 -0.141249,-0.10163 -0.09302,-0.0672 -0.179145,-0.11369 -0.09991,-0.0551 -0.234267,-0.0947 -0.132636,-0.0396 -0.282498,-0.0396 -0.1757,0 -0.318671,0.0517 -0.142972,0.0517 -0.25666,0.15848 -0.10852,0.10335 -0.172255,0.26355 -0.06201,0.15847 -0.06201,0.3669 0,0.42547 0.225654,0.65112 0.225654,0.22566 0.666627,0.22566 0.0379,0 0.08268,-0.002 0.04651,-0.002 0.08441,-0.005 v -0.50299 h -0.511597 v -0.48403 h 1.183391 z"
         style="font-style:normal;font-variant:normal;font-weight:bold;font-stretch:normal;font-size:3.52778px;font-family:sans-serif;-inkscape-font-specification:'sans-serif, Bold';font-variant-ligatures:normal;font-variant-caps:normal;font-variant-numeric:normal;font-variant-east-asian:normal;stroke-width:0.264583"
         id="path480" />
      <path
         d="m 29.603017,180.4818 h -1.855185 v -2.56488 h 1.855185 v 0.4961 h -1.197172 v 0.44269 h 1.111044 v 0.49609 h -1.111044 v 0.6339 h 1.197172 z"
         style="font-style:normal;font-variant:normal;font-weight:bold;font-stretch:normal;font-size:3.52778px;font-family:sans-serif;-inkscape-font-specification:'sans-serif, Bold';font-variant-ligatures:normal;font-variant-caps:normal;font-variant-numeric:normal;font-variant-east-asian:normal;stroke-width:0.264583"
         id="path482" />
      <path
         d="m 32.491732,180.4818 h -0.637343 l -1.088651,-1.76045 v 1.76045 h -0.606337 v -2.56488 h 0.79065 l 0.935344,1.46934 v -1.46934 h 0.606337 z"
         style="font-style:normal;font-variant:normal;font-weight:bold;font-stretch:normal;font-size:3.52778px;font-family:sans-serif;-inkscape-font-specification:'sans-serif, Bold';font-variant-ligatures:normal;font-variant-caps:normal;font-variant-numeric:normal;font-variant-east-asian:normal;stroke-width:0.264583"
         id="path484" />
      <path
         d="m 35.004931,180.4818 h -1.855185 v -2.56488 h 1.855185 v 0.4961 H 33.80776 v 0.44269 h 1.111044 v 0.49609 H 33.80776 v 0.6339 h 1.197171 z"
         style="font-style:normal;font-variant:normal;font-weight:bold;font-stretch:normal;font-size:3.52778px;font-family:sans-serif;-inkscape-font-specification:'sans-serif, Bold';font-variant-ligatures:normal;font-variant-caps:normal;font-variant-numeric:normal;font-variant-east-asian:normal;stroke-width:0.264583"
         id="path486" />
      <path
         d="m 36.99964,178.7024 q 0,-0.0965 -0.03962,-0.16536 -0.03962,-0.0689 -0.136082,-0.10852 -0.06718,-0.0276 -0.156752,-0.0327 -0.08957,-0.007 -0.208428,-0.007 h -0.239434 v 0.69074 h 0.20326 q 0.158475,0 0.265273,-0.0155 0.106798,-0.0155 0.179145,-0.0706 0.0689,-0.0534 0.09991,-0.11713 0.03273,-0.0655 0.03273,-0.17398 z m 1.031807,1.7794 h -0.807875 l -0.699355,-0.94052 h -0.304891 v 0.94052 h -0.658014 v -2.56488 h 1.109321 q 0.227377,0 0.391019,0.0258 0.163642,0.0258 0.306614,0.11196 0.144694,0.0861 0.229099,0.22394 0.08613,0.13608 0.08613,0.34278 0,0.28422 -0.132636,0.46337 -0.130914,0.17914 -0.375516,0.298 z"
         style="font-style:normal;font-variant:normal;font-weight:bold;font-stretch:normal;font-size:3.52778px;font-family:sans-serif;-inkscape-font-specification:'sans-serif, Bold';font-variant-ligatures:normal;font-variant-caps:normal;font-variant-numeric:normal;font-variant-east-asian:normal;stroke-width:0.264583"
         id="path488" />
      <path
         d="m 40.694509,180.4818 h -0.683852 l -0.177422,-0.51849 h -0.950847 l -0.177423,0.51849 h -0.666626 l 0.947402,-2.56488 h 0.761366 z m -1.021471,-0.98875 -0.315227,-0.91984 -0.315226,0.91984 z"
         style="font-style:normal;font-variant:normal;font-weight:bold;font-stretch:normal;font-size:3.52778px;font-family:sans-serif;-inkscape-font-specification:'sans-serif, Bold';font-variant-ligatures:normal;font-variant-caps:normal;font-variant-numeric:normal;font-variant-east-asian:normal;stroke-width:0.264583"
         id="path490" />
      <path
         d="m 43.073349,178.41302 h -0.800985 v 2.06878 h -0.661459 v -2.06878 H 40.80992 v -0.4961 h 2.263429 z"
         style="font-style:normal;font-variant:normal;font-weight:bold;font-stretch:normal;font-size:3.52778px;font-family:sans-serif;-inkscape-font-specification:'sans-serif, Bold';font-variant-ligatures:normal;font-variant-caps:normal;font-variant-numeric:normal;font-variant-east-asian:normal;stroke-width:0.264583"
         id="path492" />
      <path
         d="m 45.965509,179.20022 q 0,0.61323 -0.3514,0.97496 -0.3514,0.36002 -0.971517,0.36002 -0.618395,0 -0.969795,-0.36002 -0.3514,-0.36173 -0.3514,-0.97496 0,-0.6184 0.3514,-0.97669 0.3514,-0.36001 0.969795,-0.36001 0.616672,0 0.969795,0.36001 0.353122,0.35829 0.353122,0.97669 z m -0.876777,0.6494 q 0.09646,-0.11713 0.142971,-0.27561 0.04651,-0.16019 0.04651,-0.37551 0,-0.23082 -0.0534,-0.39274 -0.0534,-0.16192 -0.139526,-0.26183 -0.08785,-0.10335 -0.203261,-0.14986 -0.113688,-0.0465 -0.237712,-0.0465 -0.125746,0 -0.237712,0.0448 -0.110243,0.0448 -0.20326,0.14814 -0.08613,0.0965 -0.141249,0.267 -0.0534,0.16881 -0.0534,0.39274 0,0.2291 0.05168,0.39102 0.0534,0.1602 0.139527,0.26183 0.08613,0.10163 0.201538,0.14986 0.115411,0.0482 0.242879,0.0482 0.127469,0 0.24288,-0.0482 0.11541,-0.05 0.201538,-0.15331 z"
         style="font-style:normal;font-variant:normal;font-weight:bold;font-stretch:normal;font-size:3.52778px;font-family:sans-serif;-inkscape-font-specification:'sans-serif, Bold';font-variant-ligatures:normal;font-variant-caps:normal;font-variant-numeric:normal;font-variant-east-asian:normal;stroke-width:0.264583"
         id="path494" />
      <path
         d="m 47.906821,178.7024 q 0,-0.0965 -0.03962,-0.16536 -0.03962,-0.0689 -0.136081,-0.10852 -0.06718,-0.0276 -0.156752,-0.0327 -0.08957,-0.007 -0.208428,-0.007 h -0.239435 v 0.69074 h 0.203261 q 0.158475,0 0.265273,-0.0155 0.106798,-0.0155 0.179145,-0.0706 0.0689,-0.0534 0.09991,-0.11713 0.03273,-0.0655 0.03273,-0.17398 z m 1.031807,1.7794 h -0.807876 l -0.699354,-0.94052 h -0.304892 v 0.94052 h -0.658013 v -2.56488 h 1.109321 q 0.227377,0 0.391019,0.0258 0.163642,0.0258 0.306613,0.11196 0.144695,0.0861 0.229099,0.22394 0.08613,0.13608 0.08613,0.34278 0,0.28422 -0.132636,0.46337 -0.130914,0.17914 -0.375516,0.298 z"
         style="font-style:normal;font-variant:normal;font-weight:bold;font-stretch:normal;font-size:3.52778px;font-family:sans-serif;-inkscape-font-specification:'sans-serif, Bold';font-variant-ligatures:normal;font-variant-caps:normal;font-variant-numeric:normal;font-variant-east-asian:normal;stroke-width:0.264583"
         id="path496" />
    </g>
    <text
       xml:space="preserve"
       style="font-weight:bold;font-size:2.11667px;line-height:1.25;font-family:sans-serif;-inkscape-font-specification:'sans-serif, Bold';word-spacing:0px;stroke-width:0.264583"
       x="11.51932"
       y="227.88406"
       id="text501"><tspan
         sodipodi:role="line"
         id="tspan499"
         x="11.51932"
         y="227.88406"
         style="font-style:normal;font-variant:normal;font-weight:normal;font-stretch:normal;font-size:2.11667px;font-family:sans-serif;-inkscape-font-specification:'sans-serif, Normal';font-variant-ligatures:normal;font-variant-caps:normal;font-variant-numeric:normal;font-variant-east-asian:normal;stroke-width:0.264583" /></text>
    <g
       aria-label="Off"
       id="text505"
       style="font-weight:bold;font-size:2.11667px;line-height:1.25;font-family:sans-serif;-inkscape-font-specification:'sans-serif, Bold';word-spacing:0px;stroke-width:0.264583"
       transform="translate(2.6458334,2.6458334)">
      <path
         d="m 6.8879293,248.99311 q 0.078376,0.0861 0.1197171,0.21101 0.042203,0.12488 0.042203,0.28336 0,0.15847 -0.043064,0.28422 -0.042202,0.12488 -0.1188558,0.20843 -0.079237,0.087 -0.1877579,0.13091 -0.1076593,0.0439 -0.2463244,0.0439 -0.1352201,0 -0.2463245,-0.0448 -0.1102432,-0.0448 -0.1877579,-0.13005 -0.077515,-0.0853 -0.1197171,-0.20929 -0.041341,-0.12403 -0.041341,-0.28336 0,-0.15675 0.041341,-0.28078 0.041341,-0.12488 0.1205784,-0.21359 0.075792,-0.0844 0.1877578,-0.1292 0.112827,-0.0448 0.2454633,-0.0448 0.1378039,0 0.2471857,0.0456 0.1102431,0.0448 0.1868966,0.12833 z m -0.015503,0.49437 q 0,-0.24977 -0.1119656,-0.38499 -0.1119657,-0.13608 -0.3057525,-0.13608 -0.1955093,0 -0.3074749,0.13608 -0.1111044,0.13522 -0.1111044,0.38499 0,0.25235 0.1136882,0.38671 0.1136882,0.1335 0.3048911,0.1335 0.191203,0 0.3040299,-0.1335 0.1136882,-0.13436 0.1136882,-0.38671 z"
         style="font-style:normal;font-variant:normal;font-weight:normal;font-stretch:normal;font-size:1.76389px;font-family:sans-serif;-inkscape-font-specification:'sans-serif, Normal';font-variant-ligatures:normal;font-variant-caps:normal;font-variant-numeric:normal;font-variant-east-asian:normal;stroke-width:0.264583"
         id="path507" />
      <path
         d="m 7.8249958,248.94487 h -0.00861 q -0.0267,-0.008 -0.069763,-0.0155 -0.043064,-0.009 -0.075792,-0.009 -0.1042142,0 -0.1515843,0.0465 -0.046509,0.0456 -0.046509,0.16622 v 0.0327 h 0.291972 v 0.13608 H 7.4779022 v 0.82597 H 7.3159826 V 249.3023 H 7.2066008 v -0.13608 h 0.1093818 v -0.0319 q 0,-0.17139 0.085266,-0.26268 0.085266,-0.0922 0.2463245,-0.0922 0.05426,0 0.097324,0.005 0.043925,0.005 0.080099,0.0121 z"
         style="font-style:normal;font-variant:normal;font-weight:normal;font-stretch:normal;font-size:1.76389px;font-family:sans-serif;-inkscape-font-specification:'sans-serif, Normal';font-variant-ligatures:normal;font-variant-caps:normal;font-variant-numeric:normal;font-variant-east-asian:normal;stroke-width:0.264583"
         id="path509" />
      <path
         d="m 8.4451135,248.94487 h -0.00861 q -0.026699,-0.008 -0.069763,-0.0155 -0.043064,-0.009 -0.075792,-0.009 -0.1042142,0 -0.1515843,0.0465 -0.046509,0.0456 -0.046509,0.16622 v 0.0327 h 0.2919721 v 0.13608 H 8.0980199 v 0.82597 H 7.9361003 V 249.3023 H 7.8267184 v -0.13608 h 0.1093819 v -0.0319 q 0,-0.17139 0.085266,-0.26268 0.085266,-0.0922 0.2463245,-0.0922 0.05426,0 0.097324,0.005 0.043925,0.005 0.080099,0.0121 z"
         style="font-style:normal;font-variant:normal;font-weight:normal;font-stretch:normal;font-size:1.76389px;font-family:sans-serif;-inkscape-font-specification:'sans-serif, Normal';font-variant-ligatures:normal;font-variant-caps:normal;font-variant-numeric:normal;font-variant-east-asian:normal;stroke-width:0.264583"
         id="path511" />
    </g>
    <path
       inkscape:connector-curvature="0"
       id="path34099"
       d="M 17.51656,246.33898 H 32.5329"
       style="fill:none;stroke:#000000;stroke-width:0.183832;stroke-linecap:round;stroke-linejoin:round;stroke-miterlimit:10;stroke-opacity:1" />
  </g>
  <g
     inkscape:groupmode="layer"
     id="layer2"
     inkscape:label="components"
     style="display:none;opacity:1">
    <text
       xml:space="preserve"
       style="font-weight:bold;font-size:2.11667px;line-height:1.25;font-family:sans-serif;-inkscape-font-specification:'sans-serif, Bold';stroke-width:0.264583"
       x="6.5540957"
       y="62.164608"
       id="text973"><tspan
         sodipodi:role="line"
         id="tspan971"
         x="6.5540957"
         y="62.164608"
         style="stroke-width:0.264583" /></text>
    <circle
       style="display:inline;vector-effect:none;fill:#ff0000;fill-opacity:1;fill-rule:evenodd;stroke:none;stroke-width:1;stroke-linecap:butt;stroke-linejoin:miter;stroke-miterlimit:4;stroke-dasharray:none;stroke-dashoffset:0;stroke-opacity:1;paint-order:normal"
       id="path4954"
       cx="14.175997"
       cy="95.54467"
       r="4"
       inkscape:label="clock" />
    <circle
       cy="113.29314"
       cx="14.175997"
       id="circle4956"
       style="display:inline;vector-effect:none;fill:#00ff00;fill-opacity:1;fill-rule:evenodd;stroke:none;stroke-width:1;stroke-linecap:butt;stroke-linejoin:miter;stroke-miterlimit:4;stroke-dasharray:none;stroke-dashoffset:0;stroke-opacity:1;paint-order:normal"
       inkscape:label="exCloc"
       r="4" />
    <circle
       style="display:inline;vector-effect:none;fill:#0000ff;fill-opacity:1;fill-rule:evenodd;stroke:none;stroke-width:1;stroke-linecap:butt;stroke-linejoin:miter;stroke-miterlimit:4;stroke-dasharray:none;stroke-dashoffset:0;stroke-opacity:1;paint-order:normal"
       id="circle4958-8"
       cx="36.395145"
       cy="113.29314"
       inkscape:label="gate"
       r="4" />
    <circle
       style="display:inline;vector-effect:none;fill:#0000ff;fill-opacity:1;fill-rule:evenodd;stroke:none;stroke-width:1;stroke-linecap:butt;stroke-linejoin:miter;stroke-miterlimit:4;stroke-dasharray:none;stroke-dashoffset:0;stroke-opacity:1;paint-order:normal"
       id="circle4958-8-2"
       cx="36.395145"
       cy="77.726097"
       inkscape:label="voct"
       r="4" />
    <circle
       style="display:inline;opacity:1;vector-effect:none;fill:#ff0000;fill-opacity:1;fill-rule:evenodd;stroke:none;stroke-width:1;stroke-linecap:butt;stroke-linejoin:miter;stroke-miterlimit:4;stroke-dasharray:none;stroke-dashoffset:0;stroke-opacity:1;paint-order:normal"
       id="path4954-2"
       cx="25.4"
       cy="41.667149"
       r="4"
       inkscape:label="key" />
    <rect
       style="display:inline;opacity:1;fill:#000000;fill-opacity:1;stroke:#000000;stroke-width:0.111816;stroke-linejoin:round"
       id="rect1739"
       width="0.30579332"
       height="6.859889"
       x="40.925144"
       y="40.723797"
       inkscape:label="majminswitch" />
    <rect
       style="display:inline;fill:#000000;fill-opacity:1;stroke:#000000;stroke-width:0.111816;stroke-linejoin:round"
       id="rect1739-3"
       width="0.30579332"
       height="6.859889"
       x="8.9429722"
       y="40.723789"
       inkscape:label="sharpswitch" />
    <circle
       style="display:inline;opacity:1;vector-effect:none;fill:#ff0000;fill-opacity:1;fill-rule:evenodd;stroke:none;stroke-width:0.999999;stroke-linecap:butt;stroke-linejoin:miter;stroke-miterlimit:4;stroke-dasharray:none;stroke-dashoffset:0;stroke-opacity:1;paint-order:normal"
       id="path4954-2-0"
       cx="9.0958691"
       cy="21.355656"
       inkscape:label="runLight"
       r="4" />
    <circle
       inkscape:label="blink"
       cy="21.355656"
       cx="25.4"
       id="circle66-9"
       style="display:inline;opacity:1;vector-effect:none;fill:#ff00ff;fill-opacity:1;fill-rule:evenodd;stroke:none;stroke-width:1;stroke-linecap:butt;stroke-linejoin:miter;stroke-miterlimit:4;stroke-dasharray:none;stroke-dashoffset:0;stroke-opacity:1;paint-order:normal"
       r="4" />
    <circle
       style="display:inline;vector-effect:none;fill:#0000ff;fill-opacity:1;fill-rule:evenodd;stroke:none;stroke-width:1;stroke-linecap:butt;stroke-linejoin:miter;stroke-miterlimit:4;stroke-dasharray:none;stroke-dashoffset:0;stroke-opacity:1;paint-order:normal"
       id="circle4958-8-2-5"
       cx="36.395145"
       cy="95.54467"
       inkscape:label="cvLevel"
       r="4" />
    <circle
       style="display:inline;opacity:1;vector-effect:none;fill:#ff0000;fill-opacity:1;fill-rule:evenodd;stroke:none;stroke-width:1;stroke-linecap:butt;stroke-linejoin:miter;stroke-miterlimit:4;stroke-dasharray:none;stroke-dashoffset:0;stroke-opacity:1;paint-order:normal"
       id="path4954-1-6-9"
       cx="14.175997"
       cy="77.726097"
       r="4"
       inkscape:label="velquant" />
    <circle
       style="display:inline;vector-effect:none;fill:#ff0000;fill-opacity:1;fill-rule:evenodd;stroke:none;stroke-width:1;stroke-linecap:butt;stroke-linejoin:miter;stroke-miterlimit:4;stroke-dasharray:none;stroke-dashoffset:0;stroke-opacity:1;paint-order:normal"
       id="path4954-27"
       cx="14.175997"
       cy="58.75626"
       inkscape:label="offset"
       r="4" />
    <circle
       style="display:inline;vector-effect:none;fill:#ff0000;fill-opacity:1;fill-rule:evenodd;stroke:none;stroke-width:1;stroke-linecap:butt;stroke-linejoin:miter;stroke-miterlimit:4;stroke-dasharray:none;stroke-dashoffset:0;stroke-opacity:1;paint-order:normal"
       id="path4954-1"
       cx="36.395145"
       cy="58.75626"
       r="4"
       inkscape:label="range" />
  </g>
</svg>
