<?xml version="1.0" encoding="UTF-8" standalone="no"?>
<svg
   xmlns:dc="http://purl.org/dc/elements/1.1/"
   xmlns:cc="http://creativecommons.org/ns#"
   xmlns:rdf="http://www.w3.org/1999/02/22-rdf-syntax-ns#"
   xmlns:svg="http://www.w3.org/2000/svg"
   xmlns="http://www.w3.org/2000/svg"
   xmlns:sodipodi="http://sodipodi.sourceforge.net/DTD/sodipodi-0.dtd"
   xmlns:inkscape="http://www.inkscape.org/namespaces/inkscape"
   width="50.799999mm"
   height="128.5mm"
   viewBox="0 0 50.800003 128.50002"
   version="1.1"
   id="svg8"
   inkscape:version="1.0.2 (e86c8708, 2021-01-15)"
   sodipodi:docname="cvGenerator.svg">
  <defs
     id="defs2" />
  <sodipodi:namedview
     id="base"
     pagecolor="#ffffff"
     bordercolor="#666666"
     borderopacity="1.0"
     inkscape:pageopacity="0.0"
     inkscape:pageshadow="2"
     inkscape:zoom="1.3321822"
     inkscape:cx="-34.194881"
     inkscape:cy="251.80845"
     inkscape:document-units="mm"
     inkscape:current-layer="layer2"
     showgrid="false"
     units="mm"
     inkscape:snap-bbox="true"
     inkscape:snap-page="true"
     inkscape:bbox-nodes="false"
     inkscape:snap-bbox-edge-midpoints="false"
     inkscape:window-width="1440"
     inkscape:window-height="855"
     inkscape:window-x="0"
     inkscape:window-y="23"
     inkscape:window-maximized="1"
     inkscape:snap-bbox-midpoints="true"
     inkscape:snap-nodes="false"
     inkscape:document-rotation="0" />
  <metadata
     id="metadata5">
    <rdf:RDF>
      <cc:Work
         rdf:about="">
        <dc:format>image/svg+xml</dc:format>
        <dc:type
           rdf:resource="http://purl.org/dc/dcmitype/StillImage" />
        <dc:title />
      </cc:Work>
    </rdf:RDF>
  </metadata>
  <g
     inkscape:label="Layer 1"
     inkscape:groupmode="layer"
     id="layer1"
     transform="translate(0,-168.49998)"
     style="display:inline">
    <rect
       style="display:inline;opacity:1;vector-effect:none;fill:#e6e6e6;fill-opacity:1;fill-rule:evenodd;stroke:none;stroke-width:0.838318;stroke-linecap:butt;stroke-linejoin:miter;stroke-miterlimit:4;stroke-dasharray:none;stroke-dashoffset:0;stroke-opacity:1;paint-order:normal"
       id="rect420"
       width="50.799999"
       height="128.5"
       x="5.9211732e-17"
       y="168.49997" />
    <g
       aria-label="LFSR"
       id="text90"
       style="font-style:normal;font-weight:normal;font-size:10.5833px;line-height:1.25;font-family:sans-serif;fill:#000000;fill-opacity:1;stroke:none;stroke-width:0.264583"
       transform="translate(9.5028975)">
      <path
         d="M 7.9802986,179.65028 H 3.1123942 v -7.69459 h 1.0231901 v 6.78509 h 3.8447143 z"
         style="stroke-width:0.264583"
         id="path114" />
      <path
         d="m 13.917902,172.86519 h -3.891223 v 2.1704 h 3.343455 v 0.90951 h -3.343455 v 3.70518 H 9.0034889 v -7.69459 h 4.9144131 z"
         style="stroke-width:0.264583"
         id="path116" />
      <path
         d="m 20.67199,177.45404 q 0,0.44959 -0.211873,0.88883 -0.206705,0.43925 -0.583942,0.74414 -0.41341,0.33073 -0.966346,0.51677 -0.547768,0.18603 -1.322912,0.18603 -0.831988,0 -1.498612,-0.15503 -0.661456,-0.15503 -1.348751,-0.45992 v -1.28157 h 0.07235 q 0.583942,0.48576 1.348751,0.74931 0.764809,0.26355 1.4366,0.26355 0.950843,0 1.477941,-0.35657 0.532266,-0.35657 0.532266,-0.95084 0,-0.5116 -0.253214,-0.75448 -0.248046,-0.24288 -0.759641,-0.37723 -0.387572,-0.10336 -0.842323,-0.17054 -0.449584,-0.0672 -0.956011,-0.17053 -1.02319,-0.21704 -1.519282,-0.73897 -0.490925,-0.5271 -0.490925,-1.36942 0,-0.96635 0.816485,-1.58129 0.816485,-0.62012 2.072218,-0.62012 0.811318,0 1.488277,0.15503 0.676959,0.15503 1.198889,0.3824 v 1.20923 h -0.07235 q -0.439249,-0.37207 -1.157549,-0.61495 -0.713132,-0.24804 -1.462438,-0.24804 -0.821653,0 -1.322913,0.34106 -0.496092,0.34106 -0.496092,0.8785 0,0.48059 0.248046,0.75447 0.248046,0.27388 0.873329,0.41858 0.330728,0.0723 0.940508,0.1757 0.60978,0.10335 1.033526,0.21187 0.857826,0.22737 1.291906,0.68729 0.434081,0.45992 0.434081,1.28674 z"
         style="stroke-width:0.264583"
         id="path118" />
      <path
         d="m 28.68181,179.65028 h -1.32808 l -2.573478,-3.05923 h -1.441768 v 3.05923 h -1.02319 v -7.69459 h 2.154901 q 0.697629,0 1.162716,0.093 0.465086,0.0879 0.837155,0.3204 0.418578,0.26355 0.651121,0.66662 0.237711,0.39791 0.237711,1.01286 0,0.83198 -0.418578,1.39526 -0.418578,0.5581 -1.152381,0.84232 z m -2.392611,-5.52936 q 0,-0.33072 -0.118855,-0.58394 -0.113688,-0.25838 -0.382405,-0.43408 -0.222208,-0.14986 -0.527098,-0.2067 -0.30489,-0.062 -0.7183,-0.062 h -1.204057 v 2.90421 h 1.033526 q 0.485757,0 0.84749,-0.0827 0.361734,-0.0879 0.614948,-0.32039 0.232543,-0.21704 0.341063,-0.4961 0.113688,-0.28422 0.113688,-0.7183 z"
         style="stroke-width:0.264583"
         id="path120" />
    </g>
    <g
       aria-label="Clock"
       id="text82"
       style="font-style:normal;font-weight:normal;font-size:10.5833px;line-height:1.25;font-family:sans-serif;display:inline;fill:#000000;fill-opacity:1;stroke:none;stroke-width:0.264583"
       transform="translate(-2.1007626,59.494966)">
      <path
         d="m 13.041738,201.81242 q -0.113688,0.0496 -0.206705,0.093 -0.09095,0.0434 -0.239779,0.0909 -0.12609,0.0393 -0.274918,0.0661 -0.146761,0.0289 -0.324528,0.0289 -0.334863,0 -0.609781,-0.093 -0.272852,-0.0951 -0.475423,-0.29559 -0.198438,-0.19637 -0.310059,-0.49816 -0.111621,-0.30385 -0.111621,-0.70486 0,-0.38034 0.107487,-0.68006 0.107487,-0.29973 0.310059,-0.50643 0.19637,-0.20051 0.473355,-0.30593 0.279053,-0.10542 0.61805,-0.10542 0.248047,0 0.494026,0.06 0.248047,0.0599 0.549837,0.21084 v 0.48576 h -0.03101 q -0.254248,-0.21291 -0.504361,-0.31006 -0.250114,-0.0971 -0.535368,-0.0971 -0.233577,0 -0.421679,0.0765 -0.186035,0.0744 -0.332796,0.23357 -0.142627,0.15503 -0.223242,0.39274 -0.07855,0.23565 -0.07855,0.54571 0,0.32453 0.08682,0.5581 0.08888,0.23358 0.227376,0.38034 0.144694,0.15296 0.33693,0.22738 0.194304,0.0723 0.409277,0.0723 0.295589,0 0.553971,-0.10128 0.258382,-0.10129 0.483691,-0.30386 h 0.02894 z"
         style="font-style:normal;font-variant:normal;font-weight:normal;font-stretch:normal;font-size:4.23333px;font-family:sans-serif;-inkscape-font-specification:'sans-serif, Normal';font-variant-ligatures:normal;font-variant-caps:normal;font-variant-numeric:normal;font-variant-east-asian:normal;stroke-width:0.264583"
         id="path122" />
      <path
         d="m 13.986383,202.03566 h -0.388607 v -3.21634 h 0.388607 z"
         style="font-style:normal;font-variant:normal;font-weight:normal;font-stretch:normal;font-size:4.23333px;font-family:sans-serif;-inkscape-font-specification:'sans-serif, Normal';font-variant-ligatures:normal;font-variant-caps:normal;font-variant-numeric:normal;font-variant-east-asian:normal;stroke-width:0.264583"
         id="path124" />
      <path
         d="m 16.727298,200.88224 q 0,0.56431 -0.289387,0.8909 -0.289388,0.3266 -0.775146,0.3266 -0.489892,0 -0.77928,-0.3266 -0.287321,-0.32659 -0.287321,-0.8909 0,-0.5643 0.287321,-0.8909 0.289388,-0.32866 0.77928,-0.32866 0.485758,0 0.775146,0.32866 0.289387,0.3266 0.289387,0.8909 z m -0.401008,0 q 0,-0.44855 -0.1757,-0.66559 -0.1757,-0.21911 -0.487825,-0.21911 -0.31626,0 -0.49196,0.21911 -0.173632,0.21704 -0.173632,0.66559 0,0.43408 0.1757,0.65939 0.175699,0.22325 0.489892,0.22325 0.310058,0 0.485758,-0.22118 0.177767,-0.22324 0.177767,-0.66146 z"
         style="font-style:normal;font-variant:normal;font-weight:normal;font-stretch:normal;font-size:4.23333px;font-family:sans-serif;-inkscape-font-specification:'sans-serif, Normal';font-variant-ligatures:normal;font-variant-caps:normal;font-variant-numeric:normal;font-variant-east-asian:normal;stroke-width:0.264583"
         id="path126" />
      <path
         d="m 19.038266,201.89097 q -0.194303,0.093 -0.370003,0.14469 -0.173632,0.0517 -0.370003,0.0517 -0.250113,0 -0.458886,-0.0724 -0.208773,-0.0744 -0.357601,-0.22324 -0.150895,-0.14883 -0.233577,-0.37621 -0.08268,-0.22737 -0.08268,-0.53123 0,-0.56637 0.310058,-0.88883 0.312126,-0.32246 0.822688,-0.32246 0.198438,0 0.388607,0.0558 0.192236,0.0558 0.351399,0.13642 v 0.43202 h -0.02067 q -0.177767,-0.1385 -0.367936,-0.21291 -0.188102,-0.0744 -0.367936,-0.0744 -0.330729,0 -0.522965,0.22324 -0.190169,0.22117 -0.190169,0.65112 0,0.41755 0.186035,0.64285 0.188102,0.22325 0.527099,0.22325 0.117822,0 0.239778,-0.031 0.121957,-0.031 0.219108,-0.0806 0.08475,-0.0434 0.159163,-0.091 0.07441,-0.0496 0.117823,-0.0847 h 0.02067 z"
         style="font-style:normal;font-variant:normal;font-weight:normal;font-stretch:normal;font-size:4.23333px;font-family:sans-serif;-inkscape-font-specification:'sans-serif, Normal';font-variant-ligatures:normal;font-variant-caps:normal;font-variant-numeric:normal;font-variant-east-asian:normal;stroke-width:0.264583"
         id="path128" />
      <path
         d="m 21.634488,202.03566 h -0.512629 l -0.926041,-1.01079 -0.252181,0.23978 v 0.77101 h -0.388606 v -3.21634 h 0.388606 v 2.06292 l 1.122411,-1.15548 h 0.489892 l -1.072802,1.0666 z"
         style="font-style:normal;font-variant:normal;font-weight:normal;font-stretch:normal;font-size:4.23333px;font-family:sans-serif;-inkscape-font-specification:'sans-serif, Normal';font-variant-ligatures:normal;font-variant-caps:normal;font-variant-numeric:normal;font-variant-east-asian:normal;stroke-width:0.264583"
         id="path130" />
    </g>
    <g
       aria-label="Ext Clock"
       id="text86"
       style="font-style:normal;font-weight:normal;font-size:10.5833px;line-height:1.25;font-family:sans-serif;display:inline;fill:#000000;fill-opacity:1;stroke:none;stroke-width:0.264583"
       transform="translate(-1.8699792,55.993545)">
      <path
         d="M 8.5346684,228.4155 H 6.5068869 v -3.07785 h 2.0277815 v 0.3638 H 6.9161639 v 0.84336 h 1.6185045 v 0.3638 H 6.9161639 v 1.14309 h 1.6185045 z"
         style="font-style:normal;font-variant:normal;font-weight:normal;font-stretch:normal;font-size:4.23333px;font-family:sans-serif;-inkscape-font-specification:'sans-serif, Normal';font-variant-ligatures:normal;font-variant-caps:normal;font-variant-numeric:normal;font-variant-east-asian:normal;stroke-width:0.264583"
         id="path133" />
      <path
         d="m 11.153628,228.4155 h -0.489892 l -0.655257,-0.88677 -0.6593906,0.88677 H 8.8964032 l 0.9012362,-1.15135 -0.892968,-1.15755 h 0.4898922 l 0.6511224,0.87229 0.65319,-0.87229 h 0.454752 l -0.907438,1.13688 z"
         style="font-style:normal;font-variant:normal;font-weight:normal;font-stretch:normal;font-size:4.23333px;font-family:sans-serif;-inkscape-font-specification:'sans-serif, Normal';font-variant-ligatures:normal;font-variant-caps:normal;font-variant-numeric:normal;font-variant-east-asian:normal;stroke-width:0.264583"
         id="path135" />
      <path
         d="m 12.858949,228.39483 q -0.109554,0.0289 -0.239779,0.0475 -0.128157,0.0186 -0.229443,0.0186 -0.353466,0 -0.537434,-0.19017 -0.183968,-0.19017 -0.183968,-0.60978 v -1.22783 h -0.262516 v -0.32659 h 0.262516 v -0.66353 h 0.388606 v 0.66353 h 0.802018 v 0.32659 h -0.802018 v 1.05213 q 0,0.1819 0.0083,0.28526 0.0083,0.10128 0.05788,0.19016 0.04547,0.0827 0.124023,0.12196 0.08062,0.0372 0.243913,0.0372 0.09508,0 0.198437,-0.0269 0.103353,-0.0289 0.148828,-0.0476 h 0.02067 z"
         style="font-style:normal;font-variant:normal;font-weight:normal;font-stretch:normal;font-size:4.23333px;font-family:sans-serif;-inkscape-font-specification:'sans-serif, Normal';font-variant-ligatures:normal;font-variant-caps:normal;font-variant-numeric:normal;font-variant-east-asian:normal;stroke-width:0.264583"
         id="path137" />
      <path
         d="m 17.226637,228.19225 q -0.113688,0.0496 -0.206706,0.093 -0.09095,0.0434 -0.239778,0.0909 -0.12609,0.0393 -0.274918,0.0662 -0.146761,0.0289 -0.324528,0.0289 -0.334863,0 -0.609782,-0.093 -0.272851,-0.0951 -0.475422,-0.29559 -0.198438,-0.19637 -0.310059,-0.49816 -0.111621,-0.30386 -0.111621,-0.70487 0,-0.38033 0.107487,-0.68006 0.107487,-0.29972 0.310059,-0.50643 0.19637,-0.2005 0.473355,-0.30592 0.279053,-0.10542 0.61805,-0.10542 0.248047,0 0.494026,0.06 0.248047,0.0599 0.549837,0.21083 v 0.48576 h -0.03101 q -0.254248,-0.2129 -0.504361,-0.31006 -0.250114,-0.0971 -0.535368,-0.0971 -0.233577,0 -0.421679,0.0765 -0.186035,0.0744 -0.332796,0.23358 -0.142627,0.15503 -0.223242,0.39274 -0.07855,0.23565 -0.07855,0.5457 0,0.32453 0.08682,0.55811 0.08888,0.23358 0.227376,0.38034 0.144694,0.15296 0.33693,0.22737 0.194303,0.0724 0.409277,0.0724 0.295589,0 0.553971,-0.10128 0.258382,-0.10129 0.483691,-0.30386 h 0.02894 z"
         style="font-style:normal;font-variant:normal;font-weight:normal;font-stretch:normal;font-size:4.23333px;font-family:sans-serif;-inkscape-font-specification:'sans-serif, Normal';font-variant-ligatures:normal;font-variant-caps:normal;font-variant-numeric:normal;font-variant-east-asian:normal;stroke-width:0.264583"
         id="path139" />
      <path
         d="m 18.171282,228.4155 h -0.388607 v -3.21634 h 0.388607 z"
         style="font-style:normal;font-variant:normal;font-weight:normal;font-stretch:normal;font-size:4.23333px;font-family:sans-serif;-inkscape-font-specification:'sans-serif, Normal';font-variant-ligatures:normal;font-variant-caps:normal;font-variant-numeric:normal;font-variant-east-asian:normal;stroke-width:0.264583"
         id="path141" />
      <path
         d="m 20.912197,227.26208 q 0,0.56431 -0.289388,0.8909 -0.289387,0.3266 -0.775145,0.3266 -0.489893,0 -0.77928,-0.3266 -0.287321,-0.32659 -0.287321,-0.8909 0,-0.56431 0.287321,-0.8909 0.289387,-0.32866 0.77928,-0.32866 0.485758,0 0.775145,0.32866 0.289388,0.32659 0.289388,0.8909 z m -0.401009,0 q 0,-0.44855 -0.175699,-0.66559 -0.1757,-0.21911 -0.487825,-0.21911 -0.31626,0 -0.49196,0.21911 -0.173632,0.21704 -0.173632,0.66559 0,0.43408 0.175699,0.65939 0.1757,0.22324 0.489893,0.22324 0.310058,0 0.485758,-0.22117 0.177766,-0.22324 0.177766,-0.66146 z"
         style="font-style:normal;font-variant:normal;font-weight:normal;font-stretch:normal;font-size:4.23333px;font-family:sans-serif;-inkscape-font-specification:'sans-serif, Normal';font-variant-ligatures:normal;font-variant-caps:normal;font-variant-numeric:normal;font-variant-east-asian:normal;stroke-width:0.264583"
         id="path143" />
      <path
         d="m 23.223165,228.2708 q -0.194303,0.093 -0.370003,0.1447 -0.173633,0.0517 -0.370003,0.0517 -0.250114,0 -0.458886,-0.0723 -0.208773,-0.0744 -0.357601,-0.22325 -0.150895,-0.14882 -0.233577,-0.3762 -0.08268,-0.22738 -0.08268,-0.53123 0,-0.56638 0.310058,-0.88884 0.312125,-0.32246 0.822688,-0.32246 0.198437,0 0.388607,0.0558 0.192236,0.0558 0.351399,0.13643 v 0.43201 h -0.02067 q -0.177766,-0.13849 -0.367935,-0.2129 -0.188103,-0.0744 -0.367936,-0.0744 -0.330729,0 -0.522965,0.22324 -0.19017,0.22118 -0.19017,0.65113 0,0.41754 0.186035,0.64285 0.188103,0.22324 0.5271,0.22324 0.117822,0 0.239778,-0.031 0.121956,-0.031 0.219108,-0.0806 0.08475,-0.0434 0.159163,-0.0909 0.07441,-0.0496 0.117822,-0.0848 h 0.02067 z"
         style="font-style:normal;font-variant:normal;font-weight:normal;font-stretch:normal;font-size:4.23333px;font-family:sans-serif;-inkscape-font-specification:'sans-serif, Normal';font-variant-ligatures:normal;font-variant-caps:normal;font-variant-numeric:normal;font-variant-east-asian:normal;stroke-width:0.264583"
         id="path145" />
      <path
         d="m 25.819388,228.4155 h -0.51263 l -0.92604,-1.01079 -0.252181,0.23978 v 0.77101 H 23.73993 v -3.21634 h 0.388607 v 2.06292 l 1.122411,-1.15548 h 0.489892 l -1.072802,1.0666 z"
         style="font-style:normal;font-variant:normal;font-weight:normal;font-stretch:normal;font-size:4.23333px;font-family:sans-serif;-inkscape-font-specification:'sans-serif, Normal';font-variant-ligatures:normal;font-variant-caps:normal;font-variant-numeric:normal;font-variant-east-asian:normal;stroke-width:0.264583"
         id="path147" />
    </g>
    <g
       aria-label="Gate"
       id="text58"
       style="font-style:normal;font-weight:normal;font-size:10.5833px;line-height:1.25;font-family:sans-serif;display:inline;fill:#000000;fill-opacity:1;stroke:none;stroke-width:0.264583"
       transform="translate(19.982647,6.6145802)">
      <path
         d="m 13.720591,254.90815 q -0.252181,0.11576 -0.551904,0.20257 -0.297656,0.0848 -0.576708,0.0848 -0.359668,0 -0.659391,-0.0992 -0.299723,-0.0992 -0.510563,-0.29765 -0.212907,-0.20051 -0.328662,-0.50023 -0.115755,-0.30179 -0.115755,-0.70486 0,-0.73794 0.429948,-1.16376 0.432014,-0.42788 1.184423,-0.42788 0.262516,0 0.535367,0.0641 0.274918,0.062 0.591178,0.21291 v 0.48576 h -0.03721 q -0.06408,-0.0496 -0.186035,-0.13023 -0.121956,-0.0806 -0.239779,-0.13436 -0.142626,-0.0641 -0.324527,-0.10542 -0.179834,-0.0434 -0.409277,-0.0434 -0.516764,0 -0.818554,0.3328 -0.299723,0.33073 -0.299723,0.8971 0,0.59738 0.314192,0.93018 0.314192,0.33073 0.855761,0.33073 0.198437,0 0.394808,-0.0393 0.198437,-0.0393 0.347265,-0.10128 v -0.75448 H 12.49069 v -0.35967 h 1.229898 z"
         style="font-style:normal;font-variant:normal;font-weight:normal;font-stretch:normal;font-size:4.23333px;font-family:sans-serif;-inkscape-font-specification:'sans-serif, Normal';font-variant-ligatures:normal;font-variant-caps:normal;font-variant-numeric:normal;font-variant-east-asian:normal;stroke-width:0.264583"
         id="path150" />
      <path
         d="m 16.198991,255.13553 h -0.38654 v -0.24598 q -0.05168,0.0351 -0.14056,0.0992 -0.08682,0.062 -0.169498,0.0992 -0.09715,0.0475 -0.223242,0.0785 -0.126091,0.0331 -0.295589,0.0331 -0.312125,0 -0.529166,-0.20671 -0.217041,-0.2067 -0.217041,-0.5271 0,-0.26251 0.111621,-0.42374 0.113688,-0.1633 0.322461,-0.25632 0.210839,-0.093 0.506428,-0.12609 0.295589,-0.0331 0.634586,-0.0496 v -0.0599 q 0,-0.13229 -0.04754,-0.21911 -0.04547,-0.0868 -0.132292,-0.13643 -0.08268,-0.0475 -0.198437,-0.0641 -0.115755,-0.0165 -0.241845,-0.0165 -0.152963,0 -0.341065,0.0413 -0.188102,0.0393 -0.388606,0.11575 h -0.02067 v -0.3948 q 0.113688,-0.031 0.328662,-0.0682 0.214974,-0.0372 0.423747,-0.0372 0.243912,0 0.423746,0.0413 0.181901,0.0393 0.314192,0.13642 0.130225,0.0951 0.198438,0.24598 0.06821,0.1509 0.06821,0.37414 z m -0.38654,-0.56844 v -0.64286 q -0.177767,0.0103 -0.419612,0.031 -0.239779,0.0207 -0.380338,0.0599 -0.167432,0.0476 -0.270785,0.14883 -0.103352,0.0992 -0.103352,0.27492 0,0.19844 0.119889,0.29972 0.119889,0.0992 0.365869,0.0992 0.204638,0 0.374137,-0.0786 0.169498,-0.0806 0.314192,-0.19223 z"
         style="font-style:normal;font-variant:normal;font-weight:normal;font-stretch:normal;font-size:4.23333px;font-family:sans-serif;-inkscape-font-specification:'sans-serif, Normal';font-variant-ligatures:normal;font-variant-caps:normal;font-variant-numeric:normal;font-variant-east-asian:normal;stroke-width:0.264583"
         id="path152" />
      <path
         d="m 18.150291,255.11486 q -0.109554,0.0289 -0.239778,0.0475 -0.128158,0.0186 -0.229444,0.0186 -0.353466,0 -0.537434,-0.19017 -0.183968,-0.19016 -0.183968,-0.60978 v -1.22783 h -0.262516 v -0.32659 h 0.262516 v -0.66353 h 0.388607 v 0.66353 h 0.802017 v 0.32659 h -0.802017 v 1.05213 q 0,0.1819 0.0083,0.28526 0.0083,0.10128 0.05788,0.19017 0.04548,0.0827 0.124024,0.12195 0.08061,0.0372 0.243912,0.0372 0.09509,0 0.198438,-0.0269 0.103352,-0.0289 0.148828,-0.0475 h 0.02067 z"
         style="font-style:normal;font-variant:normal;font-weight:normal;font-stretch:normal;font-size:4.23333px;font-family:sans-serif;-inkscape-font-specification:'sans-serif, Normal';font-variant-ligatures:normal;font-variant-caps:normal;font-variant-numeric:normal;font-variant-east-asian:normal;stroke-width:0.264583"
         id="path154" />
      <path
         d="M 20.554277,254.02139 H 18.85309 q 0,0.2129 0.06408,0.37207 0.06408,0.15709 0.175699,0.25838 0.107487,0.0992 0.254248,0.14883 0.148828,0.0496 0.326595,0.0496 0.235644,0 0.473356,-0.093 0.239778,-0.0951 0.341064,-0.18604 h 0.02067 v 0.42375 q -0.19637,0.0827 -0.401008,0.13849 -0.204639,0.0558 -0.429948,0.0558 -0.574641,0 -0.897102,-0.31006 -0.322461,-0.31212 -0.322461,-0.8847 0,-0.56637 0.307992,-0.89917 0.310058,-0.33279 0.814419,-0.33279 0.467155,0 0.719336,0.27285 0.254248,0.27285 0.254248,0.77515 z m -0.378272,-0.29766 q -0.0021,-0.30592 -0.155029,-0.47336 -0.150895,-0.16743 -0.460953,-0.16743 -0.312126,0 -0.498161,0.18397 -0.183967,0.18397 -0.208772,0.45682 z"
         style="font-style:normal;font-variant:normal;font-weight:normal;font-stretch:normal;font-size:4.23333px;font-family:sans-serif;-inkscape-font-specification:'sans-serif, Normal';font-variant-ligatures:normal;font-variant-caps:normal;font-variant-numeric:normal;font-variant-east-asian:normal;stroke-width:0.264583"
         id="path156" />
    </g>
    <g
       aria-label="1V/oct"
       style="font-style:normal;font-variant:normal;font-weight:300;font-stretch:normal;font-size:4.93889px;line-height:6.61458px;font-family:'Gotham Rounded';-inkscape-font-specification:'Gotham Rounded Light';font-variant-ligatures:normal;font-variant-caps:normal;font-variant-numeric:normal;font-feature-settings:normal;text-align:center;letter-spacing:0px;word-spacing:0px;writing-mode:lr-tb;text-anchor:middle;display:inline;fill:#000000;fill-opacity:1;stroke:none;stroke-width:0.264583px;stroke-linecap:butt;stroke-linejoin:miter;stroke-opacity:1"
       id="text4948"
       transform="translate(20.508591,34.05565)">
      <path
         d="m 9.6908279,252.06539 c 0,0.0593 0.0508,0.11007 0.1100667,0.11007 0.059267,0 0.1058333,-0.0508 0.1058333,-0.11007 v -2.794 c 0,-0.055 -0.0381,-0.10583 -0.1058333,-0.10583 h -0.00847 c -0.046567,0 -0.0889,0.0127 -0.1354666,0.0296 l -0.5164667,0.1905 c -0.046567,0.0169 -0.080433,0.0423 -0.080433,0.0931 0,0.0508 0.042333,0.0931 0.093133,0.0931 0.016933,0 0.033867,-0.004 0.055033,-0.0127 l 0.4826,-0.1651 z"
         style="font-style:normal;font-variant:normal;font-weight:300;font-stretch:normal;font-size:4.23333px;font-family:'Gotham Rounded';-inkscape-font-specification:'Gotham Rounded Light';text-align:center;text-anchor:middle;stroke-width:0.264583px"
         id="path5057"
         inkscape:connector-curvature="0" />
      <path
         d="m 11.938463,252.18816 h 0.0085 c 0.06773,0 0.105833,-0.0381 0.131233,-0.0974 l 1.210733,-2.7686 c 0.0085,-0.0169 0.0085,-0.0254 0.0085,-0.0423 0,-0.0508 -0.04657,-0.1016 -0.105833,-0.1016 -0.0508,0 -0.0889,0.0381 -0.110067,0.0847 l -1.134533,2.65854 -1.1303,-2.6543 c -0.02117,-0.0508 -0.05927,-0.0889 -0.1143,-0.0889 -0.0635,0 -0.110067,0.055 -0.110067,0.10583 0,0.0212 0,0.0296 0.0085,0.0466 l 1.2065,2.76013 c 0.0254,0.0593 0.0635,0.0974 0.131233,0.0974 z"
         style="font-style:normal;font-variant:normal;font-weight:300;font-stretch:normal;font-size:4.23333px;font-family:'Gotham Rounded';-inkscape-font-specification:'Gotham Rounded Light';text-align:center;text-anchor:middle;stroke-width:0.264583px"
         id="path5059"
         inkscape:connector-curvature="0" />
      <path
         d="m 13.000435,252.62842 c 0,0.0508 0.0381,0.0889 0.0889,0.0889 0.04233,0 0.07197,-0.0254 0.0889,-0.0593 l 1.913466,-3.75074 c 0.0085,-0.0169 0.0127,-0.0381 0.0127,-0.055 0,-0.0508 -0.0381,-0.0889 -0.0889,-0.0889 -0.04233,0 -0.07197,0.0254 -0.0889,0.0593 l -1.913466,3.75073 c -0.0085,0.0169 -0.0127,0.0381 -0.0127,0.055 z"
         style="font-style:normal;font-variant:normal;font-weight:300;font-stretch:normal;font-size:4.23333px;font-family:'Gotham Rounded';-inkscape-font-specification:'Gotham Rounded Light';text-align:center;text-anchor:middle;stroke-width:0.264583px"
         id="path5061"
         inkscape:connector-curvature="0" />
      <path
         d="m 16.153937,252.20932 c 0.643467,0 1.113367,-0.52493 1.113367,-1.1303 v -0.008 c 0,-0.60537 -0.465667,-1.12184 -1.1049,-1.12184 -0.643467,0 -1.113367,0.52494 -1.113367,1.1303 v 0.008 c 0,0.60537 0.465667,1.12183 1.1049,1.12183 z m 0.0085,-0.19473 c -0.499534,0 -0.889,-0.41487 -0.889,-0.93557 v -0.008 c 0,-0.508 0.3683,-0.9271 0.880533,-0.9271 0.499533,0 0.889,0.41486 0.889,0.93556 v 0.008 c 0,0.508 -0.3683,0.9271 -0.880533,0.9271 z"
         style="font-style:normal;font-variant:normal;font-weight:300;font-stretch:normal;font-size:4.23333px;font-family:'Gotham Rounded';-inkscape-font-specification:'Gotham Rounded Light';text-align:center;text-anchor:middle;stroke-width:0.264583px"
         id="path5063"
         inkscape:connector-curvature="0" />
      <path
         d="m 18.861683,252.20932 c 0.3683,0 0.618066,-0.1524 0.833966,-0.37253 0.01693,-0.0169 0.0254,-0.0423 0.0254,-0.0635 0,-0.0508 -0.0508,-0.1016 -0.1016,-0.1016 -0.02963,0 -0.0508,0.0169 -0.06773,0.0339 -0.173567,0.17356 -0.397933,0.30903 -0.677333,0.30903 -0.4953,0 -0.889,-0.41487 -0.889,-0.93557 v -0.008 c 0,-0.51647 0.381,-0.9271 0.872066,-0.9271 0.2921,0 0.4953,0.1397 0.668867,0.3048 0.01693,0.0169 0.04657,0.0254 0.07197,0.0254 0.05927,0 0.105834,-0.0466 0.105834,-0.10584 0,-0.0296 -0.0127,-0.0593 -0.02963,-0.0762 -0.194733,-0.18203 -0.440266,-0.3429 -0.812799,-0.3429 -0.618067,0 -1.100667,0.52494 -1.100667,1.1303 v 0.008 c 0,0.60537 0.478367,1.12183 1.100667,1.12183 z"
         style="font-style:normal;font-variant:normal;font-weight:300;font-stretch:normal;font-size:4.23333px;font-family:'Gotham Rounded';-inkscape-font-specification:'Gotham Rounded Light';text-align:center;text-anchor:middle;stroke-width:0.264583px"
         id="path5065"
         inkscape:connector-curvature="0" />
      <path
         d="m 21.043172,252.19662 c 0.122767,0 0.220133,-0.0254 0.3048,-0.055 0.04233,-0.0169 0.06773,-0.0466 0.06773,-0.0889 0,-0.0508 -0.04657,-0.0931 -0.09313,-0.0931 -0.02963,0 -0.09737,0.0423 -0.245533,0.0423 -0.249767,0 -0.4318,-0.11007 -0.4318,-0.4191 v -1.39277 h 0.677333 c 0.0508,0 0.09737,-0.0423 0.09737,-0.0931 0,-0.0508 -0.04657,-0.0974 -0.09737,-0.0974 h -0.677333 v -0.60113 c 0,-0.0593 -0.04657,-0.10583 -0.105834,-0.10583 -0.05927,0 -0.1016,0.0466 -0.1016,0.10583 v 0.60113 h -0.232833 c -0.0508,0 -0.09737,0.0423 -0.09737,0.0931 0,0.0508 0.04657,0.0974 0.09737,0.0974 h 0.232833 v 1.41394 c 0,0.41063 0.270934,0.59266 0.605367,0.59266 z"
         style="font-style:normal;font-variant:normal;font-weight:300;font-stretch:normal;font-size:4.23333px;font-family:'Gotham Rounded';-inkscape-font-specification:'Gotham Rounded Light';text-align:center;text-anchor:middle;stroke-width:0.264583px"
         id="path5067"
         inkscape:connector-curvature="0" />
    </g>
    <path
       inkscape:connector-curvature="0"
       id="path36593"
       d="m 40.182654,246.97183 c 0,-0.43021 -0.417593,-0.78279 -0.928695,-0.78279 h -7.141332 c -0.511103,0 -0.929973,0.35258 -0.929973,0.78279 v 9.5239 c 0,0.43021 0.41887,0.78279 0.929973,0.78279 h 7.141332 c 0.511102,0 0.928695,-0.35258 0.928695,-0.78279 z m 0,0"
       style="display:inline;fill:#000000;fill-opacity:1;fill-rule:nonzero;stroke:none;stroke-width:0.300857" />
    <path
       inkscape:connector-curvature="0"
       id="path36593-0"
       d="m 40.286394,271.31669 c 0,-0.43021 -0.417594,-0.78279 -0.928698,-0.78279 h -7.14133 c -0.511104,0 -0.929972,0.35258 -0.929972,0.78279 v 9.5239 c 0,0.43021 0.418868,0.78279 0.929972,0.78279 h 7.14133 c 0.511104,0 0.928698,-0.35258 0.928698,-0.78279 z m 0,0"
       style="display:inline;fill:#000000;fill-opacity:1;fill-rule:nonzero;stroke:none;stroke-width:0.300855" />
    <text
       xml:space="preserve"
       style="font-style:normal;font-weight:normal;font-size:10.5833px;line-height:1.25;font-family:sans-serif;fill:#000000;fill-opacity:1;stroke:none;stroke-width:0.264583"
       x="8.0180855"
       y="192.0197"
       id="text119"><tspan
         sodipodi:role="line"
         id="tspan117"
         x="8.0180855"
         y="192.0197"
         style="stroke-width:0.264583" /></text>
    <text
       xml:space="preserve"
       style="font-size:3.52777px;line-height:1.25;font-family:sans-serif;-inkscape-font-specification:'sans-serif, Normal';stroke-width:0.264583"
       x="12.828938"
       y="199.77051"
       id="text123"><tspan
         sodipodi:role="line"
         id="tspan121"
         x="12.828938"
         y="199.77051"
         style="stroke-width:0.264583" /></text>
    <g
       aria-label="Maj"
       transform="translate(0,169.55832)"
       id="text1549"
       style="font-size:5.29167px;line-height:1.25;font-family:sans-serif;-inkscape-font-specification:'sans-serif, Normal';display:inline;opacity:1;stroke-width:0.264583">
      <path
         d="m 40.579264,34.623249 h -0.272851 v -1.768022 l -0.570508,1.203027 h -0.162608 l -0.566373,-1.203027 v 1.768022 h -0.254937 v -2.051897 h 0.37207 l 0.547081,1.142393 0.529166,-1.142393 h 0.37896 z"
         style="font-style:normal;font-variant:normal;font-weight:normal;font-stretch:normal;font-size:2.82222px;font-family:sans-serif;-inkscape-font-specification:'sans-serif, Normal';font-variant-ligatures:normal;font-variant-caps:normal;font-variant-numeric:normal;font-variant-east-asian:normal;stroke-width:0.264583"
         id="path1725" />
      <path
         d="m 42.308701,34.623249 h -0.257693 v -0.163986 q -0.03445,0.02343 -0.09371,0.06614 -0.05788,0.04134 -0.112999,0.06615 -0.06477,0.03169 -0.148828,0.05237 -0.08406,0.02205 -0.197059,0.02205 -0.208084,0 -0.352778,-0.137804 -0.144694,-0.137803 -0.144694,-0.351399 0,-0.175011 0.07442,-0.282498 0.07579,-0.108865 0.214973,-0.170876 0.14056,-0.06201 0.337619,-0.08406 0.19706,-0.02205 0.423058,-0.03307 v -0.03996 q 0,-0.08819 -0.0317,-0.146072 -0.03032,-0.05788 -0.08819,-0.09095 -0.05512,-0.0317 -0.132292,-0.04272 -0.07717,-0.01102 -0.16123,-0.01102 -0.101975,0 -0.227376,0.02756 -0.125402,0.02618 -0.259071,0.07717 h -0.01378 v -0.263206 q 0.07579,-0.02067 0.219108,-0.04548 0.143316,-0.0248 0.282498,-0.0248 0.162608,0 0.282497,0.02756 0.121268,0.02618 0.209462,0.09095 0.08682,0.06339 0.132292,0.163986 0.04547,0.100597 0.04547,0.249425 z m -0.257693,-0.37896 v -0.42857 q -0.118511,0.0069 -0.279742,0.02067 -0.159852,0.01378 -0.253559,0.03996 -0.111621,0.03169 -0.180522,0.09922 -0.0689,0.06614 -0.0689,0.183279 0,0.132291 0.07993,0.199815 0.07993,0.06615 0.243912,0.06615 0.136426,0 0.249425,-0.05237 0.112999,-0.05374 0.209462,-0.128157 z"
         style="font-style:normal;font-variant:normal;font-weight:normal;font-stretch:normal;font-size:2.82222px;font-family:sans-serif;-inkscape-font-specification:'sans-serif, Normal';font-variant-ligatures:normal;font-variant-caps:normal;font-variant-numeric:normal;font-variant-east-asian:normal;stroke-width:0.264583"
         id="path1727" />
      <path
         d="m 43.289863,32.826289 h -0.292144 v -0.268718 h 0.292144 z m -0.01654,1.834167 q 0,0.270095 -0.137804,0.407899 -0.137804,0.137804 -0.369314,0.137804 -0.05512,0 -0.146072,-0.01102 -0.08957,-0.01102 -0.150206,-0.02756 V 34.92091 h 0.01378 q 0.03858,0.01516 0.103353,0.03445 0.06615,0.01929 0.128158,0.01929 0.09922,0 0.159852,-0.02756 0.06063,-0.02756 0.09095,-0.08268 0.03032,-0.05512 0.03859,-0.13367 0.0096,-0.07717 0.0096,-0.188791 v -1.240234 h -0.321083 v -0.217729 h 0.580154 z"
         style="font-style:normal;font-variant:normal;font-weight:normal;font-stretch:normal;font-size:2.82222px;font-family:sans-serif;-inkscape-font-specification:'sans-serif, Normal';font-variant-ligatures:normal;font-variant-caps:normal;font-variant-numeric:normal;font-variant-east-asian:normal;stroke-width:0.264583"
         id="path1729" />
    </g>
    <g
       aria-label="Min"
       transform="translate(0,169.55832)"
       id="text1557"
       style="font-size:5.29167px;line-height:1.25;font-family:sans-serif;-inkscape-font-specification:'sans-serif, Normal';display:inline;opacity:1;stroke-width:0.264583">
      <path
         d="m 40.635764,46.606445 h -0.272852 v -1.768021 l -0.570507,1.203026 h -0.162609 l -0.566373,-1.203026 v 1.768021 h -0.254937 v -2.051897 h 0.37207 l 0.547081,1.142393 0.529166,-1.142393 h 0.378961 z"
         style="font-style:normal;font-variant:normal;font-weight:normal;font-stretch:normal;font-size:2.82222px;font-family:sans-serif;-inkscape-font-specification:'sans-serif, Normal';font-variant-ligatures:normal;font-variant-caps:normal;font-variant-numeric:normal;font-variant-east-asian:normal;stroke-width:0.264583"
         id="path1732" />
      <path
         d="m 41.447427,44.809485 h -0.292143 v -0.268717 h 0.292143 z m -0.01654,1.79696 H 41.17182 v -1.539267 h 0.259071 z"
         style="font-style:normal;font-variant:normal;font-weight:normal;font-stretch:normal;font-size:2.82222px;font-family:sans-serif;-inkscape-font-specification:'sans-serif, Normal';font-variant-ligatures:normal;font-variant-caps:normal;font-variant-numeric:normal;font-variant-east-asian:normal;stroke-width:0.264583"
         id="path1734" />
      <path
         d="m 43.233364,46.606445 h -0.259071 v -0.876431 q 0,-0.106109 -0.0124,-0.198438 -0.0124,-0.09371 -0.04547,-0.146072 -0.03445,-0.05788 -0.09922,-0.08544 -0.06477,-0.02894 -0.16812,-0.02894 -0.106109,0 -0.221864,0.05237 -0.115755,0.05237 -0.221864,0.133669 v 1.149283 h -0.259071 v -1.539267 h 0.259071 v 0.170876 q 0.121267,-0.100596 0.250803,-0.157096 0.129535,-0.0565 0.265961,-0.0565 0.249424,0 0.380338,0.150206 0.130914,0.150206 0.130914,0.432703 z"
         style="font-style:normal;font-variant:normal;font-weight:normal;font-stretch:normal;font-size:2.82222px;font-family:sans-serif;-inkscape-font-specification:'sans-serif, Normal';font-variant-ligatures:normal;font-variant-caps:normal;font-variant-numeric:normal;font-variant-east-asian:normal;stroke-width:0.264583"
         id="path1736" />
    </g>
    <g
       aria-label="Key"
       id="text808"
       style="font-size:5.29167px;line-height:1.25;font-family:sans-serif;-inkscape-font-specification:'sans-serif, Normal';stroke-width:0.264583"
       transform="translate(0,2.6458334)">
      <path
         d="m 24.364748,214.97447 h -0.442695 l -1.014581,-1.14205 -0.254937,0.27216 v 0.86989 H 22.31147 v -2.56487 h 0.341065 v 1.33842 l 1.245402,-1.33842 h 0.413412 l -1.145495,1.20578 z"
         style="font-style:normal;font-variant:normal;font-weight:normal;font-stretch:normal;font-size:3.52778px;font-family:sans-serif;-inkscape-font-specification:'sans-serif, Normal';font-variant-ligatures:normal;font-variant-caps:normal;font-variant-numeric:normal;font-variant-east-asian:normal;stroke-width:0.264583"
         id="path834" />
      <path
         d="m 26.333621,214.04602 h -1.417657 q 0,0.17742 0.0534,0.31006 0.0534,0.13091 0.146416,0.21532 0.08957,0.0827 0.211874,0.12402 0.124023,0.0413 0.272163,0.0413 0.19637,0 0.394463,-0.0775 0.199816,-0.0792 0.284221,-0.15503 h 0.01722 v 0.35312 q -0.163642,0.0689 -0.334174,0.11541 -0.170532,0.0465 -0.35829,0.0465 -0.478869,0 -0.747586,-0.25838 -0.268718,-0.26011 -0.268718,-0.73725 0,-0.47198 0.25666,-0.74931 0.258382,-0.27733 0.678684,-0.27733 0.389296,0 0.599447,0.22737 0.211873,0.22738 0.211873,0.64596 z m -0.315226,-0.24805 q -0.0017,-0.25494 -0.129191,-0.39446 -0.125746,-0.13953 -0.384129,-0.13953 -0.260104,0 -0.415134,0.15331 -0.153307,0.1533 -0.173977,0.38068 z"
         style="font-style:normal;font-variant:normal;font-weight:normal;font-stretch:normal;font-size:3.52778px;font-family:sans-serif;-inkscape-font-specification:'sans-serif, Normal';font-variant-ligatures:normal;font-variant-caps:normal;font-variant-numeric:normal;font-variant-east-asian:normal;stroke-width:0.264583"
         id="path836" />
      <path
         d="m 28.48853,213.05038 -1.123102,2.63378 h -0.346232 l 0.35829,-0.80271 -0.766534,-1.83107 h 0.3514 l 0.590834,1.42628 0.596002,-1.42628 z"
         style="font-style:normal;font-variant:normal;font-weight:normal;font-stretch:normal;font-size:3.52778px;font-family:sans-serif;-inkscape-font-specification:'sans-serif, Normal';font-variant-ligatures:normal;font-variant-caps:normal;font-variant-numeric:normal;font-variant-east-asian:normal;stroke-width:0.264583"
         id="path838" />
    </g>
    <g
       aria-label="Range"
       id="text843"
       style="font-size:5.29167px;line-height:1.25;font-family:sans-serif;-inkscape-font-specification:'sans-serif, Normal';stroke-width:0.264583"
       transform="translate(0.431584,7.1499227)">
      <path
         d="m 22.430071,220.73413 h -0.354155 l -0.686263,-0.8158 h -0.384472 v 0.8158 H 20.73233 v -2.0519 h 0.574641 q 0.186035,0 0.310059,0.0248 0.124023,0.0234 0.223242,0.0854 0.111621,0.0703 0.173632,0.17776 0.06339,0.10611 0.06339,0.2701 0,0.22186 -0.111621,0.37207 -0.111621,0.14883 -0.307302,0.22462 z m -0.638031,-1.4745 q 0,-0.0882 -0.03169,-0.15572 -0.03032,-0.0689 -0.101974,-0.11575 -0.05926,-0.04 -0.14056,-0.0551 -0.0813,-0.0165 -0.191547,-0.0165 h -0.321083 v 0.77446 h 0.275607 q 0.129536,0 0.225999,-0.022 0.09646,-0.0234 0.163986,-0.0854 0.06201,-0.0579 0.09095,-0.13229 0.03032,-0.0758 0.03032,-0.19155 z"
         style="font-style:normal;font-variant:normal;font-weight:normal;font-stretch:normal;font-size:2.82222px;font-family:sans-serif;-inkscape-font-specification:'sans-serif, Normal';font-variant-ligatures:normal;font-variant-caps:normal;font-variant-numeric:normal;font-variant-east-asian:normal;stroke-width:0.264583"
         id="path845" />
      <path
         d="m 23.87012,220.73413 h -0.257693 v -0.16399 q -0.03445,0.0234 -0.09371,0.0661 -0.05788,0.0413 -0.112999,0.0661 -0.06477,0.0317 -0.148828,0.0524 -0.08406,0.0221 -0.19706,0.0221 -0.208083,0 -0.352777,-0.1378 -0.144694,-0.13781 -0.144694,-0.3514 0,-0.17501 0.07441,-0.2825 0.07579,-0.10887 0.214974,-0.17088 0.14056,-0.062 0.337619,-0.0841 0.197059,-0.0221 0.423057,-0.0331 v -0.04 q 0,-0.0882 -0.03169,-0.14608 -0.03032,-0.0579 -0.08819,-0.091 -0.05512,-0.0317 -0.132292,-0.0427 -0.07717,-0.011 -0.16123,-0.011 -0.101975,0 -0.227376,0.0276 -0.125401,0.0262 -0.259071,0.0772 h -0.01378 v -0.2632 q 0.07579,-0.0207 0.219108,-0.0455 0.143315,-0.0248 0.282497,-0.0248 0.162609,0 0.282498,0.0276 0.121267,0.0262 0.209461,0.091 0.08682,0.0634 0.132292,0.16398 0.04547,0.1006 0.04547,0.24943 z m -0.257693,-0.37896 v -0.42857 q -0.118511,0.007 -0.279741,0.0207 -0.159853,0.0138 -0.253559,0.04 -0.111621,0.0317 -0.180523,0.0992 -0.0689,0.0661 -0.0689,0.18328 0,0.13229 0.07993,0.19982 0.07993,0.0661 0.243913,0.0661 0.136426,0 0.249425,-0.0524 0.112999,-0.0538 0.209461,-0.12816 z"
         style="font-style:normal;font-variant:normal;font-weight:normal;font-stretch:normal;font-size:2.82222px;font-family:sans-serif;-inkscape-font-specification:'sans-serif, Normal';font-variant-ligatures:normal;font-variant-caps:normal;font-variant-numeric:normal;font-variant-east-asian:normal;stroke-width:0.264583"
         id="path847" />
      <path
         d="m 25.658812,220.73413 h -0.259071 v -0.87643 q 0,-0.10611 -0.0124,-0.19844 -0.0124,-0.0937 -0.04547,-0.14607 -0.03445,-0.0579 -0.09922,-0.0854 -0.06477,-0.0289 -0.16812,-0.0289 -0.106109,0 -0.221864,0.0524 -0.115755,0.0524 -0.221864,0.13367 v 1.14928 h -0.259071 v -1.53927 h 0.259071 v 0.17088 q 0.121267,-0.1006 0.250802,-0.1571 0.129536,-0.0565 0.265962,-0.0565 0.249424,0 0.380338,0.15021 0.130913,0.15021 0.130913,0.4327 z"
         style="font-style:normal;font-variant:normal;font-weight:normal;font-stretch:normal;font-size:2.82222px;font-family:sans-serif;-inkscape-font-specification:'sans-serif, Normal';font-variant-ligatures:normal;font-variant-caps:normal;font-variant-numeric:normal;font-variant-east-asian:normal;stroke-width:0.264583"
         id="path849" />
      <path
         d="m 27.406164,220.55912 q 0,0.39136 -0.177767,0.57464 -0.177767,0.18328 -0.547081,0.18328 -0.122645,0 -0.239778,-0.0179 -0.115755,-0.0165 -0.228754,-0.0482 v -0.26458 h 0.01378 q 0.06339,0.0248 0.201193,0.0606 0.137804,0.0372 0.275608,0.0372 0.132291,0 0.219108,-0.0317 0.08682,-0.0317 0.135047,-0.0882 0.04823,-0.0537 0.0689,-0.12953 0.02067,-0.0758 0.02067,-0.1695 v -0.14056 q -0.117133,0.0937 -0.22462,0.14056 -0.106109,0.0455 -0.271474,0.0455 -0.275607,0 -0.438215,-0.19843 -0.161231,-0.19982 -0.161231,-0.56224 0,-0.19844 0.05512,-0.34176 0.0565,-0.14469 0.152962,-0.24942 0.08957,-0.0978 0.21773,-0.15158 0.128157,-0.0551 0.254937,-0.0551 0.133669,0 0.223242,0.0276 0.09095,0.0262 0.191547,0.0813 l 0.01654,-0.0661 h 0.242535 z m -0.259071,-0.24805 v -0.83922 q -0.103353,-0.0468 -0.192925,-0.0661 -0.08819,-0.0207 -0.176389,-0.0207 -0.213596,0 -0.336241,0.14332 -0.122646,0.14331 -0.122646,0.41617 0,0.25907 0.09095,0.39274 0.09095,0.13367 0.30179,0.13367 0.112999,0 0.225998,-0.0427 0.114377,-0.0441 0.209462,-0.11714 z"
         style="font-style:normal;font-variant:normal;font-weight:normal;font-stretch:normal;font-size:2.82222px;font-family:sans-serif;-inkscape-font-specification:'sans-serif, Normal';font-variant-ligatures:normal;font-variant-caps:normal;font-variant-numeric:normal;font-variant-east-asian:normal;stroke-width:0.264583"
         id="path851" />
      <path
         d="m 29.204502,219.99137 h -1.134125 q 0,0.14194 0.04272,0.24805 0.04272,0.10473 0.117133,0.17225 0.07166,0.0662 0.169498,0.0992 0.09922,0.0331 0.21773,0.0331 0.157096,0 0.315571,-0.062 0.159852,-0.0634 0.227376,-0.12402 h 0.01378 v 0.28249 q -0.130913,0.0551 -0.267339,0.0923 -0.136426,0.0372 -0.286632,0.0372 -0.383094,0 -0.598068,-0.20671 -0.214974,-0.20808 -0.214974,-0.5898 0,-0.37758 0.205328,-0.59944 0.206705,-0.22187 0.542946,-0.22187 0.311437,0 0.479557,0.18191 0.169499,0.1819 0.169499,0.51676 z m -0.252181,-0.19844 q -0.0014,-0.20395 -0.103353,-0.31557 -0.100596,-0.11162 -0.307302,-0.11162 -0.208083,0 -0.332107,0.12265 -0.122645,0.12264 -0.139182,0.30454 z"
         style="font-style:normal;font-variant:normal;font-weight:normal;font-stretch:normal;font-size:2.82222px;font-family:sans-serif;-inkscape-font-specification:'sans-serif, Normal';font-variant-ligatures:normal;font-variant-caps:normal;font-variant-numeric:normal;font-variant-east-asian:normal;stroke-width:0.264583"
         id="path853" />
    </g>
    <text
       xml:space="preserve"
       style="font-size:5.29167px;line-height:1.25;font-family:sans-serif;-inkscape-font-specification:'sans-serif, Normal';stroke-width:0.264583"
       x="11.785214"
       y="235.4312"
       id="text858"><tspan
         sodipodi:role="line"
         id="tspan856"
         x="11.785214"
         y="235.4312"
         style="font-style:normal;font-variant:normal;font-weight:normal;font-stretch:normal;font-size:2.82222px;font-family:sans-serif;-inkscape-font-specification:'sans-serif, Normal';font-variant-ligatures:normal;font-variant-caps:normal;font-variant-numeric:normal;font-variant-east-asian:normal;stroke-width:0.264583">Min</tspan></text>
    <text
       xml:space="preserve"
       style="font-size:5.29167px;line-height:1.25;font-family:sans-serif;-inkscape-font-specification:'sans-serif, Normal';stroke-width:0.264583"
       x="32.711613"
       y="235.40295"
       id="text862"><tspan
         sodipodi:role="line"
         id="tspan860"
         x="32.711613"
         y="235.40295"
         style="font-style:normal;font-variant:normal;font-weight:normal;font-stretch:normal;font-size:2.82222px;font-family:sans-serif;-inkscape-font-specification:'sans-serif, Normal';font-variant-ligatures:normal;font-variant-caps:normal;font-variant-numeric:normal;font-variant-east-asian:normal;stroke-width:0.264583">Max</tspan></text>
    <g
       aria-label="None"
       id="text866"
       style="font-size:5.29167px;line-height:1.25;font-family:sans-serif;-inkscape-font-specification:'sans-serif, Normal';display:inline;opacity:1;stroke-width:0.264583"
       transform="translate(-1.5875,170.14029)">
      <path
         d="m 19.422689,43.892582 h -0.211013 l -0.608059,-1.147218 v 1.147218 h -0.159336 v -1.282438 h 0.264411 l 0.554661,1.04731 v -1.04731 h 0.159336 z"
         style="font-style:normal;font-variant:normal;font-weight:normal;font-stretch:normal;font-size:1.76389px;font-family:sans-serif;-inkscape-font-specification:'sans-serif, Normal';font-variant-ligatures:normal;font-variant-caps:normal;font-variant-numeric:normal;font-variant-east-asian:normal;stroke-width:0.264583"
         id="path896" />
      <path
         d="m 20.570768,43.411991 q 0,0.235128 -0.120579,0.371209 -0.120578,0.136081 -0.322978,0.136081 -0.204122,0 -0.3247,-0.136081 -0.119717,-0.136081 -0.119717,-0.371209 0,-0.235128 0.119717,-0.371209 0.120578,-0.136943 0.3247,-0.136943 0.2024,0 0.322978,0.136943 0.120579,0.136081 0.120579,0.371209 z m -0.167088,0 q 0,-0.186897 -0.07321,-0.277331 -0.07321,-0.09129 -0.203261,-0.09129 -0.131775,0 -0.204983,0.09129 -0.07235,0.09043 -0.07235,0.277331 0,0.180867 0.07321,0.274746 0.07321,0.09302 0.204122,0.09302 0.129191,0 0.2024,-0.09216 0.07407,-0.09302 0.07407,-0.275608 z"
         style="font-style:normal;font-variant:normal;font-weight:normal;font-stretch:normal;font-size:1.76389px;font-family:sans-serif;-inkscape-font-specification:'sans-serif, Normal';font-variant-ligatures:normal;font-variant-caps:normal;font-variant-numeric:normal;font-variant-east-asian:normal;stroke-width:0.264583"
         id="path898" />
      <path
         d="m 21.62669,43.892582 h -0.16192 v -0.547771 q 0,-0.06632 -0.0078,-0.124023 -0.0078,-0.05857 -0.02842,-0.0913 -0.02153,-0.03617 -0.06201,-0.0534 -0.04048,-0.01809 -0.105075,-0.01809 -0.06632,0 -0.138666,0.03273 -0.07235,0.03273 -0.138665,0.08354 v 0.718303 H 20.82226 v -0.962044 h 0.161919 v 0.106798 q 0.07579,-0.06287 0.156752,-0.09819 0.08096,-0.03531 0.166226,-0.03531 0.155891,0 0.237712,0.09388 0.08182,0.09388 0.08182,0.27044 z"
         style="font-style:normal;font-variant:normal;font-weight:normal;font-stretch:normal;font-size:1.76389px;font-family:sans-serif;-inkscape-font-specification:'sans-serif, Normal';font-variant-ligatures:normal;font-variant-caps:normal;font-variant-numeric:normal;font-variant-east-asian:normal;stroke-width:0.264583"
         id="path900" />
      <path
         d="m 22.743763,43.428355 h -0.708829 q 0,0.08871 0.0267,0.155029 0.0267,0.06546 0.07321,0.10766 0.04479,0.04134 0.105937,0.06201 0.06201,0.02067 0.136081,0.02067 0.09819,0 0.197232,-0.03876 0.09991,-0.03962 0.14211,-0.07751 h 0.0086 v 0.176561 q -0.08182,0.03445 -0.167087,0.05771 -0.08527,0.02325 -0.179145,0.02325 -0.239435,0 -0.373793,-0.129191 -0.134359,-0.130053 -0.134359,-0.368626 0,-0.235989 0.12833,-0.374654 0.129191,-0.138665 0.339342,-0.138665 0.194648,0 0.299723,0.113688 0.105937,0.113688 0.105937,0.322978 z M 22.58615,43.304332 q -8.61e-4,-0.127469 -0.0646,-0.197232 -0.06287,-0.06976 -0.192064,-0.06976 -0.130052,0 -0.207567,0.07665 -0.07665,0.07665 -0.08699,0.190342 z"
         style="font-style:normal;font-variant:normal;font-weight:normal;font-stretch:normal;font-size:1.76389px;font-family:sans-serif;-inkscape-font-specification:'sans-serif, Normal';font-variant-ligatures:normal;font-variant-caps:normal;font-variant-numeric:normal;font-variant-east-asian:normal;stroke-width:0.264583"
         id="path902" />
    </g>
    <g
       aria-label="A"
       id="text870"
       style="font-size:1.76389px;line-height:1.25;font-family:sans-serif;-inkscape-font-specification:'sans-serif, Normal';display:inline;opacity:1;stroke-width:0.264583"
       transform="translate(0,168.89446)">
      <path
         d="M 19.654026,40.846786 H 19.472297 L 19.346551,40.489358 H 18.79189 l -0.125746,0.357428 h -0.173116 l 0.46681,-1.282437 h 0.227377 z m -0.360013,-0.503845 -0.224793,-0.629592 -0.225654,0.629592 z"
         style="stroke-width:0.264583"
         id="path905" />
    </g>
    <g
       aria-label="G"
       id="text874"
       style="font-size:1.76389px;line-height:1.25;font-family:sans-serif;-inkscape-font-specification:'sans-serif, Normal';display:inline;opacity:1;stroke-width:0.264583"
       transform="translate(-1.5875,171.14583)">
      <path
         d="m 31.827737,42.804796 q -0.105076,0.04823 -0.22996,0.0844 -0.124024,0.03531 -0.240296,0.03531 -0.149862,0 -0.274746,-0.04134 -0.124885,-0.04134 -0.212735,-0.124024 -0.08871,-0.08354 -0.136943,-0.208428 -0.04823,-0.125746 -0.04823,-0.293695 0,-0.307475 0.179145,-0.484897 0.180006,-0.178284 0.49351,-0.178284 0.109382,0 0.22307,0.0267 0.11455,0.02584 0.246325,0.08871 v 0.202399 h -0.0155 q -0.0267,-0.02067 -0.07751,-0.05426 -0.05082,-0.03359 -0.09991,-0.05598 -0.05943,-0.0267 -0.13522,-0.04393 -0.07493,-0.01809 -0.170532,-0.01809 -0.215319,0 -0.341065,0.138666 -0.124885,0.137804 -0.124885,0.373793 0,0.248908 0.130914,0.387573 0.130914,0.137804 0.356568,0.137804 0.08268,0 0.164503,-0.01636 0.08268,-0.01636 0.144694,-0.0422 v -0.314366 h -0.343648 v -0.149861 h 0.512458 z"
         style="stroke-width:0.264583"
         id="path923" />
    </g>
    <g
       aria-label="B"
       id="text878"
       style="font-size:1.76389px;line-height:1.25;font-family:sans-serif;-inkscape-font-specification:'sans-serif, Normal';display:inline;opacity:1;stroke-width:0.264583"
       transform="translate(0,169.02915)">
      <path
         d="m 21.000361,36.348193 q 0,0.0956 -0.03617,0.16881 -0.03617,0.07321 -0.09732,0.120578 -0.07235,0.05684 -0.159336,0.08096 -0.08613,0.02412 -0.219625,0.02412 h -0.45476 v -1.282438 h 0.379822 q 0.140388,0 0.210151,0.01033 0.06976,0.01034 0.133498,0.04306 0.07062,0.03703 0.102491,0.0956 0.03187,0.0577 0.03187,0.138665 0,0.0913 -0.04651,0.15589 -0.04651,0.06373 -0.124024,0.102492 v 0.0069 q 0.130052,0.0267 0.204983,0.11455 0.07493,0.08699 0.07493,0.220486 z m -0.286804,-0.577915 q 0,-0.04651 -0.0155,-0.07838 -0.0155,-0.03187 -0.04995,-0.05168 -0.04048,-0.02325 -0.09819,-0.02842 -0.05771,-0.006 -0.142972,-0.006 h -0.203261 v 0.370348 h 0.220487 q 0.0801,0 0.127468,-0.0078 0.04737,-0.0086 0.08785,-0.03445 0.04048,-0.02584 0.05684,-0.06632 0.01723,-0.04134 0.01723,-0.09732 z m 0.109382,0.584805 q 0,-0.07751 -0.02326,-0.123162 -0.02325,-0.04565 -0.08441,-0.07751 -0.04134,-0.02153 -0.100769,-0.02756 -0.05857,-0.0069 -0.142971,-0.0069 h -0.267857 v 0.477146 h 0.225654 q 0.111966,0 0.183452,-0.0112 0.07149,-0.01206 0.117133,-0.04306 0.04823,-0.03359 0.07062,-0.07665 0.02239,-0.04306 0.02239,-0.111105 z"
         style="stroke-width:0.264583"
         id="path908" />
    </g>
    <g
       aria-label="C"
       id="text882"
       style="font-size:1.76389px;line-height:1.25;font-family:sans-serif;-inkscape-font-specification:'sans-serif, Normal';display:inline;opacity:1;stroke-width:0.264583"
       transform="translate(0.52916664,168.63193)">
      <path
         d="m 23.605532,34.332992 q -0.04737,0.02067 -0.08613,0.03876 -0.0379,0.01809 -0.09991,0.0379 -0.05254,0.01636 -0.114549,0.02756 -0.06115,0.01206 -0.13522,0.01206 -0.139527,0 -0.254076,-0.03876 -0.113689,-0.03962 -0.198093,-0.123162 -0.08268,-0.08182 -0.129192,-0.207567 -0.04651,-0.126608 -0.04651,-0.293695 0,-0.158474 0.04479,-0.283359 0.04479,-0.124885 0.129191,-0.211012 0.08182,-0.08354 0.197232,-0.127469 0.116272,-0.04393 0.257521,-0.04393 0.103353,0 0.205844,0.02498 0.103353,0.02498 0.229099,0.08785 v 0.2024 h -0.01292 q -0.105936,-0.08871 -0.210151,-0.129192 -0.104214,-0.04048 -0.22307,-0.04048 -0.09732,0 -0.1757,0.03187 -0.07751,0.03101 -0.138665,0.09732 -0.05943,0.06459 -0.09302,0.163642 -0.03273,0.09819 -0.03273,0.227376 0,0.13522 0.03617,0.232544 0.03703,0.09732 0.09474,0.158475 0.06029,0.06373 0.140388,0.09474 0.08096,0.03014 0.170532,0.03014 0.123162,0 0.230821,-0.0422 0.10766,-0.0422 0.201539,-0.126607 h 0.01206 z"
         style="stroke-width:0.264583"
         id="path911" />
    </g>
    <g
       aria-label="D"
       id="text886"
       style="font-size:1.76389px;line-height:1.25;font-family:sans-serif;-inkscape-font-specification:'sans-serif, Normal';display:inline;opacity:1;stroke-width:0.264583"
       transform="translate(0.52916664,167.97081)">
      <path
         d="m 27.60407,34.447201 q 0,0.174838 -0.07665,0.316949 -0.07579,0.14211 -0.202399,0.220486 -0.08785,0.05426 -0.196371,0.07838 -0.107659,0.02412 -0.28422,0.02412 H 26.52059 V 33.80469 h 0.320394 q 0.187758,0 0.298001,0.02756 0.111105,0.0267 0.187758,0.07407 0.130914,0.08182 0.204122,0.217903 0.07321,0.136081 0.07321,0.322978 z m -0.178284,-0.0026 q 0,-0.150723 -0.05254,-0.254076 -0.05254,-0.103353 -0.156752,-0.162781 -0.07579,-0.04306 -0.161058,-0.05943 -0.08527,-0.01722 -0.204122,-0.01722 h -0.160197 v 0.989604 h 0.160197 q 0.123162,0 0.214457,-0.01809 0.09216,-0.01809 0.16881,-0.06718 0.0956,-0.06115 0.142971,-0.161058 0.04823,-0.09991 0.04823,-0.24977 z"
         style="stroke-width:0.264583"
         id="path914" />
    </g>
    <g
       aria-label="E"
       id="text890"
       style="font-size:1.76389px;line-height:1.25;font-family:sans-serif;-inkscape-font-specification:'sans-serif, Normal';display:inline;opacity:1;stroke-width:0.264583"
       transform="translate(1.0583333,169.36108)">
      <path
         d="m 29.815465,36.410728 h -0.84491 v -1.282437 h 0.84491 v 0.151584 h -0.674378 v 0.3514 h 0.674378 v 0.151584 h -0.674378 v 0.476285 h 0.674378 z"
         style="stroke-width:0.264583"
         id="path917" />
    </g>
    <g
       aria-label="F"
       id="text894"
       style="font-size:1.76389px;line-height:1.25;font-family:sans-serif;-inkscape-font-specification:'sans-serif, Normal';display:inline;opacity:1;stroke-width:0.264583"
       transform="translate(-0.52916663,169.55832)">
      <path
         d="m 32.304884,39.052077 h -0.64854 v 0.361735 h 0.557244 v 0.151584 h -0.557244 v 0.617534 h -0.170532 v -1.282438 h 0.819072 z"
         style="stroke-width:0.264583"
         id="path920" />
    </g>
    <text
       xml:space="preserve"
       style="font-size:1.76389px;line-height:1.25;font-family:sans-serif;-inkscape-font-specification:'sans-serif, Normal';stroke-width:0.264583"
       x="5.6175098"
       y="215.26575"
       id="text976"><tspan
         sodipodi:role="line"
         id="tspan974"
         x="5.6175098"
         y="215.26575"
         style="stroke-width:0.264583" /></text>
    <g
       id="use3043"
       transform="matrix(0.07000434,0,0,0.07000434,4.9976964,213.63385)">
      <title
         id="title3298">Flat</title>
      <path
         sodipodi:nodetypes="ccsscsssccccs"
         inkscape:connector-curvature="0"
         d="M 2.0953,38.71643 V 28.19384 c 0.2105,-1.00754 1.769,-2.84398 2.851,-2.91407 2.4343,-0.15691 3.6493,2.88268 2.5364,5.99006 -0.8693,2.42708 -3.5106,5.58538 -5.3874,7.4466 z m 7.772,-4.84453 c 0.9701,-0.92719 3.0031,-3.44061 2.6375,-6.55128 -0.3761,-3.19969 -3.1534,-4.55195 -4.8871,-4.55195 -1.6603,0 -3.3634,0.79983 -5.5224,2.40315 V 0 L 0,0.23079 v 42.5688 c 4.1779,-3.83027 6.2686,-5.4861 9.8673,-8.92586 z"
         id="path3300" />
    </g>
    <g
       id="use3047"
       transform="matrix(0.06362017,0,0,0.07000434,5.0870371,207.91076)">
      <title
         id="title3333">Natural</title>
      <path
         sodipodi:nodetypes="cccccccccccccc"
         inkscape:connector-curvature="0"
         d="m 2.048,28.05156 6.903,-1.82863 v -10.159 L 2.048,17.89255 Z M 8.951,31.02458 0,33.39588 V 0.22557 L 2.048,0 v 13.08909 l 8.9509,-2.37129 v 32.67748 l -2.0479,0.2254 z"
         id="path3335" />
    </g>
    <g
       id="use3045"
       transform="matrix(0.07000434,0,0,0.07000434,4.9267809,201.66203)">
      <title
         id="title3368">Sharp</title>
      <path
         inkscape:connector-curvature="0"
         d="M 11.5371,0 9.3619,0.2396 V 13.679 L 5.195,14.78403 V 1.90413 L 3.0199,2.14373 V 15.36065 L 0,16.16076 v 5.56007 L 3.0199,20.92072 V 32.79526 L 0,33.59537 v 5.55771 l 3.0199,-0.8002 v 12.4484 l 2.1751,-0.2397 v -12.7878 l 4.1669,-1.1049 v 12.2278 l 2.1752,-0.2397 v -12.5649 l 3.0372,-0.8049 v -5.55766 l -3.0372,0.80493 V 18.65991 l 3.0372,-0.80493 v -5.55766 l -3.0372,0.80493 z M 9.3619,19.23704 V 31.1093 L 5.195,32.2142 V 20.33966 Z"
         sodipodi:nodetypes="cccccccccccccccccccccccccccccccccc"
         id="path3370" />
    </g>
  </g>
  <g
     inkscape:groupmode="layer"
     id="layer2"
     inkscape:label="components"
     style="display:none;opacity:1">
    <circle
       style="display:inline;vector-effect:none;fill:#ff0000;fill-opacity:1;fill-rule:evenodd;stroke:none;stroke-width:1;stroke-linecap:butt;stroke-linejoin:miter;stroke-miterlimit:4;stroke-dasharray:none;stroke-dashoffset:0;stroke-opacity:1;paint-order:normal"
       id="path4954"
       cx="14.27326"
       cy="83.551987"
       r="4"
       inkscape:label="clock" />
    <circle
       r="4"
       cy="106.83171"
       cx="14.171827"
       id="circle4956"
       style="display:inline;vector-effect:none;fill:#00ff00;fill-opacity:1;fill-rule:evenodd;stroke:none;stroke-width:1;stroke-linecap:butt;stroke-linejoin:miter;stroke-miterlimit:4;stroke-dasharray:none;stroke-dashoffset:0;stroke-opacity:1;paint-order:normal"
       inkscape:label="exCloc" />
    <circle
       style="display:inline;vector-effect:none;fill:#0000ff;fill-opacity:1;fill-rule:evenodd;stroke:none;stroke-width:1;stroke-linecap:butt;stroke-linejoin:miter;stroke-miterlimit:4;stroke-dasharray:none;stroke-dashoffset:0;stroke-opacity:1;paint-order:normal"
       id="circle4958-8"
       cx="35.682659"
       cy="83.233803"
       inkscape:label="gate"
       r="4" />
    <circle
       style="display:inline;vector-effect:none;fill:#0000ff;fill-opacity:1;fill-rule:evenodd;stroke:none;stroke-width:1;stroke-linecap:butt;stroke-linejoin:miter;stroke-miterlimit:4;stroke-dasharray:none;stroke-dashoffset:0;stroke-opacity:1;paint-order:normal"
       id="circle4958-8-2"
       cx="35.7864"
       cy="107.57866"
       inkscape:label="cv"
       r="4" />
    <circle
       style="display:inline;vector-effect:none;fill:#ff0000;fill-opacity:1;fill-rule:evenodd;stroke:none;stroke-width:1;stroke-linecap:butt;stroke-linejoin:miter;stroke-miterlimit:4;stroke-dasharray:none;stroke-dashoffset:0;stroke-opacity:1;paint-order:normal"
       id="path4954-2"
       cx="25.4"
       cy="39.55051"
       r="4"
       inkscape:label="key" />
    <circle
       style="display:inline;vector-effect:none;fill:#ff0000;fill-opacity:1;fill-rule:evenodd;stroke:none;stroke-width:1;stroke-linecap:butt;stroke-linejoin:miter;stroke-miterlimit:4;stroke-dasharray:none;stroke-dashoffset:0;stroke-opacity:1;paint-order:normal"
       id="path4954-27"
       cx="14.27326"
       cy="58.75626"
       inkscape:label="rangeMin"
       r="4" />
    <circle
       style="display:inline;vector-effect:none;fill:#ff0000;fill-opacity:1;fill-rule:evenodd;stroke:none;stroke-width:1;stroke-linecap:butt;stroke-linejoin:miter;stroke-miterlimit:4;stroke-dasharray:none;stroke-dashoffset:0;stroke-opacity:1;paint-order:normal"
       id="path4954-1"
       cx="35.682659"
       cy="58.75626"
       r="4"
       inkscape:label="rangeMax" />
    <circle
       inkscape:label="blink"
       r="4"
       cy="21.355656"
       cx="25.4"
       id="circle66"
       style="display:inline;vector-effect:none;fill:#ff00ff;fill-opacity:1;fill-rule:evenodd;stroke:none;stroke-width:1;stroke-linecap:butt;stroke-linejoin:miter;stroke-miterlimit:4;stroke-dasharray:none;stroke-dashoffset:0;stroke-opacity:1;paint-order:normal" />
    <rect
       style="fill:#000000;fill-opacity:1;stroke:#000000;stroke-width:0.111816;stroke-linejoin:round"
       id="rect1739"
       width="0.30579332"
       height="6.859889"
       x="40.925144"
       y="40.723797"
       inkscape:label="majminswitch" />
    <rect
       style="display:inline;fill:#000000;fill-opacity:1;stroke:#000000;stroke-width:0.111816;stroke-linejoin:round"
       id="rect1739-3"
       width="0.30579332"
       height="6.859889"
       x="8.9429722"
       y="40.723789"
       inkscape:label="sharpswitch" />
    <circle
       style="display:inline;vector-effect:none;fill:#ff0000;fill-opacity:1;fill-rule:evenodd;stroke:none;stroke-width:1;stroke-linecap:butt;stroke-linejoin:miter;stroke-miterlimit:4;stroke-dasharray:none;stroke-dashoffset:0;stroke-opacity:1;paint-order:normal"
       id="path4954-2-0"
       cx="9.0958691"
       cy="21.355656"
       inkscape:label="run"
       r="4" />
    <circle
       inkscape:label="runLight"
       cy="21.355656"
       cx="9.0958691"
       id="circle66-9"
       style="display:inline;vector-effect:none;fill:#ff00ff;fill-opacity:1;fill-rule:evenodd;stroke:none;stroke-width:1;stroke-linecap:butt;stroke-linejoin:miter;stroke-miterlimit:4;stroke-dasharray:none;stroke-dashoffset:0;stroke-opacity:1;paint-order:normal"
       r="4" />
  </g>
</svg>
